<svg width="15" height="16" viewBox="0 0 15 16" fill="none" xmlns="http://www.w3.org/2000/svg">
<path d="M14 7C14.5523 7 15 7.44772 15 8C15 8.55228 14.5523 9 14 9L14 7ZM0.292893 8.70711C-0.0976315 8.31658 -0.0976314 7.68342 0.292893 7.29289L6.65685 0.928932C7.04738 0.538407 7.68054 0.538407 8.07107 0.928932C8.46159 1.31946 8.46159 1.95262 8.07107 2.34315L2.41421 8L8.07107 13.6569C8.46159 14.0474 8.46159 14.6805 8.07107 15.0711C7.68054 15.4616 7.04738 15.4616 6.65685 15.0711L0.292893 8.70711ZM14 9L1 9L1 7L14 7L14 9Z" fill="white"/>
</svg>
