<svg width="16" height="16" viewBox="0 0 16 16" fill="none" xmlns="http://www.w3.org/2000/svg">
<path d="M1.00188 13.5151C0.611353 13.9056 0.611353 14.5388 1.00188 14.9293C1.3924 15.3198 2.02557 15.3198 2.41609 14.9293L1.00188 13.5151ZM15.709 1.22217C15.709 0.669883 15.2613 0.222167 14.709 0.222167L5.70898 0.222168C5.1567 0.222168 4.70898 0.669883 4.70898 1.22217C4.70899 1.77445 5.1567 2.22217 5.70898 2.22217L13.709 2.22217L13.709 10.2222C13.709 10.7745 14.1567 11.2222 14.709 11.2222C15.2613 11.2222 15.709 10.7745 15.709 10.2222L15.709 1.22217ZM2.41609 14.9293L15.4161 1.92927L14.0019 0.515061L1.00188 13.5151L2.41609 14.9293Z" fill="white"/>
</svg>
