<svg width="294" height="610" viewBox="0 0 294 610" fill="none" xmlns="http://www.w3.org/2000/svg">
<mask id="mask0_90_49" style="mask-type:alpha" maskUnits="userSpaceOnUse" x="0" y="0" width="294" height="610">
<rect x="294" width="609.023" height="294" rx="48" transform="rotate(90 294 0)" fill="#EAF2F5"/>
</mask>
<g mask="url(#mask0_90_49)">
<rect width="1176" height="1294" transform="translate(877 -124) rotate(90)" fill="white"/>
<g filter="url(#filter0_d_90_49)">
<ellipse cx="144.14" cy="466.867" rx="436.7" ry="480.569" transform="rotate(90 144.14 466.867)" fill="white" fill-opacity="0.5"/>
</g>
<g filter="url(#filter1_bd_90_49)">
<ellipse cx="144.14" cy="466.867" rx="316.934" ry="348.36" transform="rotate(90 144.14 466.867)" fill="white" fill-opacity="0.3"/>
<ellipse cx="144.14" cy="466.867" rx="316.934" ry="348.36" transform="rotate(90 144.14 466.867)" fill="url(#paint0_linear_90_49)"/>
<path d="M144.14 782.801C-47.7926 782.801 -203.22 641.265 -203.22 466.867C-203.22 292.468 -47.7926 150.933 144.14 150.933C336.073 150.933 491.5 292.468 491.5 466.867C491.5 641.265 336.073 782.801 144.14 782.801Z" stroke="url(#paint1_linear_90_49)" stroke-width="2"/>
</g>
<g filter="url(#filter2_bd_90_49)">
<ellipse cx="144.14" cy="466.867" rx="232.206" ry="256.023" transform="rotate(90 144.14 466.867)" fill="white" fill-opacity="0.3"/>
<ellipse cx="144.14" cy="466.867" rx="232.206" ry="256.023" transform="rotate(90 144.14 466.867)" fill="url(#paint2_linear_90_49)"/>
<path d="M144.14 698.073C3.20038 698.073 -110.883 594.469 -110.883 466.867C-110.883 339.265 3.20038 235.661 144.14 235.661C285.08 235.661 399.164 339.265 399.164 466.867C399.164 594.469 285.08 698.073 144.14 698.073Z" stroke="url(#paint3_linear_90_49)" stroke-width="2"/>
</g>
<g filter="url(#filter3_bd_90_49)">
<ellipse cx="144.14" cy="466.867" rx="160.856" ry="176.978" transform="rotate(90 144.14 466.867)" fill="white" fill-opacity="0.3"/>
<ellipse cx="144.14" cy="466.867" rx="160.856" ry="176.978" transform="rotate(90 144.14 466.867)" fill="url(#paint4_linear_90_49)"/>
<path d="M144.14 626.723C46.8581 626.723 -31.8379 555.065 -31.8379 466.867C-31.838 378.669 46.8581 307.011 144.14 307.011C241.422 307.011 320.118 378.669 320.118 466.867C320.118 555.065 241.422 626.723 144.14 626.723Z" stroke="url(#paint5_linear_90_49)" stroke-width="2"/>
</g>
<g filter="url(#filter4_bd_90_49)">
<ellipse cx="144.14" cy="466.867" rx="102.247" ry="112.622" transform="rotate(90 144.14 466.867)" fill="white" fill-opacity="0.3"/>
<ellipse cx="144.14" cy="466.867" rx="102.247" ry="112.622" transform="rotate(90 144.14 466.867)" fill="url(#paint6_linear_90_49)"/>
<path d="M144.14 568.114C82.3996 568.114 32.5177 522.695 32.5177 466.867C32.5177 411.038 82.3996 365.62 144.14 365.62C205.881 365.62 255.762 411.038 255.762 466.867C255.762 522.695 205.881 568.114 144.14 568.114Z" stroke="url(#paint7_linear_90_49)" stroke-width="2"/>
</g>
</g>
<path d="M219.147 459.04H74.879V519.814H219.147V459.04Z" fill="#38BFF2" stroke="#263238" stroke-linecap="round" stroke-linejoin="round"/>
<path d="M91.4645 462.719H77.8926V470.232H91.4645V462.719Z" fill="white" stroke="#263238" stroke-miterlimit="10"/>
<path d="M215.807 499.351H194.43V506.864H215.807V499.351Z" fill="white" stroke="#263238" stroke-miterlimit="10"/>
<path d="M215.814 472.102H202.617V479.615H215.814V472.102Z" fill="white" stroke="#263238" stroke-miterlimit="10"/>
<path d="M91.4645 490.087H77.8926V497.6H91.4645V490.087Z" fill="white" stroke="#263238" stroke-miterlimit="10"/>
<path d="M88.8814 481.035H77.8926V488.548H88.8814V481.035Z" fill="white" stroke="#263238" stroke-miterlimit="10"/>
<path d="M85.404 471.877H77.8926V479.39H85.404V471.877Z" fill="white" stroke="#263238" stroke-miterlimit="10"/>
<path d="M94.9997 471.877H87.4883V479.39H94.9997V471.877Z" fill="white" stroke="#263238" stroke-miterlimit="10"/>
<path d="M104.588 471.877H97.0762V479.39H104.588V471.877Z" fill="white" stroke="#263238" stroke-miterlimit="10"/>
<path d="M114.175 471.877H106.664V479.39H114.175V471.877Z" fill="white" stroke="#263238" stroke-miterlimit="10"/>
<path d="M123.769 471.877H116.258V479.39H123.769V471.877Z" fill="white" stroke="#263238" stroke-miterlimit="10"/>
<path d="M133.357 471.877H125.846V479.39H133.357V471.877Z" fill="white" stroke="#263238" stroke-miterlimit="10"/>
<path d="M142.945 471.877H135.434V479.39H142.945V471.877Z" fill="white" stroke="#263238" stroke-miterlimit="10"/>
<path d="M152.539 471.877H145.028V479.39H152.539V471.877Z" fill="white" stroke="#263238" stroke-miterlimit="10"/>
<path d="M162.127 471.877H154.615V479.39H162.127V471.877Z" fill="white" stroke="#263238" stroke-miterlimit="10"/>
<path d="M171.72 471.877H164.209V479.39H171.72V471.877Z" fill="white" stroke="#263238" stroke-miterlimit="10"/>
<path d="M181.308 471.877H173.797V479.39H181.308V471.877Z" fill="white" stroke="#263238" stroke-miterlimit="10"/>
<path d="M190.896 471.877H183.385V479.39H190.896V471.877Z" fill="white" stroke="#263238" stroke-miterlimit="10"/>
<path d="M200.49 471.877H192.979V479.39H200.49V471.877Z" fill="white" stroke="#263238" stroke-miterlimit="10"/>
<path d="M85.404 508.616H77.8926V516.129H85.404V508.616Z" fill="white" stroke="#263238" stroke-miterlimit="10"/>
<path d="M94.9997 508.616H87.4883V516.129H94.9997V508.616Z" fill="white" stroke="#263238" stroke-miterlimit="10"/>
<path d="M104.588 508.616H97.0762V516.129H104.588V508.616Z" fill="white" stroke="#263238" stroke-miterlimit="10"/>
<path d="M115.833 508.616H106.664V516.129H115.833V508.616Z" fill="white" stroke="#263238" stroke-miterlimit="10"/>
<path d="M163.784 508.616H117.908V516.129H163.784V508.616Z" fill="white" stroke="#263238" stroke-miterlimit="10"/>
<path d="M196.306 508.616H188.795V516.129H196.306V508.616Z" fill="white" stroke="#263238" stroke-miterlimit="10"/>
<path d="M205.914 508.616H198.402V516.129H205.914V508.616Z" fill="white" stroke="#263238" stroke-miterlimit="10"/>
<path d="M177.324 508.616H165.66V516.129H177.324V508.616Z" fill="white" stroke="#263238" stroke-miterlimit="10"/>
<path d="M215.808 508.616H208.297V516.129H215.808V508.616Z" fill="white" stroke="#263238" stroke-miterlimit="10"/>
<path d="M98.5271 481.035H91.0156V488.548H98.5271V481.035Z" fill="white" stroke="#263238" stroke-miterlimit="10"/>
<path d="M108.115 481.035H100.604V488.548H108.115V481.035Z" fill="white" stroke="#263238" stroke-miterlimit="10"/>
<path d="M117.709 481.035H110.197V488.548H117.709V481.035Z" fill="white" stroke="#263238" stroke-miterlimit="10"/>
<path d="M127.296 481.035H119.785V488.548H127.296V481.035Z" fill="white" stroke="#263238" stroke-miterlimit="10"/>
<path d="M136.89 481.035H129.379V488.548H136.89V481.035Z" fill="white" stroke="#263238" stroke-miterlimit="10"/>
<path d="M146.478 481.035H138.967V488.548H146.478V481.035Z" fill="white" stroke="#263238" stroke-miterlimit="10"/>
<path d="M156.066 481.035H148.555V488.548H156.066V481.035Z" fill="white" stroke="#263238" stroke-miterlimit="10"/>
<path d="M165.66 481.035H158.148V488.548H165.66V481.035Z" fill="white" stroke="#263238" stroke-miterlimit="10"/>
<path d="M175.248 481.035H167.736V488.548H175.248V481.035Z" fill="white" stroke="#263238" stroke-miterlimit="10"/>
<path d="M184.836 481.035H177.324V488.548H184.836V481.035Z" fill="white" stroke="#263238" stroke-miterlimit="10"/>
<path d="M194.431 481.035H186.92V488.548H194.431V481.035Z" fill="white" stroke="#263238" stroke-miterlimit="10"/>
<path d="M204.017 481.035H196.506V488.548H204.017V481.035Z" fill="white" stroke="#263238" stroke-miterlimit="10"/>
<path d="M215.807 481.035V497.712H208.295V488.548H206.094V481.035H215.807Z" fill="white" stroke="#263238" stroke-miterlimit="10"/>
<path d="M100.728 490.193H93.2167V497.706H100.728V490.193Z" fill="white" stroke="#263238" stroke-miterlimit="10"/>
<path d="M110.316 490.193H102.805V497.706H110.316V490.193Z" fill="white" stroke="#263238" stroke-miterlimit="10"/>
<path d="M119.904 490.193H112.393V497.706H119.904V490.193Z" fill="white" stroke="#263238" stroke-miterlimit="10"/>
<path d="M129.498 490.193H121.986V497.706H129.498V490.193Z" fill="white" stroke="#263238" stroke-miterlimit="10"/>
<path d="M139.086 490.193H131.574V497.706H139.086V490.193Z" fill="white" stroke="#263238" stroke-miterlimit="10"/>
<path d="M148.679 490.193H141.168V497.706H148.679V490.193Z" fill="white" stroke="#263238" stroke-miterlimit="10"/>
<path d="M158.267 490.193H150.756V497.706H158.267V490.193Z" fill="white" stroke="#263238" stroke-miterlimit="10"/>
<path d="M167.855 490.193H160.344V497.706H167.855V490.193Z" fill="white" stroke="#263238" stroke-miterlimit="10"/>
<path d="M177.451 490.193H169.939V497.706H177.451V490.193Z" fill="white" stroke="#263238" stroke-miterlimit="10"/>
<path d="M187.037 490.193H179.525V497.706H187.037V490.193Z" fill="white" stroke="#263238" stroke-miterlimit="10"/>
<path d="M196.625 490.193H189.113V497.706H196.625V490.193Z" fill="white" stroke="#263238" stroke-miterlimit="10"/>
<path d="M206.22 490.193H198.709V497.706H206.22V490.193Z" fill="white" stroke="#263238" stroke-miterlimit="10"/>
<path d="M96.6502 499.351H89.1388V506.864H96.6502V499.351Z" fill="white" stroke="#263238" stroke-miterlimit="10"/>
<path d="M106.238 499.351H98.7267V506.864H106.238V499.351Z" fill="white" stroke="#263238" stroke-miterlimit="10"/>
<path d="M115.832 499.351H108.32V506.864H115.832V499.351Z" fill="white" stroke="#263238" stroke-miterlimit="10"/>
<path d="M125.42 499.351H117.908V506.864H125.42V499.351Z" fill="white" stroke="#263238" stroke-miterlimit="10"/>
<path d="M135.013 499.351H127.502V506.864H135.013V499.351Z" fill="white" stroke="#263238" stroke-miterlimit="10"/>
<path d="M144.601 499.351H137.09V506.864H144.601V499.351Z" fill="white" stroke="#263238" stroke-miterlimit="10"/>
<path d="M154.189 499.351H146.678V506.864H154.189V499.351Z" fill="white" stroke="#263238" stroke-miterlimit="10"/>
<path d="M163.785 499.351H156.273V506.864H163.785V499.351Z" fill="white" stroke="#263238" stroke-miterlimit="10"/>
<path d="M173.373 499.351H165.861V506.864H173.373V499.351Z" fill="white" stroke="#263238" stroke-miterlimit="10"/>
<path d="M182.961 499.351H175.449V506.864H182.961V499.351Z" fill="white" stroke="#263238" stroke-miterlimit="10"/>
<path d="M192.554 499.351H185.043V506.864H192.554V499.351Z" fill="white" stroke="#263238" stroke-miterlimit="10"/>
<path d="M100.728 463.169H93.2167V470.682H100.728V463.169Z" fill="white" stroke="#263238" stroke-miterlimit="10"/>
<path d="M110.316 463.169H102.805V470.682H110.316V463.169Z" fill="white" stroke="#263238" stroke-miterlimit="10"/>
<path d="M119.904 463.169H112.393V470.682H119.904V463.169Z" fill="white" stroke="#263238" stroke-miterlimit="10"/>
<path d="M129.498 463.169H121.986V470.682H129.498V463.169Z" fill="white" stroke="#263238" stroke-miterlimit="10"/>
<path d="M139.086 463.169H131.574V470.682H139.086V463.169Z" fill="white" stroke="#263238" stroke-miterlimit="10"/>
<path d="M148.679 463.169H141.168V470.682H148.679V463.169Z" fill="white" stroke="#263238" stroke-miterlimit="10"/>
<path d="M158.267 463.169H150.756V470.682H158.267V463.169Z" fill="white" stroke="#263238" stroke-miterlimit="10"/>
<path d="M167.855 463.169H160.344V470.682H167.855V463.169Z" fill="white" stroke="#263238" stroke-miterlimit="10"/>
<path d="M177.451 463.169H169.939V470.682H177.451V463.169Z" fill="white" stroke="#263238" stroke-miterlimit="10"/>
<path d="M187.037 463.169H179.525V470.682H187.037V463.169Z" fill="white" stroke="#263238" stroke-miterlimit="10"/>
<path d="M196.625 463.169H189.113V470.682H196.625V463.169Z" fill="white" stroke="#263238" stroke-miterlimit="10"/>
<path d="M206.22 463.169H198.709V470.682H206.22V463.169Z" fill="white" stroke="#263238" stroke-miterlimit="10"/>
<path d="M215.808 463.169H208.297V470.682H215.808V463.169Z" fill="white" stroke="#263238" stroke-miterlimit="10"/>
<path d="M86.9926 499.351H77.8926V506.864H86.9926V499.351Z" fill="white" stroke="#263238" stroke-miterlimit="10"/>
<path d="M74.879 459.428L77.8936 458.421H217.19L219.172 459.415L74.879 459.428Z" fill="#263238"/>
<path d="M201.21 531.43L201.285 503.774C201.585 502.661 201.829 498.557 202.467 495.698C203.555 490.906 199.277 485.126 198.977 484.938C197.776 484.188 195.225 484.2 195.225 484.2C195.225 484.2 192.723 481.348 190.49 480.447C188.956 479.902 187.32 479.699 185.699 479.853C183.98 478.433 182.063 477.271 180.008 476.406C179.204 476.102 178.331 476.025 177.486 476.184C176.641 476.343 175.856 476.731 175.217 477.307L172.403 481.686C171.991 482.307 171.805 483.05 171.874 483.792C171.944 484.534 172.265 485.23 172.784 485.764C174.123 487.078 175.836 486.465 176.699 486.465C177.894 486.465 178.344 485.114 178.344 485.114C178.344 485.114 178.638 492.151 178.344 493.052C178.038 493.947 175.799 496.042 175.799 496.042L168.294 486.14C165.717 482.643 163.463 478.92 161.558 475.017C161.34 474.541 161.056 474.099 160.713 473.703C159.4 472.221 156.592 471.783 155.86 474.535C155.68 475.416 155.721 476.327 155.979 477.188C159.106 486.434 163.096 493.421 166.73 500.703C168.888 505.025 168.087 504.975 169.163 506.927C169.038 507.015 169.1 507.177 168.963 507.259C168.437 509.36 168.068 511.469 167.537 513.57C167.096 510.932 166.29 508.367 165.141 505.951C165.445 504.487 165.556 502.99 165.473 501.497C165.379 499.989 164.707 498.575 163.597 497.55C162.975 497.047 162.212 496.75 161.414 496.699C160.842 496.662 160.278 496.841 159.832 497.202C159.387 497.562 159.094 498.077 159.012 498.645C158.887 499.789 158.678 500.922 158.387 502.035C157.909 503.489 157.332 504.908 156.661 506.283C156.661 509.079 158.387 508.622 159.644 519.845C160.62 528.603 171.877 534.364 178.007 540.676L185.265 562.123C194.398 557.825 198.159 555.676 205.949 549.767L201.21 531.43Z" fill="white"/>
<path d="M163.753 516.292C163.828 516.154 163.891 516.016 163.953 515.873C163.887 515.919 163.833 515.983 163.798 516.056C163.763 516.129 163.748 516.211 163.753 516.292Z" fill="#92E3A9"/>
<path d="M181.784 477.594C180.926 476.923 179.905 476.492 178.826 476.343L181.784 477.594Z" fill="#92E3A9"/>
<path d="M178.451 480.522L178.489 480.835C178.511 480.729 178.497 480.619 178.451 480.522Z" fill="#92E3A9"/>
<g opacity="0.5">
<path opacity="0.5" d="M163.753 516.292C163.828 516.154 163.891 516.016 163.953 515.873C163.887 515.919 163.833 515.983 163.798 516.056C163.763 516.129 163.748 516.211 163.753 516.292Z" fill="white"/>
<path opacity="0.5" d="M181.784 477.594C180.926 476.923 179.905 476.492 178.826 476.343L181.784 477.594Z" fill="white"/>
<path opacity="0.5" d="M178.451 480.522L178.489 480.835C178.511 480.729 178.497 480.619 178.451 480.522Z" fill="white"/>
<path opacity="0.5" d="M181.896 507.653C181.615 506.952 180.251 504.938 179.457 506.333L181.896 507.653Z" fill="white"/>
</g>
<path d="M158.643 504.287C157.916 504.86 157.296 505.557 156.811 506.345L158.643 504.287Z" fill="white"/>
<path d="M185.266 562.123L178.069 540.657C171.94 534.345 160.682 528.571 159.706 519.826C158.456 508.603 156.723 509.06 156.723 506.264C157.394 504.889 157.971 503.47 158.449 502.016C158.741 500.903 158.95 499.77 159.075 498.626C159.157 498.059 159.45 497.544 159.895 497.183C160.34 496.822 160.905 496.643 161.476 496.68C162.275 496.731 163.037 497.028 163.659 497.531C164.77 498.556 165.442 499.97 165.536 501.478C165.619 502.971 165.507 504.468 165.204 505.932C166.353 508.348 167.159 510.913 167.599 513.552C168.131 511.45 168.5 509.342 169.025 507.24C169.163 507.158 169.1 506.996 169.226 506.908C168.15 504.956 168.95 505.031 166.793 500.684C163.159 493.402 159.175 486.415 156.041 477.169C155.784 476.308 155.743 475.397 155.923 474.517C156.654 471.764 159.463 472.202 160.776 473.685C161.119 474.08 161.403 474.522 161.62 474.998C163.525 478.901 165.78 482.624 168.356 486.121L175.861 496.023C175.861 496.023 178.1 493.928 178.407 493.033C178.701 492.132 178.407 485.095 178.407 485.095C178.407 485.095 177.957 486.446 176.762 486.446C175.899 486.446 174.185 487.072 172.847 485.745C172.322 485.22 171.993 484.531 171.912 483.793C171.831 483.055 172.004 482.312 172.403 481.685L175.198 477.307C175.837 476.731 176.622 476.343 177.467 476.184C178.312 476.025 179.185 476.102 179.989 476.406C182.044 477.271 183.961 478.433 185.681 479.853C187.302 479.699 188.937 479.902 190.471 480.447C192.723 481.354 195.206 484.2 195.206 484.2C195.206 484.2 197.752 484.2 198.959 484.938C199.259 485.126 203.537 490.906 202.449 495.698C201.823 498.557 201.567 502.661 201.266 503.774L201.191 531.43L206.217 549.767" stroke="#263238" stroke-miterlimit="10"/>
<path d="M186.387 480.828C187.488 484.909 188.06 489.114 188.088 493.34C188.052 494.048 188.128 494.757 188.313 495.442C188.41 495.782 188.593 496.092 188.843 496.341C189.094 496.591 189.405 496.772 189.745 496.868" stroke="#263238" stroke-miterlimit="10"/>
<path d="M195.23 484.938C197.107 488.854 195.187 497.6 195.324 498.219C195.383 498.53 195.508 498.825 195.69 499.084C195.873 499.343 196.108 499.56 196.381 499.72" stroke="#263238" stroke-miterlimit="10"/>
<path d="M179.108 480.291C178.889 481.542 178.707 482.98 178.482 484.225C177.754 483.599 177.158 482.834 176.729 481.974C176.299 481.115 176.045 480.179 175.98 479.221" stroke="#263238" stroke-miterlimit="10"/>
<path d="M167.124 513.671L165.773 514.265" stroke="#263238" stroke-miterlimit="10"/>
<path d="M167.468 514.753C167.253 515.797 167.253 516.874 167.468 517.918" stroke="#263238" stroke-miterlimit="10"/>
<path d="M175.373 503.061L176.868 505.757" stroke="#263238" stroke-miterlimit="10"/>
<path d="M178.25 493.196L179.739 491.094" stroke="#263238" stroke-miterlimit="10"/>
<path d="M199.183 503.061L198.732 504.712" stroke="#263238" stroke-miterlimit="10"/>
<path d="M195.543 498.576C195.96 497.174 196.4 495.773 196.863 494.372" stroke="#263238" stroke-miterlimit="10"/>
<path d="M199.922 491.1C200.318 490.893 200.779 490.851 201.206 490.983C201.633 491.116 201.99 491.412 202.198 491.807" stroke="#263238" stroke-miterlimit="10"/>
<path d="M190.959 483.919C191.478 483.773 192.025 483.76 192.551 483.88C193.076 484 193.563 484.25 193.967 484.607" stroke="#263238" stroke-miterlimit="10"/>
<path d="M163.102 488.091C163.587 487.559 164.191 487.149 164.865 486.895C165.539 486.64 166.263 486.549 166.979 486.627" stroke="#263238" stroke-miterlimit="10"/>
<path d="M157.455 476.293C157.902 475.971 158.409 475.74 158.945 475.613C159.482 475.486 160.038 475.467 160.582 475.555" stroke="#263238" stroke-miterlimit="10"/>
<path d="M158.643 504.287C157.916 504.86 157.296 505.557 156.811 506.345" stroke="#263238" stroke-miterlimit="10"/>
<path d="M159.219 501.441C160.207 500.74 161.783 502.317 162.69 501.51C162.85 501.328 162.963 501.11 163.016 500.873C163.07 500.637 163.063 500.391 162.996 500.158C162.863 499.693 162.801 499.21 162.815 498.726" stroke="#263238" stroke-miterlimit="10"/>
<path d="M187.105 497.106C188.309 499.604 188.554 502.458 187.793 505.125" stroke="#263238" stroke-miterlimit="10"/>
<path d="M194.373 500.965C194.568 502.148 194.347 503.362 193.748 504.4" stroke="#263238" stroke-miterlimit="10"/>
<path d="M131.516 500.614C131.247 499.363 129.489 499.557 129.489 499.557C123.579 499.901 122.785 509.165 122.785 509.165L120.665 515.515L120.039 505.969L120.102 493.664C120.102 493.664 121.89 481.891 121.096 480.046C120.915 479.537 120.585 479.094 120.148 478.775C119.712 478.456 119.191 478.275 118.651 478.256C115.211 477.393 115.011 482.354 115.011 482.354L112.109 492.475L110.883 503.392L109.895 502.86C109.895 502.86 109.426 491.281 109.626 491.087C109.826 490.893 111.014 483.079 111.014 483.079C111.014 483.079 111.64 481.628 112.471 479.777C112.706 479.257 112.828 478.693 112.828 478.122C112.828 477.551 112.706 476.987 112.471 476.467C111.077 473.621 108.175 474.947 107.574 476.467C106.869 478.011 106.076 479.513 105.198 480.965L101.883 490.029C102.008 492.081 100.832 502.197 100.832 502.197L99.6375 501.659L97.7174 495.716L99.1809 489.629C99.1809 489.629 102.377 486.126 101.82 484.062C101.264 481.997 98.5805 482.61 98.5805 482.61L93.1643 489.085H91.5694L87.8168 493.852C86.1134 498.964 85.8089 504.44 86.935 509.71L87.7981 513.732V539.737C87.7981 539.737 85.2276 543.903 85.2276 544.297C85.2276 544.479 82.7948 548.892 81.3125 552.99C87.7712 557.213 94.7432 560.78 103.07 564.272C105.441 557.597 109.482 548.476 111.014 546.812C114.054 543.503 120.008 537.153 120.008 537.153C120.008 537.153 126.769 526.287 127.563 522.671C128.188 519.706 129.802 514.326 130.352 512.481C130.48 512.062 130.531 511.623 130.503 511.186C130.459 510.21 130.365 508.315 130.365 506.644C130.365 504.23 131.772 501.846 131.516 500.614Z" fill="white"/>
<path d="M81.3125 552.99C83.1928 548.692 85.8311 542.697 85.8311 542.515C85.8311 542.121 88.4016 537.955 88.4016 537.955V511.957L87.5385 507.959C86.4132 502.703 86.7112 497.241 88.4016 492.139L92.1542 487.372H93.7491L99.1653 480.897C99.1653 480.897 101.88 480.272 102.405 482.349C102.93 484.426 99.7657 487.904 99.7657 487.904L98.3022 493.99L100.222 499.933L101.417 500.471C101.417 500.471 102.593 490.356 102.468 488.304L105.782 479.24C106.661 477.787 107.454 476.286 108.159 474.742C108.784 473.222 111.661 471.896 113.056 474.742C113.291 475.262 113.413 475.826 113.413 476.396C113.413 476.967 113.291 477.531 113.056 478.051C112.256 479.928 111.599 481.354 111.599 481.354C111.599 481.354 110.411 489.161 110.21 489.361C110.01 489.561 110.479 501.134 110.479 501.134L111.468 501.666L112.662 490.75L115.564 480.628C115.564 480.628 115.764 475.668 119.204 476.531C119.744 476.55 120.266 476.73 120.702 477.049C121.138 477.368 121.468 477.811 121.65 478.32C122.444 480.165 120.655 491.939 120.655 491.939L120.593 504.243L121.218 513.789L123.338 507.44C123.338 507.44 124.133 498.175 130.043 497.831C130.043 497.831 131.8 497.65 132.069 498.889C132.338 500.127 130.919 502.504 130.919 504.888C130.919 506.558 131.012 508.453 131.056 509.429C131.085 509.866 131.034 510.305 130.906 510.724C130.356 512.57 128.773 517.949 128.117 520.915C127.322 524.53 120.561 535.396 120.561 535.396C120.561 535.396 114.607 541.746 111.568 545.055C110.035 546.719 105.441 557.597 103.07 564.272" stroke="#263238" stroke-miterlimit="10"/>
<path d="M101.328 501.428C101.494 502.05 101.499 502.703 101.343 503.327C101.186 503.951 100.873 504.525 100.434 504.994" fill="white"/>
<path d="M101.328 501.428C101.494 502.05 101.499 502.703 101.343 503.327C101.186 503.951 100.873 504.525 100.434 504.994" stroke="#263238" stroke-miterlimit="10"/>
<path d="M91.2404 510.174C92.0972 508.841 92.9353 507.015 92.7039 505.451C92.2536 502.379 90.8276 498.845 91.4843 495.804C91.8846 493.865 92.2911 491.92 92.6914 489.98" fill="white"/>
<path d="M91.2404 510.174C92.0972 508.841 92.9353 507.015 92.7039 505.451C92.2536 502.379 90.8276 498.845 91.4843 495.804C91.8846 493.865 92.2911 491.92 92.6914 489.98" stroke="#263238" stroke-miterlimit="10"/>
<path d="M116.176 481.16C117.201 480.89 118.278 480.89 119.303 481.16C119.303 480.872 119.303 480.585 119.303 480.291" stroke="#263238" stroke-miterlimit="10"/>
<path d="M107.982 477.25C108.284 477.458 108.637 477.579 109.002 477.599C109.367 477.62 109.732 477.54 110.054 477.367C110.377 477.195 110.647 476.937 110.833 476.622C111.019 476.306 111.115 475.946 111.11 475.58" stroke="#263238" stroke-miterlimit="10"/>
<path d="M130.568 498.97C129.703 499.192 128.944 499.71 128.42 500.433C127.895 501.155 127.64 502.039 127.697 502.93L129.23 503.386" stroke="#263238" stroke-miterlimit="10"/>
<path d="M110.441 499.733C110.51 500.784 110.378 503.292 110.441 504.337V499.733Z" fill="white"/>
<path d="M110.441 499.733C110.51 500.784 110.378 503.292 110.441 504.337" stroke="#263238" stroke-miterlimit="10"/>
<path d="M111.592 501.184C111.467 502.907 111.34 504.627 111.211 506.345C111.211 506.126 111.211 505.907 111.211 505.688" fill="white"/>
<path d="M111.592 501.184C111.467 502.907 111.34 504.627 111.211 506.345C111.211 506.126 111.211 505.907 111.211 505.688" stroke="#263238" stroke-miterlimit="10"/>
<path d="M121.117 515.685C121.571 517.586 121.364 519.585 120.529 521.352L121.117 515.685Z" fill="white"/>
<path d="M121.117 515.685C121.571 517.586 121.364 519.585 120.529 521.352" stroke="#263238" stroke-miterlimit="10"/>
<path d="M105.281 506.671C103.918 508.166 104.118 511.75 105.081 513.727" stroke="#263238" stroke-miterlimit="10"/>
<path d="M115.357 509.135C115.365 510.816 114.773 512.444 113.688 513.727" stroke="#263238" stroke-miterlimit="10"/>
<path d="M95.3489 507.384C95.1223 508.908 95.4532 510.463 96.2808 511.763" stroke="#263238" stroke-miterlimit="10"/>
<path d="M89.5458 512.057C89.486 513.246 89.825 514.422 90.509 515.397" stroke="#263238" stroke-miterlimit="10"/>
<path d="M97.5 483.212C97.8592 483.048 98.2589 482.995 98.6486 483.058C99.0383 483.121 99.4004 483.299 99.689 483.569L100.477 482.543" stroke="#263238" stroke-miterlimit="10"/>
<path d="M103.918 487.81C104.445 487.494 105.068 487.376 105.675 487.478C106.281 487.58 106.831 487.895 107.226 488.367" stroke="#263238" stroke-miterlimit="10"/>
<path d="M113.938 490.938C114.499 490.687 115.11 490.564 115.725 490.576C116.341 490.589 116.945 490.738 117.496 491.013" stroke="#263238" stroke-miterlimit="10"/>
<path d="M91.6405 496.186C91.9734 495.629 92.4594 495.18 93.0404 494.892C93.6214 494.603 94.2731 494.488 94.9178 494.56" stroke="#263238" stroke-miterlimit="10"/>
<path d="M87.4434 502.166C87.4635 501.762 87.6216 501.376 87.8912 501.073C88.1608 500.77 88.5258 500.569 88.9256 500.502" stroke="#263238" stroke-miterlimit="10"/>
<path d="M251.833 352.457L42 353.445L45.1709 348.691C45.9195 347.56 46.9357 346.631 48.1294 345.987C49.323 345.343 50.657 345.004 52.0132 345H241.869C243.098 344.999 244.311 345.274 245.42 345.805C246.528 346.335 247.504 347.108 248.274 348.065L251.833 352.457Z" fill="white" stroke="#263238" stroke-linecap="round" stroke-linejoin="round"/>
<path d="M150.563 383.916H139.067C127.272 383.916 117.709 393.481 117.709 405.279V416.777C117.709 428.576 127.272 438.14 139.067 438.14H150.563C162.359 438.14 171.921 428.576 171.921 416.777V405.279C171.921 393.481 162.359 383.916 150.563 383.916Z" fill="#757575" stroke="#263238" stroke-linecap="round" stroke-linejoin="round"/>
<path d="M127.559 415.614V423.32C127.559 424.482 128.02 425.596 128.841 426.417C129.662 427.238 130.775 427.699 131.937 427.699H158.374C159.529 427.699 160.638 427.242 161.458 426.428C162.279 425.613 162.743 424.508 162.752 423.352C162.789 419.88 162.971 415.614 162.971 415.614H127.559Z" fill="#999999" stroke="#263238" stroke-linecap="round" stroke-linejoin="round"/>
<path d="M224.314 418.185H69.7072C68.912 418.186 68.1347 417.949 67.4765 417.502C66.8184 417.056 66.3098 416.422 66.0171 415.682L42.1694 354.446C42.0247 354.076 41.9726 353.676 42.0177 353.281C42.0628 352.886 42.2037 352.508 42.4281 352.18C42.6525 351.852 42.9536 351.584 43.3053 351.399C43.657 351.214 44.0486 351.117 44.446 351.118H249.588C249.982 351.122 250.37 351.222 250.718 351.41C251.065 351.597 251.362 351.866 251.583 352.193C251.804 352.52 251.942 352.896 251.986 353.289C252.029 353.681 251.977 354.078 251.833 354.446L227.985 415.664C227.697 416.404 227.192 417.04 226.538 417.489C225.883 417.939 225.108 418.181 224.314 418.185Z" fill="white" stroke="#263238" stroke-linecap="round" stroke-linejoin="round"/>
<path d="M225.464 412.849H68.1868L46.5468 354.996H247.004L225.464 412.849Z" fill="white"/>
<path d="M162.79 418.103H127.729V420.506H162.79V418.103Z" fill="#263238"/>
<path d="M202.492 410.371H91.4275C90.8021 410.371 90.2392 410.096 90.1266 409.746L74.3282 359.544C74.1531 358.981 74.6472 358.525 75.4352 358.525H218.484C219.272 358.525 219.766 358.981 219.585 359.544L203.793 409.746C203.674 410.09 203.098 410.371 202.492 410.371Z" fill="#38BFF2"/>
<path d="M201.38 409.227H92.5547C92.3506 409.228 92.1517 409.163 91.988 409.041C91.8244 408.919 91.7049 408.747 91.6478 408.551L78.7889 366.35C78.741 366.207 78.7282 366.053 78.7516 365.904C78.7749 365.754 78.8337 365.612 78.9231 365.489C79.0124 365.367 79.1297 365.268 79.2652 365.2C79.4007 365.132 79.5505 365.098 79.702 365.099H214.22C214.372 365.098 214.521 365.132 214.657 365.2C214.792 365.268 214.91 365.367 214.999 365.489C215.088 365.612 215.147 365.754 215.17 365.904C215.194 366.053 215.181 366.207 215.133 366.35L202.287 408.551C202.229 408.746 202.109 408.918 201.946 409.039C201.782 409.161 201.584 409.227 201.38 409.227Z" fill="#263238"/>
<path d="M107.665 376.072H86.7939C86.2748 376.072 85.937 376.347 86.0371 376.697C86.138 376.899 86.2965 377.066 86.4925 377.177C86.6885 377.289 86.9131 377.339 87.1378 377.323H107.89C108.403 377.323 108.765 377.048 108.709 376.697C108.653 376.347 108.177 376.072 107.665 376.072Z" fill="white"/>
<path d="M108.358 379.881H90.6084C90.1018 379.881 89.7703 380.15 89.8579 380.507C89.9535 380.706 90.1064 380.872 90.2969 380.983C90.4875 381.095 90.7071 381.147 90.9274 381.132H108.608C109.115 381.132 109.471 380.863 109.415 380.507C109.359 380.15 108.865 379.881 108.358 379.881Z" fill="white"/>
<path opacity="0.5" d="M109.034 383.56H88.8949C88.3946 383.56 88.0694 383.816 88.1569 384.135C88.2575 384.326 88.4118 384.484 88.6007 384.588C88.7896 384.693 89.0049 384.74 89.2202 384.723H109.234C109.728 384.723 110.085 384.467 110.028 384.148C109.972 383.829 109.534 383.56 109.034 383.56Z" fill="white"/>
<path d="M109.684 387.113H97.8567C97.3688 387.113 97.0311 387.363 97.1061 387.67C97.1812 387.976 97.6378 388.226 98.1256 388.226H109.89C110.378 388.226 110.728 387.976 110.672 387.67C110.615 387.363 110.178 387.113 109.684 387.113Z" fill="white"/>
<path d="M110.316 390.541H90.8523C90.3769 390.541 90.0517 390.785 90.1393 391.079C90.2268 391.373 90.6771 391.617 91.1587 391.617H110.547C111.022 391.617 111.366 391.379 111.316 391.079C111.266 390.779 110.797 390.541 110.316 390.541Z" fill="white"/>
<path d="M110.922 393.863H95.2107C94.7353 393.863 94.4164 394.094 94.4914 394.382C94.5665 394.67 95.0105 394.901 95.4796 394.901H111.115C111.584 394.901 111.922 394.67 111.872 394.382C111.822 394.094 111.397 393.863 110.922 393.863Z" fill="white"/>
<path d="M111.51 397.072H96.0557C95.5867 397.072 95.274 397.297 95.349 397.572C95.4241 397.848 95.8556 398.079 96.3184 398.079H111.698C112.161 398.079 112.492 397.854 112.442 397.572C112.392 397.291 111.979 397.072 111.51 397.072Z" fill="white"/>
<path d="M112.08 400.175H95.1936C94.7371 400.175 94.4244 400.394 94.4994 400.663C94.5745 400.932 94.9998 401.151 95.4563 401.151H112.237C112.693 401.151 113.025 400.932 112.975 400.663C112.925 400.394 112.543 400.175 112.08 400.175Z" fill="white"/>
<path opacity="0.5" d="M112.636 403.184H101.728C101.278 403.184 100.965 403.396 101.027 403.659C101.09 403.922 101.509 404.128 101.953 404.128H112.792C113.242 404.128 113.567 403.915 113.524 403.659C113.48 403.403 113.086 403.184 112.636 403.184Z" fill="white"/>
<path opacity="0.5" d="M106.939 372.118H91.3849C90.8595 372.118 90.5093 372.406 90.6031 372.744C90.7038 372.947 90.8631 373.115 91.0605 373.227C91.2579 373.338 91.4842 373.388 91.7101 373.369H107.171C107.696 373.369 108.065 373.082 108.003 372.744C107.916 372.539 107.765 372.369 107.574 372.256C107.383 372.143 107.16 372.095 106.939 372.118Z" fill="white"/>
<path d="M106.181 368.021H84.5289C83.9973 368.021 83.6471 368.315 83.7534 368.684C83.8581 368.896 84.0233 369.072 84.2282 369.19C84.433 369.308 84.6683 369.363 84.9042 369.347H106.432C106.957 369.347 107.338 369.053 107.27 368.684C107.201 368.315 106.732 368.021 106.181 368.021Z" fill="white"/>
<path d="M113.168 406.099H95.2243C94.7803 406.099 94.4801 406.305 94.5489 406.555C94.6177 406.806 95.0367 407.012 95.4808 407.012H113.337C113.775 407.012 114.1 406.806 114.056 406.555C114.012 406.305 113.612 406.099 113.168 406.099Z" fill="white"/>
<path opacity="0.5" d="M114.995 377.46H119.042L118.841 375.915H114.764L114.995 377.46Z" fill="white"/>
<path opacity="0.5" d="M115.557 381.22H119.535L119.341 379.731H115.332L115.557 381.22Z" fill="white"/>
<path opacity="0.5" d="M116.101 384.855H120.01L119.823 383.416H115.889L116.101 384.855Z" fill="white"/>
<path opacity="0.5" d="M116.633 388.364H120.473L120.285 386.969H116.42L116.633 388.364Z" fill="white"/>
<path opacity="0.5" d="M117.14 391.748H120.917L120.736 390.41H116.939L117.14 391.748Z" fill="white"/>
<path opacity="0.5" d="M117.634 395.026H121.342L121.174 393.731H117.434L117.634 395.026Z" fill="white"/>
<path opacity="0.5" d="M118.11 398.204H121.762L121.599 396.94H117.922L118.11 398.204Z" fill="white"/>
<path opacity="0.5" d="M118.566 401.269H122.162L122.006 400.056H118.385L118.566 401.269Z" fill="white"/>
<path opacity="0.5" d="M119.015 404.247H122.555L122.399 403.065H118.84L119.015 404.247Z" fill="white"/>
<path opacity="0.5" d="M114.406 373.563H118.527L118.321 371.955H114.168L114.406 373.563Z" fill="white"/>
<path opacity="0.5" d="M113.799 369.516H117.996L117.783 367.852H113.549L113.799 369.516Z" fill="white"/>
<path opacity="0.5" d="M119.446 407.125H122.93L122.78 405.98H119.277L119.446 407.125Z" fill="white"/>
<path d="M140.781 400.663C140.781 400.394 141.131 400.175 141.588 400.175H201.517C201.974 400.175 202.286 400.394 202.205 400.663C202.107 400.827 201.964 400.959 201.794 401.046C201.623 401.132 201.432 401.168 201.242 401.151H141.619C141.163 401.151 140.788 400.932 140.781 400.663Z" fill="white"/>
<path d="M202.123 398.079H168.938C168.475 398.079 168.125 397.854 168.156 397.572C168.187 397.291 168.588 397.072 169.057 397.072H202.424C202.886 397.072 203.199 397.297 203.118 397.572C203.019 397.744 202.873 397.884 202.696 397.974C202.519 398.064 202.32 398.1 202.123 398.079Z" fill="white"/>
<path opacity="0.5" d="M161.064 398.079H150.744C150.281 398.079 149.906 397.854 149.912 397.572C149.918 397.291 150.294 397.072 150.763 397.072H161.145C161.608 397.072 161.971 397.297 161.946 397.572C161.92 397.848 161.526 398.079 161.064 398.079Z" fill="white"/>
<path d="M182.604 394.901H135.797C135.328 394.901 134.934 394.67 134.915 394.382C134.896 394.094 135.265 393.863 135.74 393.863H182.798C183.267 393.863 183.611 394.094 183.555 394.382C183.498 394.67 183.079 394.901 182.604 394.901Z" fill="white"/>
<path opacity="0.5" d="M126.013 393.863H129.347C129.816 393.863 130.223 394.094 130.248 394.382C130.273 394.67 129.91 394.901 129.441 394.901H126.12C125.651 394.901 125.244 394.67 125.213 394.382C125.182 394.094 125.538 393.863 126.013 393.863Z" fill="white"/>
<path d="M189.377 391.079C189.315 391.379 188.877 391.617 188.395 391.617H144.29C143.808 391.617 143.42 391.379 143.414 391.079C143.408 390.779 143.796 390.541 144.271 390.541H188.62C189.102 390.541 189.44 390.785 189.377 391.079Z" fill="white"/>
<path d="M125.657 390.541H138.166C138.648 390.541 139.048 390.785 139.061 391.079C139.073 391.373 138.691 391.617 138.216 391.617H125.77C125.295 391.617 124.882 391.379 124.844 391.079C124.807 390.779 125.176 390.541 125.657 390.541Z" fill="white"/>
<path d="M125.288 387.113H173.409C173.897 387.113 174.259 387.363 174.216 387.67C174.172 387.976 173.746 388.226 173.259 388.226H125.407C124.925 388.226 124.5 387.976 124.469 387.67C124.437 387.363 124.8 387.113 125.288 387.113Z" fill="white"/>
<path d="M156.53 384.723C156.036 384.723 155.648 384.467 155.66 384.148C155.673 383.829 156.086 383.572 156.586 383.572H181.972C182.473 383.572 182.829 383.829 182.773 384.148C182.717 384.467 182.273 384.723 181.779 384.723H156.53Z" fill="white"/>
<path d="M124.913 383.56H146.884C147.385 383.56 147.785 383.816 147.785 384.135C147.785 384.454 147.385 384.723 146.884 384.723H125.038C124.538 384.723 124.112 384.467 124.075 384.148C124.037 383.829 124.413 383.56 124.913 383.56Z" fill="white"/>
<path d="M207.002 381.076H146.517C146.016 381.076 145.604 380.807 145.604 380.451C145.604 380.094 146.01 379.825 146.517 379.825H207.34C207.847 379.825 208.178 380.094 208.084 380.451C207.985 380.65 207.83 380.815 207.637 380.926C207.445 381.038 207.224 381.09 207.002 381.076Z" fill="white"/>
<path d="M208.051 377.304H154.89C154.377 377.304 153.97 377.029 153.983 376.679C153.995 376.328 154.421 376.053 154.94 376.053H208.464C208.977 376.053 209.315 376.328 209.215 376.679C209.108 376.89 208.94 377.063 208.732 377.175C208.523 377.287 208.286 377.332 208.051 377.304Z" fill="white"/>
<path opacity="0.5" d="M209.202 373.401H198.045C197.519 373.401 197.163 373.113 197.244 372.775C197.341 372.571 197.499 372.401 197.696 372.289C197.893 372.177 198.119 372.129 198.345 372.149H209.552C210.078 372.149 210.422 372.437 210.315 372.775C210.21 372.975 210.049 373.141 209.851 373.252C209.654 373.363 209.428 373.415 209.202 373.401Z" fill="white"/>
<path d="M190.259 373.401H149.337C148.818 373.401 148.392 373.113 148.399 372.775C148.405 372.437 148.824 372.149 149.349 372.149H190.54C191.065 372.149 191.434 372.437 191.359 372.775C191.266 372.982 191.109 373.154 190.911 373.267C190.713 373.379 190.485 373.426 190.259 373.401Z" fill="white"/>
<path d="M127.002 403.184H164.797C165.248 403.184 165.592 403.396 165.56 403.659C165.529 403.922 165.154 404.128 164.704 404.128H127.109C126.659 404.128 126.271 403.915 126.246 403.659C126.221 403.403 126.552 403.184 127.002 403.184Z" fill="white"/>
<path d="M127.314 406.099H185.379C185.817 406.099 186.136 406.305 186.08 406.555C186.024 406.806 185.63 407.012 185.186 407.012H127.414C126.97 407.012 126.589 406.806 126.564 406.555C126.539 406.305 126.87 406.099 127.314 406.099Z" fill="white"/>
<path d="M188.226 369.347H158.643C158.112 369.347 157.699 369.053 157.718 368.684C157.736 368.315 158.18 368.021 158.718 368.021H188.476C189.014 368.021 189.389 368.315 189.321 368.684C189.232 368.896 189.079 369.075 188.882 369.195C188.685 369.314 188.455 369.367 188.226 369.347Z" fill="white"/>
<path opacity="0.5" d="M150.287 369.347H123.393C122.861 369.347 122.399 369.053 122.355 368.684C122.311 368.315 122.711 368.021 123.249 368.021H150.299C150.831 368.021 151.262 368.315 151.256 368.684C151.25 369.053 150.818 369.347 150.287 369.347Z" fill="white"/>
<path opacity="0.5" d="M173.178 403.184C173.628 403.184 173.966 403.396 173.928 403.659C173.891 403.922 173.497 404.128 173.046 404.128H170.126C169.682 404.128 169.344 403.915 169.375 403.659C169.406 403.403 169.794 403.184 170.244 403.184H173.178Z" fill="white"/>
<path opacity="0.5" d="M137.335 400.663C137.335 400.932 136.991 401.151 136.535 401.151H132.557C132.101 401.151 131.713 400.932 131.694 400.663C131.675 400.394 132.026 400.175 132.482 400.175H136.479C136.941 400.175 137.323 400.394 137.335 400.663Z" fill="white"/>
<path opacity="0.5" d="M185.337 387.67C185.281 387.976 184.843 388.226 184.356 388.226H179.702C179.214 388.226 178.864 387.976 178.908 387.67C178.952 387.363 179.396 387.113 179.884 387.113H184.562C185.05 387.113 185.4 387.363 185.337 387.67Z" fill="white"/>
<path opacity="0.5" d="M199.853 390.541C200.334 390.541 200.659 390.785 200.578 391.079C200.482 391.258 200.335 391.404 200.156 391.5C199.977 391.596 199.773 391.636 199.571 391.617H195.862C195.381 391.617 195.056 391.379 195.124 391.079C195.219 390.9 195.365 390.753 195.543 390.658C195.721 390.562 195.924 390.521 196.125 390.541H199.853Z" fill="white"/>
<path opacity="0.5" d="M139.193 381.076C138.692 381.076 138.273 380.807 138.255 380.451C138.236 380.094 138.642 379.825 139.149 379.825H143.095C143.602 379.825 144.015 380.094 144.021 380.451C144.027 380.807 143.621 381.076 143.12 381.076H139.193Z" fill="white"/>
<path d="M85.4674 361.815C85.5552 362.024 85.5882 362.252 85.5631 362.478C85.5381 362.703 85.4559 362.919 85.3244 363.104C85.1928 363.288 85.0163 363.437 84.8115 363.534C84.6067 363.631 84.3804 363.675 84.154 363.661C83.6076 363.629 83.0826 363.437 82.6444 363.109C82.2062 362.78 81.8742 362.331 81.6898 361.815C81.5974 361.605 81.5603 361.376 81.5821 361.147C81.604 360.919 81.684 360.701 81.8146 360.512C81.9451 360.324 82.1218 360.172 82.3278 360.072C82.5337 359.971 82.762 359.925 82.9907 359.938C83.5441 359.967 84.076 360.161 84.5177 360.496C84.9593 360.83 85.2902 361.29 85.4674 361.815Z" fill="white"/>
<path d="M90.5336 361.846C90.6122 362.061 90.6361 362.291 90.603 362.517C90.57 362.743 90.4811 362.957 90.3444 363.139C90.2077 363.322 90.0276 363.468 89.8203 363.563C89.6131 363.658 89.3853 363.701 89.1576 363.686C88.6181 363.659 88.0995 363.468 87.6706 363.14C87.2416 362.811 86.9227 362.36 86.756 361.846C86.6732 361.631 86.6456 361.399 86.6757 361.17C86.7057 360.942 86.7924 360.724 86.9279 360.538C87.0634 360.351 87.2434 360.201 87.4515 360.102C87.6596 360.003 87.8892 359.957 88.1194 359.97C88.6662 359.995 89.1919 360.189 89.6241 360.525C90.0564 360.861 90.374 361.323 90.5336 361.846Z" fill="white"/>
<path d="M95.6807 361.815C95.7508 362.036 95.7656 362.271 95.7239 362.5C95.6822 362.728 95.5853 362.942 95.4415 363.124C95.2977 363.307 95.1115 363.451 94.8991 363.544C94.6868 363.638 94.4548 363.678 94.2234 363.661C93.6888 363.636 93.1753 363.445 92.7547 363.114C92.3341 362.783 92.0276 362.329 91.878 361.815C91.8044 361.595 91.7857 361.36 91.8235 361.131C91.8613 360.901 91.9546 360.685 92.0951 360.5C92.2357 360.315 92.4193 360.167 92.63 360.069C92.8407 359.971 93.0721 359.926 93.304 359.938C93.8491 359.955 94.3746 360.146 94.8026 360.484C95.2307 360.822 95.5385 361.289 95.6807 361.815Z" fill="white"/>
<path d="M91.2785 437.959H78.0881C77.2587 437.959 76.4633 438.288 75.8769 438.875C75.2904 439.461 74.9609 440.257 74.9609 441.086V447.511C74.9609 448.341 75.2904 449.136 75.8769 449.723C76.4633 450.309 77.2587 450.639 78.0881 450.639H81.5342L84.1485 456.563L87.8323 450.639H91.2785C92.1078 450.639 92.9032 450.309 93.4897 449.723C94.0762 449.136 94.4056 448.341 94.4056 447.511V441.061C94.399 440.236 94.0666 439.447 93.4809 438.866C92.8952 438.285 92.1035 437.959 91.2785 437.959Z" fill="white" stroke="#263238" stroke-linecap="round" stroke-linejoin="round"/>
<path d="M82.8477 441.649C82.8477 441.484 82.9135 441.324 83.0308 441.207C83.1481 441.09 83.3072 441.024 83.4731 441.024C83.6317 441.024 83.7844 441.083 83.9006 441.191C84.0167 441.299 84.0874 441.447 84.0985 441.606C84.0985 441.772 84.0326 441.931 83.9153 442.048C83.798 442.165 83.639 442.231 83.4731 442.231C83.3145 442.232 83.1617 442.172 83.0456 442.064C82.9295 441.956 82.8588 441.808 82.8477 441.649ZM82.9853 442.957H83.9922V447.248H82.9665L82.9853 442.957Z" fill="#263238"/>
<path d="M86.4125 442.719V442.976H87.5946V443.783H86.45V447.236H85.4681V443.783H84.7363V442.976H85.4681V442.7C85.4521 442.497 85.4811 442.293 85.5532 442.103C85.6253 441.912 85.7386 441.74 85.885 441.598C86.0314 441.456 86.2073 441.349 86.4002 441.283C86.593 441.217 86.7979 441.195 87.0004 441.218C87.3211 441.202 87.6392 441.282 87.9135 441.449L87.6321 442.206C87.4682 442.094 87.2743 442.033 87.0754 442.031C86.6314 442.031 86.4125 442.275 86.4125 442.719Z" fill="#263238"/>
<path d="M131.443 438.859H118.246C117.417 438.859 116.622 439.189 116.035 439.775C115.449 440.362 115.119 441.158 115.119 441.987V448.405C115.119 449.235 115.449 450.031 116.035 450.617C116.622 451.204 117.417 451.533 118.246 451.533H121.699L124.307 457.457L127.991 451.533H131.443C132.272 451.533 133.068 451.204 133.654 450.617C134.241 450.031 134.57 449.235 134.57 448.405V441.962C134.564 441.137 134.231 440.348 133.645 439.767C133.06 439.185 132.268 438.859 131.443 438.859Z" fill="white" stroke="#263238" stroke-linecap="round" stroke-linejoin="round"/>
<path d="M121.023 446.31H117.652C117.718 446.623 117.897 446.901 118.154 447.091C118.411 447.281 118.728 447.37 119.047 447.342C119.263 447.35 119.478 447.312 119.678 447.231C119.879 447.151 120.06 447.028 120.21 446.873L120.748 447.499C120.423 447.821 120.013 448.045 119.566 448.143C119.118 448.241 118.652 448.209 118.222 448.052C117.792 447.894 117.416 447.617 117.138 447.253C116.859 446.889 116.691 446.454 116.651 445.997C116.643 445.705 116.694 445.414 116.802 445.142C116.911 444.871 117.074 444.624 117.281 444.418C117.489 444.212 117.737 444.051 118.009 443.945C118.282 443.839 118.573 443.79 118.865 443.801C119.158 443.789 119.45 443.839 119.722 443.947C119.994 444.055 120.24 444.219 120.445 444.429C120.649 444.638 120.808 444.888 120.91 445.163C121.011 445.437 121.054 445.73 121.036 446.022C121.036 446.091 121.029 446.216 121.023 446.31ZM117.646 445.647H120.079C120.049 445.35 119.906 445.076 119.681 444.88C119.455 444.685 119.163 444.583 118.865 444.596C118.567 444.585 118.275 444.687 118.049 444.882C117.823 445.077 117.679 445.35 117.646 445.647Z" fill="#263238"/>
<path d="M121.999 442.175H122.993V448.137H121.986L121.999 442.175Z" fill="#263238"/>
<path d="M123.832 447.711L124.214 446.948C124.664 447.224 125.181 447.371 125.708 447.373C126.334 447.373 126.609 447.198 126.609 446.898C126.609 446.078 123.957 446.848 123.957 445.14C123.957 444.327 124.689 443.795 125.833 443.795C126.391 443.786 126.943 443.913 127.441 444.164L127.053 444.927C126.674 444.707 126.241 444.597 125.802 444.608C125.177 444.608 124.902 444.809 124.902 445.09C124.902 445.96 127.553 445.184 127.553 446.867C127.553 447.667 126.815 448.193 125.608 448.193C124.983 448.197 124.369 448.03 123.832 447.711Z" fill="#263238"/>
<path d="M132.474 446.31H129.103C129.169 446.623 129.348 446.901 129.605 447.091C129.862 447.281 130.179 447.37 130.498 447.342C130.714 447.35 130.929 447.312 131.13 447.231C131.33 447.151 131.511 447.028 131.661 446.873L132.199 447.499C131.874 447.821 131.464 448.045 131.017 448.143C130.569 448.241 130.103 448.209 129.673 448.052C129.243 447.894 128.867 447.617 128.589 447.253C128.31 446.889 128.142 446.454 128.103 445.997C128.094 445.705 128.145 445.414 128.254 445.142C128.362 444.871 128.525 444.624 128.733 444.418C128.94 444.212 129.188 444.051 129.461 443.945C129.733 443.839 130.024 443.79 130.317 443.801C130.609 443.789 130.901 443.839 131.173 443.947C131.445 444.055 131.691 444.219 131.896 444.429C132.101 444.638 132.259 444.888 132.361 445.163C132.462 445.437 132.505 445.73 132.487 446.022C132.487 446.091 132.481 446.216 132.474 446.31ZM129.097 445.647H131.53C131.5 445.35 131.357 445.076 131.132 444.88C130.906 444.685 130.615 444.583 130.317 444.596C130.018 444.585 129.727 444.687 129.5 444.882C129.274 445.077 129.13 445.35 129.097 445.647Z" fill="#263238"/>
<path d="M170.383 438.478H157.186C156.357 438.478 155.561 438.807 154.975 439.394C154.388 439.981 154.059 440.776 154.059 441.606V448.03C154.059 448.86 154.388 449.655 154.975 450.242C155.561 450.829 156.357 451.158 157.186 451.158H160.638L163.246 457.082L166.93 451.158H170.383C171.212 451.158 172.007 450.829 172.594 450.242C173.18 449.655 173.51 448.86 173.51 448.03V441.581C173.503 440.755 173.171 439.966 172.585 439.385C171.999 438.804 171.208 438.478 170.383 438.478Z" fill="white" stroke="#263238" stroke-linecap="round" stroke-linejoin="round"/>
<path d="M160.214 443.238V443.526H161.396V444.333H160.245V447.786H159.269V444.333H158.562V443.526H159.269V443.251C159.253 443.048 159.282 442.844 159.354 442.653C159.426 442.462 159.54 442.29 159.686 442.148C159.833 442.007 160.008 441.899 160.201 441.834C160.394 441.768 160.599 441.746 160.802 441.768C161.12 441.753 161.436 441.833 161.708 442L161.427 442.757C161.266 442.641 161.074 442.578 160.877 442.575C160.433 442.544 160.214 442.782 160.214 443.238Z" fill="#263238"/>
<path d="M161.652 445.609C161.635 445.153 161.754 444.702 161.995 444.314C162.236 443.926 162.587 443.619 163.004 443.432C163.421 443.245 163.884 443.188 164.334 443.266C164.784 443.345 165.2 443.557 165.529 443.874C165.857 444.191 166.084 444.599 166.179 445.046C166.273 445.492 166.233 445.957 166.061 446.381C165.89 446.804 165.596 447.167 165.217 447.422C164.838 447.676 164.392 447.812 163.935 447.811C163.637 447.829 163.34 447.784 163.06 447.681C162.781 447.577 162.526 447.417 162.311 447.21C162.097 447.003 161.928 446.754 161.814 446.479C161.701 446.203 161.646 445.907 161.652 445.609ZM165.211 445.609C165.194 445.366 165.106 445.134 164.959 444.94C164.811 444.746 164.611 444.599 164.381 444.518C164.152 444.436 163.903 444.424 163.667 444.481C163.43 444.539 163.215 444.665 163.049 444.843C162.883 445.021 162.772 445.243 162.73 445.483C162.689 445.723 162.718 445.97 162.815 446.194C162.912 446.417 163.072 446.608 163.275 446.742C163.478 446.876 163.716 446.947 163.96 446.948C164.132 446.948 164.302 446.913 164.46 446.845C164.617 446.777 164.759 446.677 164.877 446.551C164.994 446.426 165.084 446.277 165.142 446.115C165.199 445.953 165.223 445.781 165.211 445.609Z" fill="#263238"/>
<path d="M169.663 443.414V444.371C169.586 444.365 169.509 444.365 169.432 444.371C169.257 444.357 169.082 444.382 168.919 444.445C168.756 444.508 168.609 444.607 168.489 444.734C168.369 444.861 168.279 445.014 168.225 445.18C168.172 445.347 168.157 445.524 168.181 445.697V447.78H167.174V443.464H168.131V444.089C168.306 443.853 168.539 443.667 168.808 443.549C169.076 443.43 169.371 443.384 169.663 443.414Z" fill="#263238"/>
<path d="M208.759 437.959H195.543C194.714 437.959 193.918 438.288 193.332 438.875C192.745 439.461 192.416 440.257 192.416 441.086V447.511C192.416 448.341 192.745 449.136 193.332 449.723C193.918 450.309 194.714 450.639 195.543 450.639H198.996L201.604 456.563L205.287 450.639H208.74C209.569 450.639 210.365 450.309 210.951 449.723C211.537 449.136 211.867 448.341 211.867 447.511V441.061C211.86 440.239 211.531 439.453 210.949 438.872C210.367 438.292 209.58 437.964 208.759 437.959Z" fill="white" stroke="#263238" stroke-linecap="round" stroke-linejoin="round"/>
<path d="M200.447 442.732H204.15V443.526H200.447V442.732ZM200.447 444.677H204.15V445.484H200.447V444.677Z" fill="#263238"/>
<path d="M111.392 430.533H98.1955C97.3661 430.533 96.5707 430.863 95.9843 431.449C95.3978 432.036 95.0684 432.831 95.0684 433.661V440.079C95.0684 440.909 95.3978 441.704 95.9843 442.291C96.5707 442.878 97.3661 443.207 98.1955 443.207H101.648L104.256 449.131L107.94 443.207H111.392C112.222 443.207 113.017 442.878 113.603 442.291C114.19 441.704 114.519 440.909 114.519 440.079V433.636C114.513 432.811 114.18 432.022 113.595 431.44C113.009 430.859 112.217 430.533 111.392 430.533Z" fill="white" stroke="#263238" stroke-linecap="round" stroke-linejoin="round"/>
<path d="M101.691 433.198H103.605V434.005H102.692V439.917H103.605V440.724H101.691V433.198Z" fill="#263238"/>
<path d="M106.107 440.724V439.917H107.014V434.005H106.107V433.198H107.984V440.705L106.107 440.724Z" fill="#263238"/>
<path d="M150.619 429.876H137.422C136.593 429.876 135.798 430.206 135.211 430.792C134.625 431.379 134.295 432.175 134.295 433.004V439.397C134.295 440.227 134.625 441.023 135.211 441.609C135.798 442.196 136.593 442.525 137.422 442.525H140.875L143.489 448.449L147.173 442.525H150.619C151.448 442.525 152.244 442.196 152.83 441.609C153.417 441.023 153.746 440.227 153.746 439.397V432.979C153.74 432.154 153.407 431.365 152.821 430.784C152.236 430.202 151.444 429.876 150.619 429.876Z" fill="white" stroke="#263238" stroke-linecap="round" stroke-linejoin="round"/>
<path d="M141.337 436.276C141.656 436.382 141.812 436.601 141.812 437.095V438.628C141.798 438.711 141.803 438.795 141.827 438.876C141.852 438.956 141.894 439.029 141.952 439.09C142.01 439.151 142.081 439.197 142.16 439.226C142.239 439.254 142.323 439.264 142.406 439.254H142.575V440.061H142.169C141.988 440.087 141.803 440.073 141.629 440.017C141.454 439.961 141.295 439.866 141.164 439.739C141.032 439.612 140.931 439.457 140.869 439.285C140.807 439.113 140.785 438.929 140.805 438.747V437.095C140.805 436.826 140.668 436.707 140.442 436.707H140.18V435.888H140.442C140.668 435.888 140.805 435.769 140.805 435.5V433.842C140.785 433.661 140.806 433.477 140.869 433.305C140.931 433.133 141.032 432.978 141.164 432.851C141.296 432.725 141.455 432.631 141.629 432.576C141.803 432.521 141.988 432.507 142.169 432.535H142.575V433.342H142.381C142.298 433.331 142.213 433.339 142.133 433.367C142.054 433.395 141.982 433.441 141.924 433.503C141.866 433.564 141.823 433.638 141.799 433.719C141.776 433.799 141.771 433.885 141.787 433.968V435.494C141.812 435.957 141.656 436.176 141.337 436.276Z" fill="#263238"/>
<path d="M147.467 435.869V436.689H147.191C146.973 436.689 146.835 436.808 146.835 437.077V438.728C146.854 438.91 146.831 439.094 146.768 439.266C146.705 439.438 146.604 439.594 146.472 439.72C146.34 439.847 146.18 439.942 146.006 439.998C145.831 440.053 145.646 440.069 145.465 440.042H145.059V439.235H145.228C145.313 439.249 145.4 439.242 145.483 439.216C145.565 439.189 145.64 439.144 145.701 439.083C145.762 439.022 145.808 438.947 145.834 438.864C145.861 438.782 145.867 438.695 145.853 438.609V437.077C145.853 436.582 145.997 436.363 146.316 436.257C145.997 436.157 145.853 435.938 145.853 435.438V433.911C145.869 433.826 145.863 433.738 145.837 433.655C145.811 433.572 145.766 433.496 145.704 433.435C145.643 433.373 145.567 433.327 145.484 433.301C145.401 433.276 145.313 433.27 145.228 433.286H145.059V432.516H145.465C145.646 432.488 145.831 432.502 146.005 432.557C146.18 432.612 146.339 432.706 146.472 432.833C146.604 432.959 146.706 433.114 146.769 433.286C146.832 433.458 146.854 433.642 146.835 433.824V435.481C146.835 435.75 146.973 435.869 147.191 435.869H147.467Z" fill="#263238"/>
<path d="M189.433 428.575H176.237C175.407 428.575 174.612 428.905 174.025 429.491C173.439 430.078 173.109 430.873 173.109 431.703V438.121C173.109 438.951 173.439 439.746 174.025 440.333C174.612 440.92 175.407 441.249 176.237 441.249H179.683L182.297 447.173L185.981 441.249H189.433C190.263 441.249 191.058 440.92 191.644 440.333C192.231 439.746 192.56 438.951 192.56 438.121V431.678C192.554 430.853 192.221 430.064 191.636 429.482C191.05 428.901 190.258 428.575 189.433 428.575Z" fill="white" stroke="#263238" stroke-linecap="round" stroke-linejoin="round"/>
<path d="M182.31 433.323C182.301 433.231 182.311 433.138 182.34 433.05C182.369 432.963 182.416 432.882 182.478 432.813C182.541 432.745 182.616 432.69 182.701 432.653C182.785 432.615 182.877 432.596 182.969 432.596C183.062 432.596 183.153 432.615 183.238 432.653C183.322 432.69 183.398 432.745 183.46 432.813C183.522 432.882 183.57 432.963 183.599 433.05C183.628 433.138 183.638 433.231 183.629 433.323C183.638 433.415 183.628 433.508 183.599 433.596C183.57 433.684 183.522 433.765 183.46 433.833C183.398 433.902 183.322 433.956 183.238 433.994C183.153 434.031 183.062 434.051 182.969 434.051C182.877 434.051 182.785 434.031 182.701 433.994C182.616 433.956 182.541 433.902 182.478 433.833C182.416 433.765 182.369 433.684 182.34 433.596C182.311 433.508 182.301 433.415 182.31 433.323ZM183.629 436.389C183.612 436.628 183.548 436.862 183.442 437.077L183.029 438.215H182.403L182.729 436.964C182.613 436.915 182.514 436.832 182.446 436.726C182.378 436.62 182.343 436.496 182.347 436.37C182.347 436.196 182.416 436.03 182.538 435.908C182.661 435.785 182.827 435.716 183.001 435.716C183.174 435.716 183.34 435.785 183.463 435.908C183.585 436.03 183.654 436.196 183.654 436.37L183.629 436.389Z" fill="#263238"/>
<path d="M137.848 540.826H151.038C151.868 540.826 152.663 540.497 153.249 539.91C153.836 539.324 154.165 538.528 154.165 537.698V531.299C154.157 530.475 153.824 529.687 153.238 529.107C152.653 528.528 151.862 528.202 151.038 528.202H147.592L146.585 522.278L141.294 528.202H137.848C137.024 528.202 136.233 528.528 135.648 529.107C135.062 529.687 134.729 530.475 134.721 531.299V537.723C134.727 538.549 135.06 539.338 135.645 539.919C136.231 540.5 137.023 540.826 137.848 540.826Z" fill="white" stroke="#263238" stroke-linecap="round" stroke-linejoin="round"/>
<path d="M142.482 533.194L139.711 534.233L142.482 535.271V536.109L138.779 534.671V533.795L142.482 532.356V533.194Z" fill="#263238"/>
<path d="M145.41 530.273H146.304L143.633 537.849H142.758L145.41 530.273Z" fill="#263238"/>
<path d="M150.199 533.795V534.664L146.496 536.103V535.265L149.261 534.233L146.49 533.201V532.356L150.199 533.795Z" fill="#263238"/>
<path d="M53.9651 494.065H67.1554C67.9848 494.065 68.7802 493.736 69.3667 493.149C69.9531 492.563 70.2826 491.767 70.2826 490.938V484.544C70.2826 483.715 69.9531 482.919 69.3667 482.333C68.7802 481.746 67.9848 481.417 67.1554 481.417H63.7093L64.4598 475.492L57.4112 481.417H53.9651C53.1357 481.417 52.3403 481.746 51.7538 482.333C51.1674 482.919 50.8379 483.715 50.8379 484.544V490.963C50.8445 491.788 51.1769 492.577 51.7626 493.158C52.3484 493.739 53.14 494.065 53.9651 494.065Z" fill="white" stroke="#263238" stroke-linecap="round" stroke-linejoin="round"/>
<path d="M57.873 489.993C57.873 489.827 57.9389 489.668 58.0562 489.551C58.1735 489.433 58.3326 489.367 58.4985 489.367C58.6644 489.367 58.8234 489.433 58.9407 489.551C59.058 489.668 59.1239 489.827 59.1239 489.993C59.1239 490.159 59.058 490.318 58.9407 490.435C58.8234 490.553 58.6644 490.618 58.4985 490.618C58.3326 490.618 58.1735 490.553 58.0562 490.435C57.9389 490.318 57.873 490.159 57.873 489.993ZM57.9481 484.938H59.1364L58.9363 488.692H58.1232L57.9481 484.938Z" fill="#263238"/>
<path d="M60.1562 486.377H63.8588V487.184H60.1562V486.377ZM60.1562 488.323H63.8588V489.13H60.1562V488.323Z" fill="#263238"/>
<defs>
<filter id="filter0_d_90_49" x="-358.429" y="-51.8331" width="1265.14" height="1177.4" filterUnits="userSpaceOnUse" color-interpolation-filters="sRGB">
<feFlood flood-opacity="0" result="BackgroundImageFix"/>
<feColorMatrix in="SourceAlpha" type="matrix" values="0 0 0 0 0 0 0 0 0 0 0 0 0 0 0 0 0 0 127 0" result="hardAlpha"/>
<feMorphology radius="91" operator="erode" in="SourceAlpha" result="effect1_dropShadow_90_49"/>
<feOffset dx="130" dy="70"/>
<feGaussianBlur stdDeviation="121.5"/>
<feColorMatrix type="matrix" values="0 0 0 0 0 0 0 0 0 0 0 0 0 0 0 0 0 0 0.05 0"/>
<feBlend mode="normal" in2="BackgroundImageFix" result="effect1_dropShadow_90_49"/>
<feBlend mode="normal" in="SourceGraphic" in2="effect1_dropShadow_90_49" result="shape"/>
</filter>
<filter id="filter1_bd_90_49" x="-304.22" y="79.9329" width="896.72" height="833.868" filterUnits="userSpaceOnUse" color-interpolation-filters="sRGB">
<feFlood flood-opacity="0" result="BackgroundImageFix"/>
<feGaussianBlur in="BackgroundImageFix" stdDeviation="30"/>
<feComposite in2="SourceAlpha" operator="in" result="effect1_backgroundBlur_90_49"/>
<feColorMatrix in="SourceAlpha" type="matrix" values="0 0 0 0 0 0 0 0 0 0 0 0 0 0 0 0 0 0 127 0" result="hardAlpha"/>
<feOffset dy="30"/>
<feGaussianBlur stdDeviation="50"/>
<feColorMatrix type="matrix" values="0 0 0 0 0 0 0 0 0 0.507158 0 0 0 0 0.666667 0 0 0 0.06 0"/>
<feBlend mode="normal" in2="effect1_backgroundBlur_90_49" result="effect2_dropShadow_90_49"/>
<feBlend mode="normal" in="SourceGraphic" in2="effect2_dropShadow_90_49" result="shape"/>
</filter>
<filter id="filter2_bd_90_49" x="-211.883" y="164.661" width="712.047" height="664.412" filterUnits="userSpaceOnUse" color-interpolation-filters="sRGB">
<feFlood flood-opacity="0" result="BackgroundImageFix"/>
<feGaussianBlur in="BackgroundImageFix" stdDeviation="30"/>
<feComposite in2="SourceAlpha" operator="in" result="effect1_backgroundBlur_90_49"/>
<feColorMatrix in="SourceAlpha" type="matrix" values="0 0 0 0 0 0 0 0 0 0 0 0 0 0 0 0 0 0 127 0" result="hardAlpha"/>
<feOffset dy="30"/>
<feGaussianBlur stdDeviation="50"/>
<feColorMatrix type="matrix" values="0 0 0 0 0 0 0 0 0 0.507158 0 0 0 0 0.666667 0 0 0 0.06 0"/>
<feBlend mode="normal" in2="effect1_backgroundBlur_90_49" result="effect2_dropShadow_90_49"/>
<feBlend mode="normal" in="SourceGraphic" in2="effect2_dropShadow_90_49" result="shape"/>
</filter>
<filter id="filter3_bd_90_49" x="-132.838" y="236.011" width="553.956" height="521.712" filterUnits="userSpaceOnUse" color-interpolation-filters="sRGB">
<feFlood flood-opacity="0" result="BackgroundImageFix"/>
<feGaussianBlur in="BackgroundImageFix" stdDeviation="30"/>
<feComposite in2="SourceAlpha" operator="in" result="effect1_backgroundBlur_90_49"/>
<feColorMatrix in="SourceAlpha" type="matrix" values="0 0 0 0 0 0 0 0 0 0 0 0 0 0 0 0 0 0 127 0" result="hardAlpha"/>
<feOffset dy="30"/>
<feGaussianBlur stdDeviation="50"/>
<feColorMatrix type="matrix" values="0 0 0 0 0 0 0 0 0 0.507158 0 0 0 0 0.666667 0 0 0 0.06 0"/>
<feBlend mode="normal" in2="effect1_backgroundBlur_90_49" result="effect2_dropShadow_90_49"/>
<feBlend mode="normal" in="SourceGraphic" in2="effect2_dropShadow_90_49" result="shape"/>
</filter>
<filter id="filter4_bd_90_49" x="-68.4823" y="294.62" width="425.245" height="404.494" filterUnits="userSpaceOnUse" color-interpolation-filters="sRGB">
<feFlood flood-opacity="0" result="BackgroundImageFix"/>
<feGaussianBlur in="BackgroundImageFix" stdDeviation="30"/>
<feComposite in2="SourceAlpha" operator="in" result="effect1_backgroundBlur_90_49"/>
<feColorMatrix in="SourceAlpha" type="matrix" values="0 0 0 0 0 0 0 0 0 0 0 0 0 0 0 0 0 0 127 0" result="hardAlpha"/>
<feOffset dy="30"/>
<feGaussianBlur stdDeviation="50"/>
<feColorMatrix type="matrix" values="0 0 0 0 0 0 0 0 0 0.507158 0 0 0 0 0.666667 0 0 0 0.06 0"/>
<feBlend mode="normal" in2="effect1_backgroundBlur_90_49" result="effect2_dropShadow_90_49"/>
<feBlend mode="normal" in="SourceGraphic" in2="effect2_dropShadow_90_49" result="shape"/>
</filter>
<linearGradient id="paint0_linear_90_49" x1="501.091" y1="-1144.3" x2="-362.011" y2="-1011.15" gradientUnits="userSpaceOnUse">
<stop stop-color="white"/>
<stop offset="1" stop-color="white" stop-opacity="0"/>
</linearGradient>
<linearGradient id="paint1_linear_90_49" x1="679.487" y1="619.331" x2="320.863" y2="983.688" gradientUnits="userSpaceOnUse">
<stop stop-color="white"/>
<stop offset="1" stop-color="white" stop-opacity="0"/>
</linearGradient>
<linearGradient id="paint2_linear_90_49" x1="405.665" y1="-717.242" x2="-226.789" y2="-619.976" gradientUnits="userSpaceOnUse">
<stop stop-color="white"/>
<stop offset="1" stop-color="white" stop-opacity="0"/>
</linearGradient>
<linearGradient id="paint3_linear_90_49" x1="537.588" y1="578.572" x2="274.852" y2="846.338" gradientUnits="userSpaceOnUse">
<stop stop-color="white"/>
<stop offset="1" stop-color="white" stop-opacity="0"/>
</linearGradient>
<linearGradient id="paint4_linear_90_49" x1="325.306" y1="-351.657" x2="-112.771" y2="-284.14" gradientUnits="userSpaceOnUse">
<stop stop-color="white"/>
<stop offset="1" stop-color="white" stop-opacity="0"/>
</linearGradient>
<linearGradient id="paint5_linear_90_49" x1="416.114" y1="544.248" x2="234.101" y2="729.35" gradientUnits="userSpaceOnUse">
<stop stop-color="white"/>
<stop offset="1" stop-color="white" stop-opacity="0"/>
</linearGradient>
<linearGradient id="paint6_linear_90_49" x1="259.297" y1="-54.0116" x2="-19.1783" y2="-11.1416" gradientUnits="userSpaceOnUse">
<stop stop-color="white"/>
<stop offset="1" stop-color="white" stop-opacity="0"/>
</linearGradient>
<linearGradient id="paint7_linear_90_49" x1="317.214" y1="516.054" x2="201.521" y2="633.844" gradientUnits="userSpaceOnUse">
<stop stop-color="white"/>
<stop offset="1" stop-color="white" stop-opacity="0"/>
</linearGradient>
</defs>
</svg>
