<svg width="371" height="322" viewBox="0 0 371 322" fill="none" xmlns="http://www.w3.org/2000/svg">
<path d="M289.927 210.122C284.074 214.988 286.014 243.383 267.916 231.155C249.818 218.926 280.687 211.673 278.922 204.742C276.45 195.037 235.632 206.698 242.48 188.111C249.328 169.523 273.73 197.477 280.145 190.557C286.037 184.2 256.665 161.209 270.362 157.295C284.058 153.381 281.109 186.647 289.927 186.644C296.789 186.641 295.511 154.849 308.127 166.099C320.744 177.35 293.166 188.434 296.776 195.415C299.518 200.722 321.232 187.622 320.254 199.851C319.276 212.078 296.083 205.005 289.927 210.122Z" fill="#38BFF2"/>
<path d="M286.017 195.58C286.017 195.58 299.224 211.59 297.756 255.124" stroke="#1A2E35" stroke-width="1.33333" stroke-miterlimit="10" stroke-linecap="round" stroke-linejoin="round"/>
<path d="M260.285 218.232C262.625 213.523 282.024 210.309 270.923 200.086C259.823 189.865 259.858 211.772 254.916 211.688C247.999 211.571 249.345 182.273 237.938 189.836C226.531 197.396 249.207 209.353 245.575 214.767C242.238 219.74 222.108 203.652 221.656 213.482C221.204 223.313 243.099 216.038 244.5 221.967C245.59 226.58 224.014 230.78 233.585 237.471C243.155 244.162 246.22 223.858 251.488 225.175C255.491 226.175 250.139 242.858 258.204 240.254C266.269 237.651 257.824 223.184 260.285 218.232Z" fill="#38BFF2"/>
<g opacity="0.300003">
<g opacity="0.300003">
<path opacity="0.300003" d="M260.285 218.232C262.625 213.523 282.024 210.309 270.923 200.086C259.823 189.865 259.858 211.772 254.916 211.688C247.999 211.571 249.345 182.273 237.938 189.836C226.531 197.396 249.207 209.353 245.575 214.767C242.238 219.74 222.108 203.652 221.656 213.482C221.204 223.313 243.099 216.038 244.5 221.967C245.59 226.58 224.014 230.78 233.585 237.471C243.155 244.162 246.22 223.858 251.488 225.175C255.491 226.175 250.139 242.858 258.204 240.254C266.269 237.651 257.824 223.184 260.285 218.232Z" fill="black"/>
</g>
</g>
<path d="M250.307 218.438C250.307 218.438 287.893 214.524 291.601 255.123" stroke="#1A2E35" stroke-width="1.33333" stroke-miterlimit="10" stroke-linecap="round" stroke-linejoin="round"/>
<path d="M321.96 214.035C327.813 218.901 325.873 247.296 343.971 235.068C362.07 222.839 331.201 215.587 332.966 208.655C335.437 198.95 376.255 210.611 369.407 192.024C362.559 173.436 338.157 201.39 331.743 194.47C325.851 188.113 355.222 165.122 341.526 161.208C327.829 157.295 330.779 190.561 321.96 190.557C315.099 190.554 316.376 158.762 303.76 170.012C291.144 181.263 318.722 192.347 315.112 199.328C312.369 204.635 290.655 191.535 291.633 203.764C292.611 215.991 315.804 208.918 321.96 214.035Z" fill="#38BFF2"/>
<g opacity="0.300003">
<g opacity="0.300003">
<path opacity="0.300003" d="M321.962 214.035C327.815 218.901 325.875 247.296 343.973 235.068C362.072 222.839 331.203 215.587 332.968 208.655C335.439 198.95 376.257 210.611 369.409 192.024C362.561 173.436 338.159 201.39 331.744 194.47C325.853 188.113 355.224 165.122 341.528 161.208C327.831 157.295 330.78 190.561 321.962 190.557C315.101 190.554 316.378 158.762 303.762 170.012C291.145 181.263 318.724 192.347 315.114 199.328C312.371 204.635 290.657 191.535 291.635 203.764C292.613 215.992 315.806 208.918 321.962 214.035Z" fill="white"/>
</g>
</g>
<path d="M326.125 199.493C326.125 199.493 309.005 222.351 305.092 260.505" stroke="#1A2E35" stroke-width="1.33333" stroke-miterlimit="10" stroke-linecap="round" stroke-linejoin="round"/>
<path d="M313.867 320.188H287.179C282.07 320.188 277.811 316.276 277.378 311.185L273.182 261.88C272.694 256.14 277.222 251.21 282.983 251.21H318.062C323.823 251.21 328.351 256.14 327.863 261.88L323.666 311.185C323.234 316.276 318.976 320.188 313.867 320.188Z" fill="#38BFF2"/>
<path d="M313.867 320.188H287.179C282.07 320.188 277.811 316.276 277.378 311.185L273.182 261.88C272.694 256.14 277.222 251.21 282.983 251.21H318.062C323.823 251.21 328.351 256.14 327.863 261.88L323.666 311.185C323.234 316.276 318.976 320.188 313.867 320.188Z" stroke="#1A2E35" stroke-width="1.33333" stroke-miterlimit="10" stroke-linecap="round" stroke-linejoin="round"/>
<path d="M114.034 249.373C122.952 249.373 148.718 243.552 148.718 243.552H79.3494C79.3494 243.552 105.116 249.373 114.034 249.373Z" fill="#1A2E35"/>
<path d="M114.034 249.373C122.952 249.373 148.718 243.552 148.718 243.552H79.3494C79.3494 243.552 105.116 249.373 114.034 249.373Z" stroke="#1A2E35" stroke-width="1.33333" stroke-miterlimit="10" stroke-linecap="round" stroke-linejoin="round"/>
<path d="M106.085 257.358H121.981V246.462H106.085V257.358Z" fill="#868686" stroke="#1A2E35" stroke-width="1.33333" stroke-miterlimit="10" stroke-linecap="round" stroke-linejoin="round"/>
<path d="M103.734 304.21H124.333V257.358H103.734V304.21Z" fill="#9A9A9A" stroke="#1A2E35" stroke-width="1.33333" stroke-miterlimit="10" stroke-linecap="round" stroke-linejoin="round"/>
<path d="M75.3446 229.656H88.731C87.2438 220.433 86.1463 211.034 85.4695 201.717H72.0822C72.759 211.034 73.8575 220.433 75.3446 229.656Z" fill="#868686"/>
<path d="M75.3446 229.656H88.731C87.2438 220.433 86.1463 211.034 85.4695 201.717H72.0822C72.759 211.034 73.8575 220.433 75.3446 229.656Z" stroke="#1A2E35" stroke-width="1.33333" stroke-miterlimit="10" stroke-linecap="round" stroke-linejoin="round"/>
<path d="M55.0116 119.203H112.717C119.5 119.203 123.938 124.93 122.627 131.68C118.932 152.455 116.749 172.992 116.029 194.089C115.92 200.202 111.268 204.924 105.151 204.924H56.5741C50.4573 204.924 44.9505 200.202 44.1654 194.089C41.8254 173.217 40.9802 152.682 41.6339 131.68C41.9549 124.93 48.2275 119.203 55.0116 119.203Z" fill="#868686"/>
<path d="M55.0116 119.203H112.717C119.5 119.203 123.938 124.93 122.627 131.68C118.932 152.455 116.749 172.992 116.029 194.089C115.92 200.202 111.268 204.924 105.151 204.924H56.5741C50.4573 204.924 44.9505 200.202 44.1654 194.089C41.8254 173.217 40.9803 152.682 41.6339 131.68C41.9549 124.93 48.2275 119.203 55.0116 119.203Z" stroke="#1A2E35" stroke-width="1.33333" stroke-miterlimit="10" stroke-linecap="round" stroke-linejoin="round"/>
<path d="M51.868 131.68C51.2134 152.682 52.0595 173.217 54.3995 194.089C55.1846 200.202 60.6914 204.924 66.8082 204.924H105.15C111.268 204.924 115.92 200.202 116.029 194.089C116.749 172.992 118.932 152.454 122.627 131.68C123.938 124.93 119.5 119.203 112.717 119.203H65.2457C58.4606 119.203 52.189 124.93 51.868 131.68Z" fill="#9A9A9A"/>
<path d="M51.868 131.68C51.2134 152.682 52.0595 173.217 54.3995 194.089C55.1846 200.202 60.6914 204.924 66.8082 204.924H105.15C111.268 204.924 115.92 200.202 116.029 194.089C116.749 172.992 118.932 152.454 122.627 131.68C123.938 124.93 119.5 119.203 112.717 119.203H65.2457C58.4606 119.203 52.189 124.93 51.868 131.68Z" stroke="#1A2E35" stroke-width="1.33333" stroke-miterlimit="10" stroke-linecap="round" stroke-linejoin="round"/>
<path d="M79.3494 312.62C79.3494 313.719 80.3618 314.537 81.4361 314.303C87.7482 312.926 106.656 308.944 114.034 308.944C121.41 308.944 140.319 312.926 146.631 314.303C147.705 314.537 148.718 313.719 148.718 312.62C148.718 310.489 147.235 308.65 145.151 308.202C137.761 306.614 120.902 303.163 114.034 303.163C107.166 303.163 90.3058 306.614 82.9164 308.202C80.8327 308.65 79.3494 310.489 79.3494 312.62Z" fill="#1A2E35"/>
<path d="M79.3494 312.62C79.3494 313.719 80.3618 314.537 81.436 314.303C87.7482 312.926 106.656 308.944 114.034 308.944C121.41 308.944 140.319 312.926 146.631 314.303C147.705 314.537 148.718 313.719 148.718 312.62C148.718 310.489 147.235 308.65 145.151 308.202C137.761 306.614 120.902 303.163 114.034 303.163C107.166 303.163 90.3058 306.614 82.9164 308.202C80.8327 308.65 79.3494 310.489 79.3494 312.62Z" stroke="#1A2E35" stroke-width="1.33333" stroke-miterlimit="10" stroke-linecap="round" stroke-linejoin="round"/>
<path d="M148.718 318.28C150.493 318.28 151.931 316.842 151.931 315.067C151.931 313.293 150.493 311.854 148.718 311.854C146.944 311.854 145.506 313.293 145.506 315.067C145.506 316.842 146.944 318.28 148.718 318.28ZM148.718 309.135C151.995 309.135 154.65 311.791 154.65 315.067C154.65 318.343 151.995 321 148.718 321C145.442 321 142.786 318.343 142.786 315.067C142.786 311.791 145.442 309.135 148.718 309.135Z" fill="#868686"/>
<path d="M148.718 318.28C150.493 318.28 151.931 316.842 151.931 315.067C151.931 313.293 150.493 311.854 148.718 311.854C146.944 311.854 145.506 313.293 145.506 315.067C145.506 316.842 146.944 318.28 148.718 318.28ZM148.718 309.135C151.995 309.135 154.65 311.791 154.65 315.067C154.65 318.343 151.995 321 148.718 321C145.442 321 142.786 318.343 142.786 315.067C142.786 311.791 145.442 309.135 148.718 309.135Z" stroke="#1A2E35" stroke-width="1.33333" stroke-miterlimit="10" stroke-linecap="round" stroke-linejoin="round"/>
<path d="M114.034 318.28C115.808 318.28 117.246 316.842 117.246 315.067C117.246 313.293 115.808 311.854 114.034 311.854C112.259 311.854 110.82 313.293 110.82 315.067C110.82 316.842 112.259 318.28 114.034 318.28ZM114.034 309.135C117.31 309.135 119.966 311.791 119.966 315.067C119.966 318.343 117.31 321 114.034 321C110.757 321 108.101 318.343 108.101 315.067C108.101 311.791 110.757 309.135 114.034 309.135Z" fill="#868686"/>
<path d="M114.034 318.28C115.808 318.28 117.246 316.842 117.246 315.067C117.246 313.293 115.808 311.854 114.034 311.854C112.259 311.854 110.82 313.293 110.82 315.067C110.82 316.842 112.259 318.28 114.034 318.28ZM114.034 309.135C117.31 309.135 119.966 311.791 119.966 315.067C119.966 318.343 117.31 321 114.034 321C110.757 321 108.101 318.343 108.101 315.067C108.101 311.791 110.757 309.135 114.034 309.135Z" stroke="#1A2E35" stroke-width="1.33333" stroke-miterlimit="10" stroke-linecap="round" stroke-linejoin="round"/>
<path d="M80.0689 318.28C81.8442 318.28 83.282 316.842 83.282 315.067C83.282 313.293 81.8442 311.854 80.0689 311.854C78.2945 311.854 76.8567 313.293 76.8567 315.067C76.8567 316.842 78.2945 318.28 80.0689 318.28ZM80.0689 309.135C83.3458 309.135 86.002 311.791 86.002 315.067C86.002 318.343 83.3458 321 80.0689 321C76.7929 321 74.1367 318.343 74.1367 315.067C74.1367 311.791 76.7929 309.135 80.0689 309.135Z" fill="#868686"/>
<path d="M80.0689 318.28C81.8442 318.28 83.282 316.842 83.282 315.067C83.282 313.293 81.8442 311.854 80.0689 311.854C78.2945 311.854 76.8567 313.293 76.8567 315.067C76.8567 316.842 78.2945 318.28 80.0689 318.28ZM80.0689 309.135C83.3458 309.135 86.002 311.791 86.002 315.067C86.002 318.343 83.3458 321 80.0689 321C76.7929 321 74.1367 318.343 74.1367 315.067C74.1367 311.791 76.7929 309.135 80.0689 309.135Z" stroke="#1A2E35" stroke-width="1.33333" stroke-miterlimit="10" stroke-linecap="round" stroke-linejoin="round"/>
<path d="M96.4511 227.78C119.797 228.503 142.583 227.495 165.773 224.715C170.495 224.081 174.312 227.312 174.312 232.05V233.183C174.312 237.922 170.495 242.373 165.773 243.008C142.583 245.787 119.797 246.794 96.4511 246.072V227.78Z" fill="#9A9A9A"/>
<path d="M96.4511 227.78C119.797 228.503 142.583 227.495 165.773 224.715C170.495 224.081 174.312 227.312 174.312 232.05V233.183C174.312 237.922 170.495 242.373 165.773 243.008C142.583 245.787 119.797 246.794 96.4511 246.072V227.78Z" stroke="#1A2E35" stroke-width="1.33333" stroke-miterlimit="10" stroke-linecap="round" stroke-linejoin="round"/>
<path d="M60.0924 242.705C74.4611 244.501 88.7052 245.697 103.174 246.318C106.7 246.417 109.561 243.593 109.561 240.075V234.521C109.561 231.004 106.7 228.125 103.174 228.027C88.7052 227.405 74.4611 226.21 60.0924 224.413C56.5891 223.922 53.755 226.323 53.755 229.84V235.393C53.755 238.911 56.5891 242.214 60.0924 242.705Z" fill="#868686"/>
<path d="M60.0924 242.705C74.4611 244.501 88.7052 245.697 103.174 246.318C106.7 246.417 109.561 243.593 109.561 240.075V234.521C109.561 231.004 106.7 228.125 103.174 228.027C88.7052 227.405 74.4611 226.21 60.0924 224.413C56.5891 223.922 53.755 226.323 53.755 229.84V235.393C53.755 238.911 56.5891 242.214 60.0924 242.705Z" stroke="#1A2E35" stroke-width="1.33333" stroke-miterlimit="10" stroke-linecap="round" stroke-linejoin="round"/>
<path d="M156.3 317.917C156.343 314.687 157.005 308.221 160.806 299.882L165.77 281.994L181.241 288.602L176.889 302.299C176.889 302.299 190.19 308.645 195.1 310.358C198.371 311.497 208.154 313.742 207.67 317.932C207.67 319.178 206.661 320.188 205.414 320.188H158.557C157.304 320.188 156.284 319.171 156.3 317.917Z" fill="white"/>
<path d="M156.3 317.917C156.343 314.687 157.005 308.221 160.806 299.882L165.77 281.994L181.241 288.602L176.889 302.299C176.889 302.299 190.19 308.645 195.1 310.358C198.371 311.497 208.154 313.742 207.67 317.932C207.67 319.178 206.661 320.188 205.414 320.188H158.557C157.304 320.188 156.284 319.171 156.3 317.917Z" stroke="#1A2E35" stroke-width="1.33333" stroke-miterlimit="10" stroke-linecap="round" stroke-linejoin="round"/>
<path d="M164.814 307.457C167.231 309.229 180.124 311.485 176.89 308.907C173.658 306.328 176.89 302.299 176.89 302.299C176.89 302.299 190.19 308.645 195.102 310.358C198.373 311.498 208.155 313.742 207.672 317.932C207.672 319.178 206.661 320.188 205.415 320.188H158.558C157.305 320.188 156.286 319.17 156.301 317.917C156.337 315.19 156.822 310.145 159.262 303.621C161.926 303.654 162.397 305.685 164.814 307.457Z" fill="#38BFF2"/>
<path d="M164.814 307.457C167.231 309.229 180.124 311.485 176.89 308.907C173.658 306.328 176.89 302.299 176.89 302.299C176.89 302.299 190.19 308.645 195.102 310.358C198.373 311.498 208.155 313.742 207.672 317.932C207.672 319.178 206.661 320.188 205.415 320.188H158.558C157.305 320.188 156.286 319.17 156.301 317.917C156.337 315.19 156.822 310.145 159.262 303.621C161.926 303.654 162.397 305.685 164.814 307.457Z" stroke="#1A2E35" stroke-width="1.33333" stroke-miterlimit="10" stroke-linecap="round" stroke-linejoin="round"/>
<path d="M145.108 320.188H110.783C110.073 320.188 109.468 319.685 109.334 318.989C108.808 316.26 108.928 310.159 112.024 302.057L112.328 285.61L129.912 288.601L127.681 302.622C127.681 302.622 134.761 310.413 138.123 311.808C140.488 312.789 145.857 312.892 146.578 318.543C146.691 319.416 145.989 320.188 145.108 320.188Z" fill="white"/>
<path d="M145.108 320.188H110.783C110.073 320.188 109.468 319.685 109.334 318.989C108.808 316.26 108.928 310.159 112.024 302.057L112.328 285.61L129.912 288.601L127.681 302.622C127.681 302.622 134.761 310.413 138.123 311.808C140.488 312.789 145.857 312.892 146.578 318.543C146.691 319.416 145.989 320.188 145.108 320.188Z" stroke="#1A2E35" stroke-width="1.33333" stroke-miterlimit="10" stroke-linecap="round" stroke-linejoin="round"/>
<path d="M117.818 307.519C121.447 310.056 124.121 310.358 122.429 306.552C120.737 302.747 127.681 302.623 127.681 302.623C127.681 302.623 134.761 310.412 138.124 311.808C140.487 312.788 145.857 312.892 146.579 318.542C146.69 319.416 145.989 320.188 145.108 320.188H110.783C110.073 320.188 109.467 319.685 109.334 318.988C108.808 316.259 108.928 310.159 112.024 302.058C114.672 302.703 114.188 304.982 117.818 307.519Z" fill="#38BFF2"/>
<path d="M117.818 307.519C121.447 310.056 124.121 310.358 122.429 306.552C120.737 302.747 127.681 302.623 127.681 302.623C127.681 302.623 134.761 310.412 138.124 311.808C140.487 312.788 145.857 312.892 146.579 318.542C146.69 319.416 145.989 320.188 145.108 320.188H110.783C110.073 320.188 109.467 319.685 109.334 318.988C108.808 316.259 108.928 310.159 112.024 302.058C114.672 302.703 114.188 304.982 117.818 307.519Z" stroke="#1A2E35" stroke-width="1.33333" stroke-miterlimit="10" stroke-linecap="round" stroke-linejoin="round"/>
<path d="M148.526 194.647C148.526 194.647 151.982 198.192 166.129 200.448C180.274 202.704 209.605 209.796 209.282 221.399C208.96 233.002 181.886 294.887 181.886 294.887C181.886 294.887 168.349 292.308 162.064 288.44C162.064 288.44 172.96 244.283 181.13 232.679C181.13 232.679 144.453 228.168 124.169 219.787C103.886 211.407 115.811 192.335 115.811 192.335L148.526 194.647Z" fill="#1A2E35"/>
<path d="M148.526 194.647C148.526 194.647 151.982 198.192 166.129 200.448C180.274 202.704 209.605 209.796 209.282 221.399C208.96 233.002 181.886 294.887 181.886 294.887C181.886 294.887 168.349 292.308 162.064 288.44C162.064 288.44 172.96 244.283 181.13 232.679C181.13 232.679 144.453 228.168 124.169 219.787C103.886 211.407 115.811 192.335 115.811 192.335L148.526 194.647Z" stroke="#1A2E35" stroke-width="1.33333" stroke-miterlimit="10" stroke-linecap="round" stroke-linejoin="round"/>
<path d="M125.482 193.018C125.482 193.018 120.279 201.738 124.169 206.572C128.059 211.407 150.124 220.432 147.633 231.391C145.142 242.349 136.903 257.82 131.53 294.564C131.53 294.564 119.034 292.63 110.654 289.085C110.654 289.085 109.265 251.697 118.984 235.581C118.984 235.581 91.1536 230.424 88.334 221.076C85.5134 211.73 90.79 197.436 90.8915 192.335L125.482 193.018Z" fill="#1A2E35"/>
<path d="M125.482 193.018C125.482 193.018 120.279 201.738 124.169 206.572C128.059 211.407 150.124 220.432 147.633 231.391C145.142 242.349 136.903 257.82 131.53 294.564C131.53 294.564 119.034 292.63 110.654 289.085C110.654 289.085 109.265 251.697 118.984 235.581C118.984 235.581 91.1536 230.424 88.334 221.076C85.5134 211.73 90.79 197.436 90.8915 192.335L125.482 193.018Z" stroke="#1A2E35" stroke-width="1.33333" stroke-miterlimit="10" stroke-linecap="round" stroke-linejoin="round"/>
<path d="M142.248 206.864C142.864 206.823 143.506 206.83 144.174 206.894" stroke="#808080" stroke-linecap="round" stroke-linejoin="round"/>
<path d="M141.026 201.093C141.026 201.093 135.31 202.775 133.068 210.223C132.89 210.814 133.626 211.266 134.059 210.827C135.249 209.624 137.106 208.145 139.564 207.37" stroke="#808080" stroke-linecap="round" stroke-linejoin="round"/>
<path d="M183.82 232.277C183.82 229.133 197.357 227.442 193.731 224.541C190.105 221.641 181.886 231.068 181.886 231.068" stroke="#808080" stroke-linecap="round" stroke-linejoin="round"/>
<path d="M117.302 244.847C117.302 241.248 130.239 239.287 129.592 235.419C128.946 231.552 120.727 239.166 120.727 239.166" stroke="#808080" stroke-linecap="round" stroke-linejoin="round"/>
<path d="M183.311 295.107L181.886 298.394C181.724 298.767 181.325 298.975 180.928 298.885C177.801 298.18 164.766 295.101 160.188 291.818C159.915 291.623 159.802 291.271 159.882 290.945L160.769 287.281C160.901 286.739 161.51 286.471 162 286.74C164.056 287.863 169.792 290.541 182.741 293.951C183.243 294.083 183.517 294.631 183.311 295.107Z" fill="#9A9A9A"/>
<path d="M183.311 295.107L181.886 298.394C181.724 298.767 181.325 298.975 180.928 298.885C177.801 298.18 164.766 295.101 160.188 291.818C159.915 291.623 159.802 291.271 159.882 290.945L160.769 287.281C160.901 286.739 161.51 286.471 162 286.74C164.056 287.863 169.792 290.541 182.741 293.951C183.243 294.083 183.517 294.631 183.311 295.107Z" stroke="#1A2E35" stroke-width="1.33333" stroke-miterlimit="10" stroke-linecap="round" stroke-linejoin="round"/>
<path d="M133.105 292.4C133.176 291.906 132.699 291.497 132.232 291.67C131.304 292.014 129.734 292.283 127.375 291.744C123.79 290.925 113.526 287.676 110.474 286.702C110.041 286.565 109.607 286.889 109.607 287.342V291.617C109.607 291.882 109.757 292.119 109.999 292.226C112.4 293.296 125.246 298.799 131.971 297.299C132.238 297.239 132.436 297.01 132.475 296.737L133.105 292.4Z" fill="#9A9A9A"/>
<path d="M133.105 292.4C133.176 291.906 132.699 291.497 132.232 291.67C131.304 292.014 129.734 292.283 127.375 291.744C123.79 290.925 113.526 287.676 110.474 286.702C110.041 286.565 109.607 286.889 109.607 287.342V291.617C109.607 291.882 109.757 292.119 109.999 292.226C112.4 293.296 125.246 298.799 131.971 297.299C132.238 297.239 132.436 297.01 132.475 296.737L133.105 292.4Z" stroke="#1A2E35" stroke-width="1.33333" stroke-miterlimit="10" stroke-linecap="round" stroke-linejoin="round"/>
<path d="M122.763 202.9C122.885 204.223 123.3 205.495 124.167 206.572C127.005 210.098 139.511 215.854 145.106 222.964" stroke="#808080" stroke-width="1.33333" stroke-linecap="round" stroke-linejoin="round"/>
<path d="M123.369 197.982C123.165 198.678 122.991 199.412 122.876 200.159" stroke="#808080" stroke-width="1.33333" stroke-linecap="round" stroke-linejoin="round"/>
<path d="M197.42 312.533C197.42 312.533 196.453 314.064 195.728 317.126H160.807C160.807 317.126 160.714 314.785 158.864 313.138" stroke="#1A2E35" stroke-width="1.33333" stroke-miterlimit="10" stroke-linecap="round" stroke-linejoin="round"/>
<path d="M136.745 312.533C136.745 312.533 131.91 312.896 130.097 317.126H111.846C111.846 317.126 110.879 314.951 110.879 313.138" stroke="#1A2E35" stroke-width="1.33333" stroke-miterlimit="10" stroke-linecap="round" stroke-linejoin="round"/>
<path d="M165.366 139.959C164.918 141.667 164.457 143.357 163.997 145.01C159.162 162.415 152.878 195.533 152.878 195.533C121.936 202.06 89.3016 195.533 89.3016 195.533C89.1237 188.313 90.0027 178.791 90.9822 168.788C85.9077 167.384 82.2488 162.7 82.0496 154.922C81.8078 145.494 83.5164 128.519 84.4669 120.595C85.3033 113.622 84.7087 109.475 95.5094 104.191C100.922 101.066 109.91 99.5883 120.969 98.1137C142.725 95.2129 158.424 99.6086 163.997 101.982C168.414 100.818 169.643 106.005 169.643 106.005C172.09 104.151 174.931 111.986 174.931 111.986C182.088 121.117 187.717 136.494 189.588 141.978C189.998 143.179 190.765 144.217 191.773 144.986C196.85 148.857 194.028 153.642 194.028 153.642L183.634 156.828C183.634 156.828 178.598 158.139 174.75 151.516C171.531 145.975 166.272 136.584 165.366 139.959Z" fill="#38BFF2"/>
<g opacity="0.300003">
<g opacity="0.300003">
<path opacity="0.300003" d="M181.714 152.457C181.714 152.457 181.956 147.623 185.823 146.777C189.691 145.931 184.736 144.488 181.714 145.21C178.692 145.931 179.388 143.272 176.805 138.921C174.22 134.57 172.951 131.13 170.745 133.639C168.538 136.148 166.292 136.493 165.361 139.959C164.43 143.425 169.023 151.515 169.023 151.515L176.238 157.111L179.901 159.166H185.372L187.24 154.437L181.714 152.457Z" fill="black"/>
</g>
</g>
<path d="M165.366 139.959C164.918 141.667 164.457 143.357 163.997 145.01C159.162 162.415 152.878 195.533 152.878 195.533C121.936 202.06 89.3017 195.533 89.3017 195.533C89.1237 188.313 90.0027 178.79 90.9822 168.787C85.9077 167.383 82.2488 162.7 82.0496 154.921C81.8079 145.494 83.5164 128.519 84.4669 120.595C85.3033 113.621 84.7087 109.475 95.5094 104.191C100.922 101.066 109.91 99.5882 120.969 98.1136C142.725 95.2128 158.424 99.6085 163.997 101.981C168.414 100.818 169.643 106.005 169.643 106.005C172.09 104.151 174.931 111.985 174.931 111.985C182.088 121.117 187.717 136.494 189.588 141.978C189.998 143.179 190.765 144.216 191.773 144.986C196.85 148.857 194.028 153.642 194.028 153.642L183.634 156.828C183.634 156.828 178.598 158.139 174.75 151.516C171.531 145.975 166.272 136.583 165.366 139.959Z" stroke="#1A2E35" stroke-width="1.33333" stroke-miterlimit="10" stroke-linecap="round" stroke-linejoin="round"/>
<g opacity="0.300003">
<g opacity="0.300003">
<path opacity="0.300003" d="M89.2999 195.533C89.1713 190.31 89.5987 183.872 90.2137 176.928C89.1597 191.648 119.821 196.255 120.788 188.276C121.755 180.294 90.9804 168.788 107.726 172.81C122.34 176.32 150.653 172.967 157.621 172.057C154.946 184.634 152.876 195.533 152.876 195.533C121.934 202.06 89.2999 195.533 89.2999 195.533Z" fill="black"/>
</g>
</g>
<g opacity="0.300003">
<g opacity="0.300003">
<path opacity="0.300003" d="M103.363 121.562C103.363 121.562 107.738 134.374 107.729 141.143C107.72 147.905 120.004 152.448 120.025 152.457C113.448 151.116 107.044 149.347 103.983 148.463C102.897 148.15 102.188 147.119 102.286 145.994C102.89 139.054 103.543 129.71 103.362 121.562H103.363Z" fill="black"/>
</g>
</g>
<path d="M169.417 118.336C169.417 118.336 169.564 127.552 166.192 136.023C165.879 136.808 166.771 137.524 167.459 137.032C169.117 135.845 171.463 133.425 173.584 128.549" stroke="#1A2E35" stroke-miterlimit="10" stroke-linecap="round" stroke-linejoin="round"/>
<path d="M87.3678 157.822C89.9186 149.363 94.3337 147.244 97.7557 147.031C98.3059 146.997 98.4886 146.278 98.0052 146.016C96.0191 144.939 92.1436 144.09 87.3678 149.361" stroke="#1A2E35" stroke-miterlimit="10" stroke-linecap="round" stroke-linejoin="round"/>
<path d="M136.417 133.604C136.417 134.407 137.068 135.057 137.869 135.057C138.672 135.057 139.323 134.407 139.323 133.604C139.323 132.802 138.672 132.152 137.869 132.152C137.068 132.152 136.417 132.802 136.417 133.604Z" fill="#9A9A9A"/>
<path d="M136.417 133.604C136.417 134.407 137.068 135.057 137.869 135.057C138.672 135.057 139.323 134.407 139.323 133.604C139.323 132.802 138.672 132.152 137.869 132.152C137.068 132.152 136.417 132.802 136.417 133.604Z" stroke="#1A2E35" stroke-miterlimit="10" stroke-linecap="round" stroke-linejoin="round"/>
<path d="M134.45 150.063C134.45 150.866 135.1 151.516 135.903 151.516C136.706 151.516 137.355 150.866 137.355 150.063C137.355 149.261 136.706 148.61 135.903 148.61C135.1 148.61 134.45 149.261 134.45 150.063Z" fill="#9A9A9A"/>
<path d="M134.45 150.063C134.45 150.866 135.1 151.516 135.903 151.516C136.706 151.516 137.355 150.866 137.355 150.063C137.355 149.261 136.706 148.61 135.903 148.61C135.1 148.61 134.45 149.261 134.45 150.063Z" stroke="#1A2E35" stroke-miterlimit="10" stroke-linecap="round" stroke-linejoin="round"/>
<path d="M129.594 189.729C129.594 190.531 130.244 191.182 131.047 191.182C131.849 191.182 132.499 190.531 132.499 189.729C132.499 188.926 131.849 188.276 131.047 188.276C130.244 188.276 129.594 188.926 129.594 189.729Z" fill="#9A9A9A"/>
<path d="M129.594 189.729C129.594 190.531 130.244 191.182 131.047 191.182C131.849 191.182 132.499 190.531 132.499 189.729C132.499 188.926 131.849 188.276 131.047 188.276C130.244 188.276 129.594 188.926 129.594 189.729Z" stroke="#1A2E35" stroke-width="1.33333" stroke-miterlimit="10" stroke-linecap="round" stroke-linejoin="round"/>
<path d="M157.357 160.844C157.357 160.844 162.107 165.375 159.848 165.445C157.59 165.516 154.733 162.415 152.114 162.052C149.493 161.69 153.724 160.088 153.724 160.088L157.357 160.844Z" fill="white"/>
<path d="M157.357 160.844C157.357 160.844 162.107 165.375 159.848 165.445C157.59 165.516 154.733 162.415 152.114 162.052C149.493 161.69 153.724 160.088 153.724 160.088L157.357 160.844Z" stroke="#1A2E35" stroke-width="1.33333" stroke-miterlimit="10" stroke-linecap="round" stroke-linejoin="round"/>
<path d="M129.635 155.755C130.061 155.367 130.637 155.184 131.211 155.231C133.538 155.417 140.202 155.923 142.725 155.767C147.186 155.493 160.343 152.705 160.343 152.705C160.648 152.653 160.961 152.67 161.258 152.757L169.405 155.151C169.702 155.239 169.975 155.392 170.203 155.602L175.135 160.134C175.297 160.284 175.434 160.459 175.541 160.653L176.562 162.526C176.995 163.318 176.848 164.302 176.204 164.934L168.044 165.189C167.54 165.205 167.049 165.032 166.666 164.704L164.25 162.632C164.089 162.493 163.953 162.33 163.841 162.15C163.245 161.195 160.968 157.996 157.357 158.306C157.357 158.306 165.085 162.415 163.635 164.107C162.184 165.799 156.262 160.965 154.328 161.448C152.436 161.921 152.265 166.675 141.74 164.956C141.273 164.88 140.789 164.898 140.333 165.025L130.762 167.701C129.563 168.037 128.332 167.318 128.023 166.112C127.307 163.312 126.653 158.473 129.635 155.755Z" fill="white"/>
<path d="M129.635 155.755C130.061 155.367 130.637 155.184 131.211 155.231C133.538 155.417 140.202 155.923 142.725 155.767C147.186 155.493 160.343 152.705 160.343 152.705C160.648 152.653 160.961 152.67 161.258 152.757L169.405 155.151C169.702 155.239 169.975 155.392 170.203 155.602L175.135 160.134C175.297 160.284 175.434 160.459 175.541 160.653L176.562 162.526C176.995 163.318 176.848 164.302 176.204 164.934L168.044 165.189C167.54 165.205 167.049 165.032 166.666 164.704L164.25 162.632C164.089 162.493 163.953 162.33 163.841 162.15C163.245 161.195 160.968 157.996 157.357 158.306C157.357 158.306 165.085 162.415 163.635 164.107C162.184 165.799 156.262 160.965 154.328 161.448C152.436 161.921 152.265 166.675 141.74 164.956C141.273 164.88 140.789 164.898 140.333 165.025L130.762 167.701C129.563 168.037 128.332 167.318 128.023 166.112C127.307 163.312 126.653 158.473 129.635 155.755Z" stroke="#1A2E35" stroke-width="1.33333" stroke-miterlimit="10" stroke-linecap="round" stroke-linejoin="round"/>
<path d="M159.204 154.438L161.258 154.784C162.258 154.953 163.192 155.396 163.956 156.064L166.089 157.931C166.465 158.26 166.794 158.638 167.067 159.056L168.468 161.198C168.621 161.434 168.795 161.655 168.985 161.864C169.816 162.78 172.105 165.502 169.633 165.14" fill="white"/>
<path d="M159.204 154.438L161.258 154.784C162.258 154.953 163.192 155.396 163.956 156.064L166.089 157.931C166.465 158.26 166.794 158.638 167.067 159.056L168.468 161.198C168.621 161.434 168.795 161.655 168.985 161.864C169.816 162.78 172.105 165.502 169.633 165.14" stroke="#1A2E35" stroke-width="1.33333" stroke-miterlimit="10" stroke-linecap="round" stroke-linejoin="round"/>
<path d="M164.976 155.163L167.099 155.736C167.759 155.915 168.365 156.257 168.859 156.732L170.513 158.321C170.67 158.472 170.815 158.634 170.945 158.809L173.66 162.415C173.66 162.415 175.115 164.969 173.66 165.014" fill="white"/>
<path d="M164.976 155.163L167.099 155.736C167.759 155.915 168.365 156.257 168.859 156.732L170.513 158.321C170.67 158.472 170.815 158.634 170.945 158.809L173.66 162.415C173.66 162.415 175.115 164.969 173.66 165.014" stroke="#1A2E35" stroke-width="1.33333" stroke-miterlimit="10" stroke-linecap="round" stroke-linejoin="round"/>
<path d="M103.295 119.511C103.653 128.099 102.938 138.465 102.282 145.993C102.184 147.119 102.893 148.15 103.979 148.463C108.201 149.682 118.787 152.591 127.416 153.729" stroke="#1A2E35" stroke-width="1.33333" stroke-miterlimit="10" stroke-linecap="round" stroke-linejoin="round"/>
<path d="M102.816 113.515C102.942 114.498 103.046 115.532 103.128 116.607" stroke="#1A2E35" stroke-miterlimit="10" stroke-linecap="round" stroke-linejoin="round"/>
<path d="M99.5707 104.459C100.68 105.413 101.496 107.18 102.083 109.506" stroke="#1A2E35" stroke-miterlimit="10" stroke-linecap="round" stroke-linejoin="round"/>
<path d="M147.985 98.7176C147.985 98.7176 147.381 96.7837 144.118 95.6959C140.854 94.6081 129.562 92.8656 123.752 95.6959C117.94 98.5261 129.07 113.887 129.07 113.887L134.266 121.017L138.859 124.462L140.915 118.337L143.574 115.578C143.574 115.578 149.315 110.865 148.831 106.211C148.348 101.558 147.985 98.7176 147.985 98.7176Z" fill="white"/>
<path d="M124.251 98.0792C131.927 122.176 138.696 123.254 138.696 123.254C140.952 114.391 142.885 116.324 145.948 110.786C148.405 106.343 147.573 100.709 147.15 98.6565C147.046 98.1575 146.73 97.7243 146.276 97.4932C138.659 93.6158 129.34 95.042 125.496 95.891C124.518 96.1066 123.948 97.1258 124.251 98.0792ZM119.458 98.3171C120.365 95.1368 124.514 94.2453 124.514 94.2453C144.336 90.861 148.527 98.0666 148.527 98.0666C152.555 109.3 148.527 118.337 148.527 118.337C148.527 118.337 142.885 116.001 141.919 118.337C140.952 120.671 139.179 125.671 139.179 125.671C139.179 125.671 135.311 123.737 132.249 119.709C129.188 115.679 121.986 119.709 121.986 119.709C117.364 111.65 119.458 98.3171 119.458 98.3171Z" fill="#38BFF2"/>
<g opacity="0.399994">
<g opacity="0.399994">
<path opacity="0.399994" d="M124.249 98.0793C131.925 122.176 138.693 123.254 138.693 123.254C140.949 114.391 142.883 116.325 145.945 110.786C148.402 106.343 147.571 100.709 147.147 98.6566C147.044 98.1576 146.727 97.7244 146.273 97.4933C138.656 93.6159 129.337 95.0422 125.493 95.8911C124.516 96.1068 123.945 97.1259 124.249 98.0793ZM119.456 98.3172C120.363 95.1369 124.511 94.2454 124.511 94.2454C144.333 90.8611 148.524 98.0667 148.524 98.0667C152.552 109.3 148.524 118.337 148.524 118.337C148.524 118.337 142.883 116.002 141.916 118.337C140.949 120.671 139.177 125.671 139.177 125.671C139.177 125.671 135.309 123.737 132.247 119.709C129.185 115.68 121.983 119.709 121.983 119.709C117.361 111.65 119.456 98.3172 119.456 98.3172Z" fill="white"/>
</g>
</g>
<path d="M124.249 98.0791C131.925 122.176 138.694 123.253 138.694 123.253C140.95 114.39 142.883 116.324 145.946 110.786C148.403 106.343 147.571 100.709 147.148 98.6563C147.044 98.1574 146.728 97.7242 146.274 97.4931C138.657 93.6157 129.338 95.0419 125.494 95.8909C124.516 96.1065 123.946 97.1257 124.249 98.0791ZM119.456 98.3169C120.363 95.1367 124.512 94.2451 124.512 94.2451C144.334 90.8608 148.525 98.0665 148.525 98.0665C152.553 109.299 148.525 118.337 148.525 118.337C148.525 118.337 142.883 116.001 141.916 118.337C140.95 120.671 139.177 125.671 139.177 125.671C139.177 125.671 135.309 123.737 132.247 119.709C129.186 115.679 121.984 119.709 121.984 119.709C117.362 111.65 119.456 98.3169 119.456 98.3169V98.3169Z" stroke="#1A2E35" stroke-width="1.33333" stroke-miterlimit="10" stroke-linecap="round" stroke-linejoin="round"/>
<path d="M151.818 61.4941C151.818 61.4941 168.9 64.9151 159.493 76.0263C149.059 88.349 151.818 61.4941 151.818 61.4941Z" fill="#1A2E35"/>
<path d="M151.818 61.4941C151.818 61.4941 168.9 64.9151 159.493 76.0263C149.059 88.349 151.818 61.4941 151.818 61.4941Z" stroke="#1A2E35" stroke-width="1.33333" stroke-miterlimit="10" stroke-linecap="round" stroke-linejoin="round"/>
<path d="M158.555 88.6046C158.555 88.6046 162.616 72.1666 154.881 64.2696C147.145 56.3735 138.765 54.7616 132.48 58.6294C126.195 62.4972 123.617 72.1666 124.584 77.1628C125.551 82.158 125.079 100.046 133.695 107.46C142.311 114.874 147.613 113.046 153.311 102.947C157.055 96.3121 158.845 94.4063 158.555 88.6046Z" fill="white"/>
<path d="M158.555 88.6046C158.555 88.6046 162.616 72.1666 154.881 64.2696C147.145 56.3735 138.765 54.7616 132.48 58.6294C126.195 62.4972 123.617 72.1666 124.584 77.1628C125.551 82.158 125.079 100.046 133.695 107.46C142.311 114.874 147.613 113.046 153.311 102.947C157.055 96.3121 158.845 94.4063 158.555 88.6046Z" stroke="#1A2E35" stroke-width="1.33333" stroke-miterlimit="10" stroke-linecap="round" stroke-linejoin="round"/>
<path d="M128.616 85.3819C128.616 85.3819 135.11 78.9353 137.099 71.3612C139.088 63.7872 140.215 62.4973 147.629 66.2045C155.042 69.9108 166.609 64.9214 163.583 55.5682C160.403 45.7373 150.691 58.469 141.344 55.2452C131.996 52.0224 125.367 57.824 125.352 66.365C125.352 66.365 119.703 71.8447 125.367 86.0269L128.616 85.3819Z" fill="#1A2E35"/>
<path d="M128.616 85.3819C128.616 85.3819 135.11 78.9353 137.099 71.3612C139.088 63.7872 140.215 62.4973 147.629 66.2045C155.042 69.9108 166.609 64.9214 163.583 55.5682C160.403 45.7373 150.691 58.469 141.344 55.2452C131.996 52.0224 125.367 57.824 125.352 66.365C125.352 66.365 119.703 71.8447 125.367 86.0269L128.616 85.3819Z" stroke="#1A2E35" stroke-width="1.33333" stroke-miterlimit="10" stroke-linecap="round" stroke-linejoin="round"/>
<path d="M130.653 84.3007C130.653 84.3007 129.01 75.2897 124.44 76.1252C119.87 76.9616 123.137 90.2571 128.513 88.8066" fill="white"/>
<path d="M130.653 84.3007C130.653 84.3007 129.01 75.2897 124.44 76.1252C119.87 76.9616 123.137 90.2571 128.513 88.8066" stroke="#1A2E35" stroke-width="1.33333" stroke-miterlimit="10" stroke-linecap="round" stroke-linejoin="round"/>
<path d="M152.385 87.3558C152.385 87.3558 154.176 95.7179 153.593 97.1557C153.01 98.5936 147.474 97.4932 147.474 97.4932" fill="white"/>
<path d="M152.385 87.3558C152.385 87.3558 154.176 95.7179 153.593 97.1557C153.01 98.5936 147.474 97.4932 147.474 97.4932" stroke="#1A2E35" stroke-width="1.33333" stroke-miterlimit="10" stroke-linecap="round" stroke-linejoin="round"/>
<path d="M146.701 101.135C146.701 101.135 142.366 102.847 138.55 97.1558L146.701 101.135Z" fill="white"/>
<path d="M146.701 101.135C146.701 101.135 142.366 102.847 138.55 97.1558" stroke="#1A2E35" stroke-width="1.33333" stroke-miterlimit="10" stroke-linecap="round" stroke-linejoin="round"/>
<path d="M155.348 88.0532C155.187 88.8326 155.39 89.5336 155.803 89.6197C156.215 89.7047 156.682 89.143 156.843 88.3636C157.005 87.5842 156.801 86.8832 156.389 86.7981C155.976 86.7121 155.511 87.2739 155.348 88.0532Z" fill="#1A2E35"/>
<path d="M144.746 87.201C144.584 87.9803 144.787 88.6814 145.2 88.7665C145.612 88.8525 146.079 88.2898 146.241 87.5114C146.402 86.732 146.199 86.031 145.786 85.9449C145.373 85.8598 144.907 86.4216 144.746 87.201Z" fill="#1A2E35"/>
<path d="M153.12 87.6911C152.901 89.8812 155.103 91.8953 158.038 92.1883C160.972 92.4813 163.529 90.9439 163.748 88.7537C163.967 86.5626 161.661 85.5957 158.726 85.3027C155.791 85.0097 153.339 85.5 153.12 87.6911Z" stroke="#1A2E35" stroke-width="1.33333" stroke-miterlimit="10" stroke-linecap="round" stroke-linejoin="round"/>
<path d="M139.438 86.323C139.218 88.514 141.421 90.5272 144.356 90.8202C147.29 91.1142 149.847 89.5757 150.066 87.3856C150.285 85.1945 147.979 84.2286 145.044 83.9356C142.11 83.6426 139.657 84.1328 139.438 86.323Z" stroke="#1A2E35" stroke-width="1.33333" stroke-miterlimit="10" stroke-linecap="round" stroke-linejoin="round"/>
<path d="M153.12 87.6912L150.064 87.3856L153.12 87.6912Z" fill="white"/>
<path d="M153.12 87.6912L150.064 87.3856" stroke="#1A2E35" stroke-width="1.33333" stroke-miterlimit="10" stroke-linecap="round" stroke-linejoin="round"/>
<path d="M139.813 85.226L128.572 78.5976L139.813 85.226Z" fill="white"/>
<path d="M139.813 85.226L128.572 78.5976" stroke="#1A2E35" stroke-width="1.33333" stroke-miterlimit="10" stroke-linecap="round" stroke-linejoin="round"/>
<path d="M126.644 95.5363L126.114 96.8242L126.644 95.5363Z" fill="white"/>
<path d="M126.644 95.5363L126.114 96.8242" stroke="#1A2E35" stroke-width="1.33333" stroke-miterlimit="10" stroke-linecap="round" stroke-linejoin="round"/>
<path d="M159.459 84.1567C159.459 84.1567 157.747 81.9782 155.646 83.0273L159.459 84.1567Z" fill="white"/>
<path d="M159.459 84.1567C159.459 84.1567 157.747 81.9782 155.646 83.0273" stroke="#1A2E35" stroke-width="1.33333" stroke-miterlimit="10" stroke-linecap="round" stroke-linejoin="round"/>
<path d="M141.939 83.1831C141.939 83.1831 144.947 80.3161 147.841 82.3274L141.939 83.1831Z" fill="white"/>
<path d="M141.939 83.1831C141.939 83.1831 144.947 80.3161 147.841 82.3274" stroke="#1A2E35" stroke-width="1.33333" stroke-miterlimit="10" stroke-linecap="round" stroke-linejoin="round"/>
<path d="M155.661 56.6529C151.088 58.1072 143.389 59.8825 137.099 57.9844C127.484 55.0836 130.747 65.9095 128.572 68.8973" stroke="#808080" stroke-width="1.33333" stroke-linecap="round" stroke-linejoin="round"/>
<path d="M159.619 55.2049C159.619 55.2049 158.851 55.5434 157.551 56.0114" stroke="#808080" stroke-width="1.33333" stroke-linecap="round" stroke-linejoin="round"/>
<path d="M148.069 62.0426C147.557 61.886 147.02 61.7032 146.461 61.4943" stroke="#808080" stroke-width="1.33333" stroke-linecap="round" stroke-linejoin="round"/>
<path d="M158.555 60.7649C158.555 60.7649 156.511 63.9326 149.908 62.5228" stroke="#808080" stroke-width="1.33333" stroke-linecap="round" stroke-linejoin="round"/>
<path d="M134.001 66.9657C133.595 69.7167 132.553 73.7063 129.902 77.3236" stroke="#808080" stroke-width="1.33333" stroke-linecap="round" stroke-linejoin="round"/>
<path d="M134.252 63.5449C134.252 63.5449 134.276 64.1947 134.192 65.2748" stroke="#808080" stroke-width="1.33333" stroke-linecap="round" stroke-linejoin="round"/>
<g opacity="0.300003">
<g opacity="0.300003">
<path opacity="0.300003" d="M125.649 167.272C126.427 167.968 125.975 169.252 124.93 169.258C118.402 169.288 100.785 169.332 93.9535 168.942C85.4927 168.459 91.9499 159.252 98.7534 162.767C105.023 166.007 118.212 160.614 125.649 167.272Z" fill="black"/>
</g>
</g>
<path d="M199.283 158.208C199.283 158.208 195.331 147.678 185.411 149.349C175.391 151.038 183.073 159.325 187.842 160.067C187.842 160.067 188.567 157.176 199.283 158.208Z" fill="white"/>
<path d="M199.283 158.208C199.283 158.208 195.331 147.678 185.411 149.349C175.391 151.038 183.073 159.325 187.842 160.067C187.842 160.067 188.567 157.176 199.283 158.208Z" stroke="#1A2E35" stroke-width="1.33333" stroke-miterlimit="10" stroke-linecap="round" stroke-linejoin="round"/>
<path d="M207.685 164.182C208.994 165.491 212.134 165.603 210.022 162.767C207.685 159.63 205.051 158.578 203.253 157.775C198.547 155.675 196.713 156.095 192.456 155.162C188.198 154.23 187.402 155.961 185.929 156.768C182.421 158.692 181.577 159.025 180.691 160.959C179.805 162.893 178.838 165.41 181.577 165.41C184.075 165.41 184.237 161.281 186.654 161.443C189.071 161.603 190.28 165.41 191.972 165.41H192.617C194.067 165.41 194.146 164.203 193.258 162.307C192.37 160.41 191.408 158.702 191.408 158.702C191.408 158.702 193.51 159.66 194.672 162.127C195.832 164.595 196.046 165.634 198.179 165.634C200.312 165.634 200.165 164.05 198.043 160.55C198.043 160.55 199.954 161.6 200.999 163.576C202.045 165.552 202.589 165.41 203.959 165.41C205.751 165.41 205.63 162.449 202.447 160.515C202.447 160.515 203.153 159.65 207.685 164.182Z" fill="white"/>
<path d="M207.685 164.182C208.994 165.491 212.134 165.603 210.022 162.767C207.685 159.63 205.051 158.578 203.253 157.775C198.547 155.675 196.713 156.095 192.456 155.162C188.198 154.23 187.402 155.961 185.929 156.768C182.421 158.692 181.577 159.025 180.691 160.959C179.805 162.893 178.838 165.41 181.577 165.41C184.075 165.41 184.237 161.281 186.654 161.443C189.071 161.603 190.28 165.41 191.972 165.41H192.617C194.067 165.41 194.146 164.203 193.258 162.307C192.37 160.41 191.408 158.702 191.408 158.702C191.408 158.702 193.51 159.66 194.672 162.127C195.832 164.595 196.046 165.634 198.179 165.634C200.312 165.634 200.165 164.05 198.043 160.55C198.043 160.55 199.954 161.6 200.999 163.576C202.045 165.552 202.589 165.41 203.959 165.41C205.751 165.41 205.63 162.449 202.447 160.515C202.447 160.515 203.153 159.65 207.685 164.182Z" stroke="#1A2E35" stroke-width="1.33333" stroke-miterlimit="10" stroke-linecap="round" stroke-linejoin="round"/>
<path d="M195.252 157.111C195.252 157.111 196.503 157.051 197.288 159.166L195.252 157.111Z" fill="white"/>
<path d="M195.252 157.111C195.252 157.111 196.503 157.051 197.288 159.166" stroke="#1A2E35" stroke-miterlimit="10" stroke-linecap="round" stroke-linejoin="round"/>
<path d="M36.3678 66.0728C30.1997 70.9211 24.2539 76.1871 18.5683 81.8727" stroke="#1A2E35" stroke-miterlimit="10" stroke-linecap="round" stroke-linejoin="round"/>
<path d="M43.1152 60.9993C41.9326 61.8493 40.7578 62.7137 39.5907 63.5927" stroke="#1A2E35" stroke-miterlimit="10" stroke-linecap="round" stroke-linejoin="round"/>
<path d="M49.8528 56.3637C48.6402 57.1614 47.4344 57.9737 46.2364 58.8004" stroke="#1A2E35" stroke-miterlimit="10" stroke-linecap="round" stroke-linejoin="round"/>
<path d="M99.3184 32.9632C83.505 37.8917 68.1877 44.8527 53.7774 53.8481" stroke="#1A2E35" stroke-miterlimit="10" stroke-linecap="round" stroke-linejoin="round"/>
<path d="M109.884 29.991C107.926 30.4831 105.973 31.0062 104.027 31.5603" stroke="#1A2E35" stroke-miterlimit="10" stroke-linecap="round" stroke-linejoin="round"/>
<path d="M120.745 27.5811C118.62 27.9901 116.5 28.4349 114.388 28.9136" stroke="#1A2E35" stroke-miterlimit="10" stroke-linecap="round" stroke-linejoin="round"/>
<path d="M130.427 25.9651C128.594 26.2252 126.764 26.5094 124.937 26.8208" stroke="#1A2E35" stroke-miterlimit="10" stroke-linecap="round" stroke-linejoin="round"/>
<path d="M188.745 26.3545C170.821 23.5716 152.588 23.2603 134.595 25.4195" stroke="#1A2E35" stroke-miterlimit="10" stroke-linecap="round" stroke-linejoin="round"/>
<path d="M196.725 27.7607C195.08 27.4358 193.431 27.1322 191.779 26.8499" stroke="#1A2E35" stroke-miterlimit="10" stroke-linecap="round" stroke-linejoin="round"/>
<path d="M204.464 29.4504C202.818 29.0559 201.167 28.6837 199.513 28.3317" stroke="#1A2E35" stroke-miterlimit="10" stroke-linecap="round" stroke-linejoin="round"/>
<path d="M213.984 31.9821C212.305 31.4899 210.619 31.0209 208.929 30.5742" stroke="#1A2E35" stroke-miterlimit="10" stroke-linecap="round" stroke-linejoin="round"/>
<path d="M271.526 59.6437C255.245 48.2289 237.626 39.5564 219.313 33.6252" stroke="#1A2E35" stroke-miterlimit="10" stroke-linecap="round" stroke-linejoin="round"/>
<path d="M279.299 65.3835C277.787 64.2087 276.26 63.058 274.722 61.9335" stroke="#1A2E35" stroke-miterlimit="10" stroke-linecap="round" stroke-linejoin="round"/>
<path d="M287.095 71.7631C285.437 70.3349 283.761 68.9386 282.067 67.5733" stroke="#1A2E35" stroke-miterlimit="10" stroke-linecap="round" stroke-linejoin="round"/>
<path d="M297.982 81.8726C295.714 79.6041 293.404 77.4024 291.055 75.2674" stroke="#1A2E35" stroke-miterlimit="10" stroke-linecap="round" stroke-linejoin="round"/>
<path d="M222.366 46.5505C222.366 59.8353 233.136 70.6051 246.42 70.6051C259.706 70.6051 270.476 59.8353 270.476 46.5505C270.476 33.2647 259.706 22.4958 246.42 22.4958C233.136 22.4958 222.366 33.2647 222.366 46.5505Z" fill="#38BFF2"/>
<g opacity="0.300003">
<g opacity="0.300003">
<path opacity="0.300003" d="M222.735 45.9755C222.735 59.2603 233.505 70.0302 246.79 70.0302C260.076 70.0302 270.845 59.2603 270.845 45.9755C270.845 32.6897 260.076 21.9209 246.79 21.9209C233.505 21.9209 222.735 32.6897 222.735 45.9755Z" fill="white"/>
</g>
</g>
<path d="M222.367 46.5505C222.367 59.8353 233.137 70.6051 246.422 70.6051C259.707 70.6051 270.477 59.8353 270.477 46.5505C270.477 33.2647 259.707 22.4958 246.422 22.4958C233.137 22.4958 222.367 33.2647 222.367 46.5505Z" stroke="#1A2E35" stroke-miterlimit="10" stroke-linecap="round" stroke-linejoin="round"/>
<path d="M293.034 114.268H306.912C313.298 114.268 318.475 109.091 318.475 102.705V88.8267C318.475 82.441 313.298 77.264 306.912 77.264H293.034C286.648 77.264 281.471 82.441 281.471 88.8267V102.705C281.471 109.091 286.648 114.268 293.034 114.268Z" fill="#38BFF2"/>
<path d="M293.034 114.268H306.912C313.298 114.268 318.475 109.091 318.475 102.705V88.8267C318.475 82.441 313.298 77.264 306.912 77.264H293.034C286.648 77.264 281.471 82.441 281.471 88.8267V102.705C281.471 109.091 286.648 114.268 293.034 114.268Z" stroke="#1A2E35" stroke-miterlimit="10" stroke-linecap="round" stroke-linejoin="round"/>
<path d="M313.382 96.6609V94.8721L305.984 91.6811V93.615L311.085 95.7665L305.984 97.9179V99.8518L313.382 96.6609Z" fill="white"/>
<path d="M313.382 96.6609V94.8721L305.984 91.6811V93.615L311.085 95.7665L305.984 97.9179V99.8518L313.382 96.6609Z" stroke="#1A2E35" stroke-miterlimit="10" stroke-linecap="round" stroke-linejoin="round"/>
<path d="M297.786 87.3054H295.489L302.161 104.227H304.457L297.786 87.3054Z" fill="white"/>
<path d="M297.786 87.3054H295.489L302.161 104.227H304.457L297.786 87.3054Z" stroke="#1A2E35" stroke-miterlimit="10" stroke-linecap="round" stroke-linejoin="round"/>
<path d="M293.96 97.9177L288.859 95.7662L293.96 93.6148V91.6809L286.563 94.8718V96.6607L293.96 99.8516V97.9177Z" fill="white"/>
<path d="M293.96 97.9177L288.859 95.7662L293.96 93.6148V91.6809L286.563 94.8718V96.6607L293.96 99.8516V97.9177Z" stroke="#1A2E35" stroke-miterlimit="10" stroke-linecap="round" stroke-linejoin="round"/>
<path d="M55.2271 41.1076C55.2271 52.4469 64.4198 61.6396 75.7582 61.6396C87.0985 61.6396 96.2912 52.4469 96.2912 41.1076C96.2912 29.7673 87.0985 20.5755 75.7582 20.5755C64.4198 20.5755 55.2271 29.7673 55.2271 41.1076Z" fill="#38BFF2"/>
<g opacity="0.199997">
<g opacity="0.199997">
<path opacity="0.199997" d="M55.0906 41.5058C55.0906 52.8451 64.2833 62.0378 75.6217 62.0378C86.962 62.0378 96.1547 52.8451 96.1547 41.5058C96.1547 30.1655 86.962 20.9737 75.6217 20.9737C64.2833 20.9737 55.0906 30.1655 55.0906 41.5058Z" fill="black"/>
</g>
</g>
<path d="M55.2276 41.1076C55.2276 52.4469 64.4204 61.6396 75.7587 61.6396C87.099 61.6396 96.2918 52.4469 96.2918 41.1076C96.2918 29.7673 87.099 20.5755 75.7587 20.5755C64.4204 20.5755 55.2276 29.7673 55.2276 41.1076Z" stroke="#1A2E35" stroke-miterlimit="10" stroke-linecap="round" stroke-linejoin="round"/>
<path d="M154.463 45.8525H173.016C180.278 45.8525 186.166 39.9648 186.166 32.7021V14.1504C186.166 6.88766 180.278 0.99995 173.016 0.99995H154.463C147.201 0.99995 141.313 6.88766 141.313 14.1504V32.7021C141.313 39.9648 147.201 45.8525 154.463 45.8525Z" fill="#38BFF2"/>
<path d="M154.463 45.8525H173.016C180.278 45.8525 186.166 39.9648 186.166 32.7021V14.1504C186.166 6.88767 180.278 0.999952 173.016 0.999952H154.463C147.201 0.999952 141.313 6.88767 141.313 14.1504V32.7021C141.313 39.9648 147.201 45.8525 154.463 45.8525Z" stroke="#1A2E35" stroke-miterlimit="10" stroke-linecap="round" stroke-linejoin="round"/>
<path d="M0.999992 84.5317C0.999992 95.8421 10.1676 105.011 21.4789 105.011C32.7892 105.011 41.9568 95.8421 41.9568 84.5317C41.9568 73.2214 32.7892 64.0529 21.4789 64.0529C10.1676 64.0529 0.999992 73.2214 0.999992 84.5317Z" fill="#38BFF2"/>
<g opacity="0.300003">
<g opacity="0.300003">
<path opacity="0.300003" d="M1.53394 84.9454C1.53394 96.2558 10.7015 105.424 22.0128 105.424C33.3231 105.424 42.4907 96.2558 42.4907 84.9454C42.4907 73.6351 33.3231 64.4666 22.0128 64.4666C10.7015 64.4666 1.53394 73.6351 1.53394 84.9454Z" fill="white"/>
</g>
</g>
<path d="M1.00001 84.5316C1.00001 95.8419 10.1676 105.01 21.4789 105.01C32.7892 105.01 41.9568 95.8419 41.9568 84.5316C41.9568 73.2213 32.7892 64.0528 21.4789 64.0528C10.1676 64.0528 1.00001 73.2213 1.00001 84.5316Z" stroke="#1A2E35" stroke-miterlimit="10" stroke-linecap="round" stroke-linejoin="round"/>
<path d="M263.571 320.349H267.155L268.122 177.962H263.571V320.349Z" fill="#868686"/>
<path d="M263.571 320.349H267.155L268.122 177.962H263.571V320.349Z" stroke="#1A2E35" stroke-width="1.33333" stroke-miterlimit="10" stroke-linecap="round" stroke-linejoin="round"/>
<path d="M259.99 320.349H263.573V177.962H259.023L259.99 320.349Z" fill="#9A9A9A"/>
<path d="M259.99 320.349H263.573V177.962H259.023L259.99 320.349Z" stroke="#1A2E35" stroke-width="1.33333" stroke-miterlimit="10" stroke-linecap="round" stroke-linejoin="round"/>
<path d="M58.814 177.962H304.617V169.244H58.814V177.962Z" fill="#1A2E35" stroke="#1A2E35" stroke-width="1.33333" stroke-miterlimit="10" stroke-linecap="round" stroke-linejoin="round"/>
<path d="M7.44307 177.962H62.4805V169.244H7.44307V177.962Z" fill="#868686" stroke="#1A2E35" stroke-width="1.33333" stroke-miterlimit="10" stroke-linecap="round" stroke-linejoin="round"/>
<path d="M47.6595 192.335H292.028V177.962H47.6595V192.335Z" fill="#38BFF2" stroke="#1A2E35" stroke-width="1.33333" stroke-miterlimit="10"/>
<path d="M47.6585 192.335H19.2033V177.962H47.6585V192.335Z" fill="#38BFF2"/>
<g opacity="0.300003">
<path opacity="0.300003" d="M47.6605 192.335H19.2053V177.962H47.6605V192.335Z" fill="black"/>
</g>
<path d="M47.6585 192.335H19.2033V177.962H47.6585V192.335Z" stroke="#1A2E35" stroke-width="1.33333" stroke-miterlimit="10"/>
<path d="M47.6577 320.349H51.2402L52.2071 177.962H47.6577V320.349Z" fill="#868686"/>
<path d="M47.6577 320.349H51.2402L52.2071 177.962H47.6577V320.349Z" stroke="#1A2E35" stroke-width="1.33333" stroke-miterlimit="10" stroke-linecap="round" stroke-linejoin="round"/>
<path d="M44.0754 320.349H47.6589V177.962H43.1085L44.0754 320.349Z" fill="#9A9A9A"/>
<path d="M44.0754 320.349H47.6589V177.962H43.1085L44.0754 320.349Z" stroke="#1A2E35" stroke-width="1.33333" stroke-miterlimit="10" stroke-linecap="round" stroke-linejoin="round"/>
<path d="M292.027 320.349H295.61L296.577 177.962H292.027V320.349Z" fill="#868686"/>
<path d="M292.027 320.349H295.61L296.577 177.962H292.027V320.349Z" stroke="#1A2E35" stroke-width="1.33333" stroke-miterlimit="10" stroke-linecap="round" stroke-linejoin="round"/>
<path d="M288.442 320.349H292.025V177.962H287.475L288.442 320.349Z" fill="#9A9A9A"/>
<path d="M288.442 320.349H292.025V177.962H287.475L288.442 320.349Z" stroke="#1A2E35" stroke-width="1.33333" stroke-miterlimit="10" stroke-linecap="round" stroke-linejoin="round"/>
<path d="M19.2036 320.349H22.7861L23.7531 177.962H19.2036V320.349Z" fill="#868686"/>
<path d="M19.2036 320.349H22.7861L23.7531 177.962H19.2036V320.349Z" stroke="#1A2E35" stroke-width="1.33333" stroke-miterlimit="10" stroke-linecap="round" stroke-linejoin="round"/>
<path d="M15.6196 320.349H19.2031V177.962H14.6526L15.6196 320.349Z" fill="#9A9A9A"/>
<path d="M15.6196 320.349H19.2031V177.962H14.6526L15.6196 320.349Z" stroke="#1A2E35" stroke-width="1.33333" stroke-miterlimit="10" stroke-linecap="round" stroke-linejoin="round"/>
<path d="M145.773 168.278H174.581C175.17 168.278 175.647 167.8 175.647 167.21V164.832L144.705 165.799V167.21C144.705 167.8 145.184 168.278 145.773 168.278Z" fill="#868686"/>
<path d="M145.773 168.278H174.581C175.17 168.278 175.647 167.8 175.647 167.21V164.832L144.705 165.799V167.21C144.705 167.8 145.184 168.278 145.773 168.278Z" stroke="#1A2E35" stroke-width="1.33333" stroke-miterlimit="10" stroke-linecap="round" stroke-linejoin="round"/>
<path d="M178.86 168.278H236.774C237.702 168.278 238.607 167.59 238.89 166.671L251.321 126.31C251.662 125.203 250.974 124.221 249.858 124.221H191.943C191.015 124.221 190.11 124.908 189.827 125.828L177.396 166.188C177.055 167.294 177.743 168.278 178.86 168.278Z" fill="#9A9A9A"/>
<path d="M178.86 168.278H236.774C237.702 168.278 238.607 167.59 238.89 166.671L251.321 126.31C251.662 125.203 250.974 124.221 249.858 124.221H191.943C191.015 124.221 190.11 124.908 189.827 125.828L177.396 166.188C177.055 167.294 177.743 168.278 178.86 168.278Z" stroke="#1A2E35" stroke-width="1.33333" stroke-miterlimit="10" stroke-linecap="round" stroke-linejoin="round"/>
<path d="M174.796 166.188L187.227 125.828C187.511 124.908 188.416 124.221 189.343 124.221H191.945C191.018 124.221 190.113 124.908 189.83 125.828L177.399 166.188C177.057 167.295 177.746 168.277 178.862 168.277H176.26C175.144 168.277 174.455 167.295 174.796 166.188Z" fill="#868686"/>
<path d="M174.796 166.188L187.227 125.828C187.511 124.908 188.416 124.221 189.343 124.221H191.945C191.018 124.221 190.113 124.908 189.83 125.828L177.399 166.188C177.057 167.295 177.746 168.277 178.862 168.277H176.26C175.144 168.277 174.455 167.295 174.796 166.188Z" stroke="#1A2E35" stroke-width="1.33333" stroke-miterlimit="10" stroke-linecap="round" stroke-linejoin="round"/>
<path d="M210.778 146.249C210.535 148.227 211.942 149.831 213.921 149.831C215.899 149.831 217.7 148.227 217.943 146.249C218.186 144.27 216.779 142.666 214.801 142.666C212.822 142.666 211.021 144.27 210.778 146.249Z" fill="white"/>
<path d="M210.778 146.249C210.535 148.227 211.942 149.831 213.921 149.831C215.899 149.831 217.7 148.227 217.943 146.249C218.186 144.27 216.779 142.666 214.801 142.666C212.822 142.666 211.021 144.27 210.778 146.249Z" stroke="#1A2E35" stroke-width="1.33333" stroke-miterlimit="10" stroke-linecap="round" stroke-linejoin="round"/>
<path d="M79.2838 48.1906H79.658C80.4761 48.1906 80.8966 47.8171 80.8966 46.5323V43.0258C80.8966 42.1842 81.2004 41.2964 82.3222 40.9691V40.9229C81.2004 40.5956 80.8966 39.7064 80.8966 38.8655V35.3597C80.8966 34.0742 80.4761 33.7007 79.658 33.7007H79.2838V31.5964H80.5928C82.0412 31.5964 83.1873 32.4145 83.1873 34.1916V38.4913C83.1873 39.5669 83.4904 39.8942 84.6592 39.8942V41.9971C83.4904 41.9971 83.1873 42.3243 83.1873 43.3993V47.7004C83.1873 49.4761 82.0412 50.2942 80.5928 50.2942H79.2838V48.1906Z" fill="white"/>
<path d="M79.0311 48.4366H79.4285C80.2973 48.4366 80.7439 48.0489 80.7439 46.7152V43.0752C80.7439 42.2016 81.0665 41.2799 82.2579 40.9402V40.8922C81.0665 40.5525 80.7439 39.6294 80.7439 38.7565V35.1172C80.7439 33.7828 80.2973 33.395 79.4285 33.395H79.0311V31.2106H80.4213C81.9595 31.2106 83.1767 32.0599 83.1767 33.9046V38.368C83.1767 39.4846 83.4985 39.8243 84.7399 39.8243V42.0073C83.4985 42.0073 83.1767 42.347 83.1767 43.4629V47.9278C83.1767 49.7711 81.9595 50.6204 80.4213 50.6204H79.0311V48.4366Z" stroke="#1A2E35" stroke-miterlimit="10" stroke-linecap="round" stroke-linejoin="round"/>
<path d="M73.0719 48.1906H72.6977C71.8796 48.1906 71.4591 47.8171 71.4591 46.5323V43.0258C71.4591 42.1842 71.1554 41.2964 70.0335 40.9691V40.9229C71.1554 40.5956 71.4591 39.7064 71.4591 38.8655V35.3597C71.4591 34.0742 71.8796 33.7007 72.6977 33.7007H73.0719V31.5964H71.7629C70.3145 31.5964 69.1684 32.4145 69.1684 34.1916V38.4913C69.1684 39.5669 68.8654 39.8942 67.6965 39.8942V41.9971C68.8654 41.9971 69.1684 42.3243 69.1684 43.3993V47.7004C69.1684 49.4761 70.3145 50.2942 71.7629 50.2942H73.0719V48.1906Z" fill="white"/>
<path d="M73.3227 48.4366H72.9253C72.0565 48.4366 71.61 48.0489 71.61 46.7152V43.0752C71.61 42.2016 71.2873 41.2799 70.0959 40.9402V40.8922C71.2873 40.5525 71.61 39.6294 71.61 38.7565V35.1172C71.61 33.7828 72.0565 33.395 72.9253 33.395H73.3227V31.2106H71.9326C70.3943 31.2106 69.1772 32.0599 69.1772 33.9046V38.368C69.1772 39.4846 68.8553 39.8243 67.614 39.8243V42.0073C68.8553 42.0073 69.1772 42.347 69.1772 43.4629V47.9278C69.1772 49.7711 70.3943 50.6204 71.9326 50.6204H73.3227V48.4366Z" stroke="#1A2E35" stroke-miterlimit="10" stroke-linecap="round" stroke-linejoin="round"/>
<mask id="path-192-outside-1_1_3739" maskUnits="userSpaceOnUse" x="156.909" y="17.4938" width="18" height="19" fill="black">
<rect fill="white" x="156.909" y="17.4938" width="18" height="19"/>
<path fill-rule="evenodd" clip-rule="evenodd" d="M168.212 29.949V32.4346C168.212 34.1277 165.286 34.56 163.673 34.56H160.791C159.434 34.4639 157.909 34.0196 157.909 32.4346V28.8084C157.909 26.3547 159.898 24.3655 162.352 24.3655H163.204C166.447 24.3655 169.076 21.7366 169.076 18.4938H171.67C172.378 18.6619 173.795 19.9059 173.795 23.537C173.795 27.5152 169.632 28.8683 165.654 28.8683H163.024V29.7689H168.212V29.949ZM166.41 32.7589C166.728 32.7589 166.986 32.5008 166.986 32.1825C166.986 31.8642 166.728 31.6061 166.41 31.6061C166.092 31.6061 165.834 31.8642 165.834 32.1825C165.834 32.5008 166.092 32.7589 166.41 32.7589Z"/>
</mask>
<path fill-rule="evenodd" clip-rule="evenodd" d="M168.212 29.949V32.4346C168.212 34.1277 165.286 34.56 163.673 34.56H160.791C159.434 34.4639 157.909 34.0196 157.909 32.4346V28.8084C157.909 26.3547 159.898 24.3655 162.352 24.3655H163.204C166.447 24.3655 169.076 21.7366 169.076 18.4938H171.67C172.378 18.6619 173.795 19.9059 173.795 23.537C173.795 27.5152 169.632 28.8683 165.654 28.8683H163.024V29.7689H168.212V29.949ZM166.41 32.7589C166.728 32.7589 166.986 32.5008 166.986 32.1825C166.986 31.8642 166.728 31.6061 166.41 31.6061C166.092 31.6061 165.834 31.8642 165.834 32.1825C165.834 32.5008 166.092 32.7589 166.41 32.7589Z" fill="white"/>
<path d="M160.791 34.56L160.72 35.5575L160.755 35.56H160.791V34.56ZM169.076 18.4938V17.4938H168.076V18.4938H169.076ZM171.67 18.4938L171.901 17.5208L171.787 17.4938H171.67V18.4938ZM163.024 28.8683V27.8683H162.024V28.8683H163.024ZM163.024 29.7689H162.024V30.7689H163.024V29.7689ZM168.212 29.7689H169.212V28.7689H168.212V29.7689ZM169.212 32.4346V29.949H167.212V32.4346H169.212ZM163.673 35.56C164.542 35.56 165.797 35.4464 166.871 35.0782C167.855 34.741 169.212 33.9896 169.212 32.4346H167.212C167.212 32.5727 167.105 32.8839 166.223 33.1862C165.432 33.4574 164.417 33.56 163.673 33.56V35.56ZM160.791 35.56H163.673V33.56H160.791V35.56ZM156.909 32.4346C156.909 33.6298 157.522 34.4441 158.337 34.9195C159.086 35.356 159.989 35.5057 160.72 35.5575L160.861 33.5625C160.236 33.5182 159.698 33.3977 159.345 33.1918C159.058 33.0247 158.909 32.8244 158.909 32.4346H156.909ZM156.909 28.8084V32.4346H158.909V28.8084H156.909ZM162.352 23.3655C159.346 23.3655 156.909 25.8024 156.909 28.8084H158.909C158.909 26.907 160.45 25.3655 162.352 25.3655V23.3655ZM163.204 23.3655H162.352V25.3655H163.204V23.3655ZM168.076 18.4938C168.076 21.1844 165.895 23.3655 163.204 23.3655V25.3655C167 25.3655 170.076 22.2889 170.076 18.4938H168.076ZM171.67 17.4938H169.076V19.4938H171.67V17.4938ZM174.795 23.537C174.795 19.7324 173.291 17.8508 171.901 17.5208L171.439 19.4668C171.432 19.465 171.515 19.4867 171.654 19.605C171.787 19.7179 171.958 19.9074 172.127 20.2076C172.465 20.8077 172.795 21.8467 172.795 23.537H174.795ZM165.654 29.8683C167.731 29.8683 169.953 29.5192 171.694 28.5732C173.488 27.5982 174.795 25.9616 174.795 23.537H172.795C172.795 25.0906 172.02 26.1197 170.739 26.8158C169.404 27.5409 167.556 27.8683 165.654 27.8683V29.8683ZM163.024 29.8683H165.654V27.8683H163.024V29.8683ZM164.024 29.7689V28.8683H162.024V29.7689H164.024ZM168.212 28.7689H163.024V30.7689H168.212V28.7689ZM169.212 29.949V29.7689H167.212V29.949H169.212ZM165.986 32.1825C165.986 31.9485 166.176 31.7589 166.41 31.7589V33.7589C167.281 33.7589 167.986 33.0531 167.986 32.1825H165.986ZM166.41 32.6061C166.176 32.6061 165.986 32.4165 165.986 32.1825H167.986C167.986 31.3119 167.281 30.6061 166.41 30.6061V32.6061ZM166.834 32.1825C166.834 32.4165 166.644 32.6061 166.41 32.6061V30.6061C165.539 30.6061 164.834 31.3119 164.834 32.1825H166.834ZM166.41 31.7589C166.644 31.7589 166.834 31.9485 166.834 32.1825H164.834C164.834 33.0531 165.539 33.7589 166.41 33.7589V31.7589Z" fill="#1A2E35" mask="url(#path-192-outside-1_1_3739)"/>
<mask id="path-194-outside-2_1_3739" maskUnits="userSpaceOnUse" x="151.067" y="11.0846" width="18" height="19" fill="black">
<rect fill="white" x="151.067" y="11.0846" width="18" height="19"/>
<path fill-rule="evenodd" clip-rule="evenodd" d="M157.765 17.6293L157.765 15.1438C157.765 13.4507 160.69 13.0184 162.304 13.0184L165.185 13.0184C166.542 13.1145 168.067 13.5588 168.067 15.1438L168.067 18.77C168.067 21.2237 166.078 23.2129 163.624 23.2129L162.772 23.2129C159.529 23.2129 156.9 25.8417 156.9 29.0846L154.307 29.0846C153.598 28.9165 152.181 27.6725 152.181 24.0414C152.181 20.0631 156.344 18.71 160.322 18.71L162.952 18.71L162.952 17.8094L157.765 17.8094L157.765 17.6293ZM159.566 14.8196C159.248 14.8196 158.99 15.0776 158.99 15.396C158.99 15.7143 159.248 15.9723 159.566 15.9723C159.885 15.9723 160.143 15.7143 160.143 15.396C160.143 15.0776 159.885 14.8196 159.566 14.8196Z"/>
</mask>
<path fill-rule="evenodd" clip-rule="evenodd" d="M157.765 17.6293L157.765 15.1438C157.765 13.4507 160.69 13.0184 162.304 13.0184L165.185 13.0184C166.542 13.1145 168.067 13.5588 168.067 15.1438L168.067 18.77C168.067 21.2237 166.078 23.2129 163.624 23.2129L162.772 23.2129C159.529 23.2129 156.9 25.8417 156.9 29.0846L154.307 29.0846C153.598 28.9165 152.181 27.6725 152.181 24.0414C152.181 20.0631 156.344 18.71 160.322 18.71L162.952 18.71L162.952 17.8094L157.765 17.8094L157.765 17.6293ZM159.566 14.8196C159.248 14.8196 158.99 15.0776 158.99 15.396C158.99 15.7143 159.248 15.9723 159.566 15.9723C159.885 15.9723 160.143 15.7143 160.143 15.396C160.143 15.0776 159.885 14.8196 159.566 14.8196Z" fill="white"/>
<path d="M165.185 13.0184L165.256 12.0209L165.221 12.0184L165.185 12.0184L165.185 13.0184ZM163.624 23.2129L163.624 22.2129L163.624 23.2129ZM162.772 23.2129L162.772 24.2129L162.772 23.2129ZM156.9 29.0846L156.9 30.0846L157.9 30.0846L157.9 29.0846L156.9 29.0846ZM154.307 29.0846L154.076 30.0576L154.19 30.0846L154.307 30.0846L154.307 29.0846ZM162.952 18.71L162.952 19.71L163.952 19.71L163.952 18.71L162.952 18.71ZM162.952 17.8094L163.952 17.8094L163.952 16.8094L162.952 16.8094L162.952 17.8094ZM157.765 17.8094L156.765 17.8094L156.765 18.8094L157.765 18.8094L157.765 17.8094ZM156.765 15.1438L156.765 17.6293L158.765 17.6293L158.765 15.1438L156.765 15.1438ZM162.304 12.0184C161.434 12.0184 160.179 12.132 159.105 12.5002C158.121 12.8373 156.765 13.5888 156.765 15.1438L158.765 15.1438C158.765 15.0056 158.871 14.6944 159.753 14.3922C160.545 14.121 161.559 14.0184 162.304 14.0184L162.304 12.0184ZM165.185 12.0184L162.304 12.0184L162.304 14.0184L165.185 14.0184L165.185 12.0184ZM169.067 15.1438C169.067 13.9485 168.454 13.1343 167.639 12.6589C166.89 12.2224 165.987 12.0727 165.256 12.0209L165.115 14.0159C165.74 14.0602 166.278 14.1807 166.631 14.3866C166.918 14.5536 167.067 14.754 167.067 15.1438L169.067 15.1438ZM169.067 18.77L169.067 15.1438L167.067 15.1438L167.067 18.77L169.067 18.77ZM163.624 24.2129C166.63 24.2129 169.067 21.7759 169.067 18.77L167.067 18.77C167.067 20.6714 165.526 22.2129 163.624 22.2129L163.624 24.2129ZM162.772 24.2129L163.624 24.2129L163.624 22.2129L162.772 22.2129L162.772 24.2129ZM157.9 29.0846C157.9 26.394 160.081 24.2129 162.772 24.2129L162.772 22.2129C158.977 22.2129 155.9 25.2894 155.9 29.0846L157.9 29.0846ZM154.307 30.0846L156.9 30.0846L156.9 28.0846L154.307 28.0846L154.307 30.0846ZM151.181 24.0414C151.181 27.846 152.685 29.7276 154.076 30.0576L154.537 28.1116C154.545 28.1133 154.462 28.0916 154.322 27.9734C154.189 27.8605 154.019 27.6709 153.849 27.3708C153.511 26.7707 153.181 25.7317 153.181 24.0414L151.181 24.0414ZM160.322 17.71C158.246 17.71 156.024 18.0592 154.282 19.0052C152.488 19.9801 151.181 21.6168 151.181 24.0414L153.181 24.0414C153.181 22.4878 153.956 21.4587 155.237 20.7626C156.572 20.0374 158.42 19.71 160.322 19.71L160.322 17.71ZM162.952 17.71L160.322 17.71L160.322 19.71L162.952 19.71L162.952 17.71ZM161.952 17.8094L161.952 18.71L163.952 18.71L163.952 17.8094L161.952 17.8094ZM157.765 18.8094L162.952 18.8094L162.952 16.8094L157.765 16.8094L157.765 18.8094ZM156.765 17.6293L156.765 17.8094L158.765 17.8094L158.765 17.6293L156.765 17.6293ZM159.99 15.396C159.99 15.6299 159.8 15.8196 159.566 15.8196L159.566 13.8196C158.696 13.8196 157.99 14.5254 157.99 15.396L159.99 15.396ZM159.566 14.9723C159.8 14.9723 159.99 15.162 159.99 15.396L157.99 15.396C157.99 16.2666 158.696 16.9723 159.566 16.9723L159.566 14.9723ZM159.143 15.396C159.143 15.162 159.332 14.9723 159.566 14.9723L159.566 16.9723C160.437 16.9723 161.143 16.2666 161.143 15.396L159.143 15.396ZM159.566 15.8196C159.332 15.8196 159.143 15.6299 159.143 15.396L161.143 15.396C161.143 14.5254 160.437 13.8196 159.566 13.8196L159.566 15.8196Z" fill="#1A2E35" mask="url(#path-194-outside-2_1_3739)"/>
<rect x="13.4506" y="75.2389" width="16.9845" height="4.42525" rx="1.5" fill="white" stroke="#1A2E35"/>
<rect x="13.4508" y="82.0895" width="16.9845" height="5.567" rx="1.5" fill="white" stroke="#1A2E35"/>
<rect x="13.4508" y="90.0818" width="16.9845" height="4.42525" rx="1.5" fill="white" stroke="#1A2E35"/>
<path d="M242.309 38.0869L238.725 41.6787L234.891 45.5211L234.84 45.7581L234.84 45.7581C234.764 46.1076 234.826 46.4068 235.051 46.7138C235.051 46.713 235.051 46.7133 235.052 46.7148C235.056 46.719 235.067 46.7323 235.09 46.7583C235.118 46.7903 235.157 46.8326 235.206 46.8855C235.305 46.9909 235.439 47.132 235.606 47.3043C235.94 47.6487 236.396 48.1124 236.934 48.6555C238.01 49.7412 239.412 51.1401 240.811 52.5274C242.21 53.9147 243.606 55.2894 244.671 56.3268C245.204 56.8457 245.653 57.2791 245.977 57.587C246.14 57.7413 246.269 57.8622 246.362 57.9461C246.406 57.9864 246.439 58.0157 246.462 58.0352C246.549 58.072 246.678 58.1027 246.835 58.1107C246.995 58.1188 247.152 58.1017 247.28 58.0653C247.285 58.062 247.291 58.0578 247.298 58.0527C247.341 58.0203 247.407 57.9661 247.505 57.8798C247.699 57.708 247.992 57.4328 248.431 57.0076C249.308 56.1586 250.744 54.7331 253.091 52.3916C255.28 50.2072 256.713 48.7677 257.611 47.8463C258.061 47.3851 258.373 47.0574 258.578 46.8325C258.681 46.7196 258.753 46.6371 258.801 46.579C258.825 46.5489 258.838 46.5311 258.844 46.5233C258.958 46.2558 258.953 45.8695 258.843 45.6234C258.842 45.6221 258.841 45.6206 258.84 45.6192C258.819 45.594 258.787 45.5571 258.743 45.5074C258.654 45.4086 258.527 45.2718 258.366 45.1009C258.044 44.7598 257.592 44.2923 257.052 43.7399C255.974 42.6358 254.55 41.1985 253.12 39.7679C251.69 38.3373 250.256 36.9148 249.157 35.8401C248.607 35.3025 248.143 34.8534 247.806 34.5343C247.636 34.3743 247.502 34.2495 247.405 34.1632C247.361 34.1235 247.327 34.0947 247.304 34.0753C247.213 34.0414 247.078 34.0115 246.922 33.9996C246.744 33.9859 246.586 33.9992 246.487 34.026C246.482 34.028 246.416 34.0567 246.214 34.2333C245.994 34.4253 245.664 34.7435 245.128 35.2754C245.128 35.2754 245.128 35.2754 245.128 35.2754L244.169 36.227L245.248 37.3084L246.492 38.5541L246.547 38.5428C247.354 38.3774 248.13 38.7151 248.649 39.2407C249.168 39.7665 249.496 40.5468 249.325 41.353L249.309 41.4277L250.473 42.5976L251.666 43.7962L251.934 43.7764C251.934 43.7764 251.934 43.7764 251.934 43.7764C252.455 43.7378 252.941 43.8238 253.364 44.0597C253.787 44.2962 254.111 44.6632 254.338 45.1256C254.511 45.4762 254.613 45.8244 254.613 46.1933C254.612 46.5621 254.51 46.9105 254.337 47.2616C253.445 49.0744 250.903 49.0859 250.009 47.2699L250.009 47.2699C249.92 47.0871 249.849 46.923 249.805 46.746L242.309 38.0869ZM242.309 38.0869L243.37 39.1472L243.37 39.1472C243.867 39.6437 244.21 39.9971 244.424 40.2325C244.481 40.2956 244.526 40.3471 244.561 40.3885C244.556 40.4161 244.553 40.4423 244.549 40.4664C244.534 40.5833 244.526 40.7144 244.522 40.843C244.516 41.0815 244.525 41.3852 244.581 41.5919L242.309 38.0869ZM249.853 45.4451L249.853 45.4448L249.853 45.4451ZM249.853 45.4451C249.853 45.4454 249.853 45.4457 249.852 45.4461L249.853 45.4451ZM244.741 52.4573L244.741 52.4572C244.227 51.3718 244.582 50.0362 245.597 49.405L245.689 49.3476V46.1936V43.0334L245.594 42.9716C245.133 42.6731 244.723 42.1184 244.581 41.592L244.741 52.4573ZM244.741 52.4573C245.162 53.3484 245.957 53.8522 246.944 53.8545C247.15 53.855 247.332 53.8489 247.522 53.8006C247.71 53.7527 247.876 53.6706 248.062 53.5708L247.826 53.1301M244.741 52.4573L247.826 53.1301M247.826 53.1301L248.062 53.5708C249.61 52.7411 249.819 50.7291 248.489 49.5835C248.489 49.5835 248.489 49.5835 248.489 49.5835L248.333 49.4488L248.332 46.2916V44.1118M247.826 53.1301L248.332 44.1118M248.332 44.1118L248.755 44.5345C249.366 45.1448 249.663 45.4453 249.805 45.6142C249.791 45.6837 249.781 45.7531 249.774 45.8106C249.76 45.934 249.751 46.0752 249.75 46.2083L248.332 44.1118ZM249.211 41.3287V41.3287ZM258.858 45.6419C258.857 45.6418 258.857 45.6412 258.856 45.64C258.857 45.6414 258.858 45.642 258.858 45.6419Z" fill="white" stroke="#1A2E35"/>
</svg>
