<svg width="377" height="321" viewBox="0 0 377 321" fill="none" xmlns="http://www.w3.org/2000/svg">
<path d="M318.841 99.2185C322.848 98.2832 326.402 96.1758 329.122 93.2721L335.696 95.4951L338.976 89.8145L333.767 85.2379C334.34 83.3571 334.644 81.3653 334.644 79.2961C334.644 77.2326 334.34 75.2361 333.767 73.36L338.976 68.7778L335.696 63.0972L329.122 65.3202C326.402 62.4174 322.848 60.31 318.841 59.3784L317.475 52.5788H314.197" stroke="#1A2E35" stroke-width="1.33333" stroke-miterlimit="10"/>
<path d="M310.916 52.5786L309.556 59.3782C305.548 60.3098 301.99 62.4162 299.27 65.32L292.697 63.0969L289.416 68.7776L294.625 73.3588C294.056 75.235 293.748 77.2314 293.748 79.2959C293.748 81.3651 294.056 83.3559 294.625 85.2367L289.416 89.8142L292.697 95.4949L299.27 93.2719C301.99 96.1747 305.548 98.2821 309.556 99.2183L310.916 106.018H317.474L318.84 99.2183" stroke="#1A2E35" stroke-width="1.33333" stroke-miterlimit="10"/>
<path d="M313.78 90.2354C302.087 89.4176 299.89 72.3924 311.579 69.402" stroke="#1A2E35" stroke-width="1.33333" stroke-miterlimit="10"/>
<path d="M321.173 71.7436C326.992 77.0755 325.15 87.4801 317.395 89.83" stroke="#1A2E35" stroke-width="1.33333" stroke-miterlimit="10"/>
<path d="M315.528 69.1588C316.543 69.2857 317.538 69.5579 318.472 69.9738" stroke="#1A2E35" stroke-width="1.33333" stroke-miterlimit="10"/>
<path d="M353.675 104.395L355.055 102.739C357.581 103.434 360.304 103.394 362.876 102.542L365.977 105.892" stroke="#1A2E35" stroke-width="1.33333" stroke-miterlimit="10"/>
<path d="M348.579 78.5391L349.179 80.1709C347.248 82.0713 345.974 84.478 345.445 87.0433L340.989 88.055L341.1 92.3724L345.601 93.1547C345.925 94.4033 346.439 95.6314 347.149 96.7895C347.86 97.9514 348.717 98.964 349.684 99.8247L348.332 104.185L352.127 106.248" stroke="#1A2E35" stroke-width="1.33333" stroke-miterlimit="10"/>
<path d="M365.976 105.893L369.659 103.638L368.088 99.3505C370.017 97.4473 371.288 95.0425 371.817 92.4772L376.273 91.4655L376.161 87.1481L371.663 86.3686C371.339 85.1153 370.824 83.8919 370.114 82.731C369.404 81.571 368.547 80.5546 367.58 79.6986L368.929 75.3355L365.135 73.2729L362.208 76.7808C359.682 76.0862 356.962 76.1244 354.391 76.9795L351.288 73.63L347.604 75.8847" stroke="#1A2E35" stroke-width="1.33333" stroke-miterlimit="10"/>
<path d="M365.43 88.1724C366.703 93.5313 361.616 98.6879 356.236 96.5115C351.106 94.4367 350.36 86.9135 355.119 84.0219" stroke="#1A2E35" stroke-width="1.33333" stroke-miterlimit="10"/>
<path d="M361.028 83.3658C362.101 83.7314 363.083 84.3496 363.855 85.1832" stroke="#1A2E35" stroke-width="1.33333" stroke-miterlimit="10"/>
<path d="M65.4913 194.206L72.4942 201.21C71.9226 203.669 72.5875 206.36 74.5056 208.278C76.4237 210.195 79.112 210.86 81.5728 210.288L77.1743 205.889L78.366 201.44L82.8158 200.247L87.2143 204.646C87.7869 202.186 87.122 199.496 85.2048 197.578C83.2858 195.66 80.5965 194.995 78.1366 195.568L71.6867 189.118" stroke="#1A2E35" stroke-width="1.33333" stroke-miterlimit="10"/>
<path d="M61.438 178.87L55.0104 172.441C55.582 169.981 54.9172 167.292 53 165.373C51.0819 163.456 48.3926 162.792 45.9318 163.364L50.3303 167.763L49.1386 172.212L44.6888 173.404L40.2894 169.005C39.7187 171.466 40.3826 174.155 42.3007 176.073C44.2189 177.991 46.9081 178.656 49.3689 178.084L55.7965 184.512" stroke="#1A2E35" stroke-width="1.33333" stroke-miterlimit="10"/>
<path d="M68.6546 185.632L77.6176 176.669C78.0577 176.228 78.5631 175.859 79.117 175.573L80.9214 174.64L87.4123 167.222L83.3551 163.165L75.9373 169.656L75.0048 171.461C74.7185 172.014 74.3493 172.519 73.9082 172.96L66.7999 180.068" stroke="#1A2E35" stroke-width="1.33333" stroke-miterlimit="10"/>
<path d="M44.8028 209.139C46.1139 209.832 47.4622 209.838 48.6996 208.601L64.231 193.07C65.0926 192.208 65.3453 191.292 65.1886 190.373L67.8816 187.68L68.0457 187.844C68.4336 188.231 69.0687 188.232 69.4556 187.844C69.8435 187.457 69.8435 186.822 69.4556 186.434L64.1433 181.121C63.7563 180.733 63.1213 180.733 62.7334 181.121C62.3455 181.509 62.3455 182.144 62.7334 182.532L62.8975 182.696L60.2055 185.389C59.2851 185.233 58.3694 185.485 57.5078 186.348L41.9765 201.879C41.1606 202.695 40.8855 203.56 40.9918 204.43" stroke="#1A2E35" stroke-width="1.33333" stroke-miterlimit="10"/>
<path d="M41.6119 206.078C41.9439 206.622 42.3887 207.158 42.9043 207.674C43.5161 208.285 44.1557 208.796 44.8029 209.139" stroke="#1A2E35" stroke-width="1.33333" stroke-miterlimit="10"/>
<path d="M46.3912 204.43L49.1019 201.719" stroke="#1A2E35" stroke-width="1.33333" stroke-miterlimit="10"/>
<path d="M52.7687 198.051L64.2344 186.341" stroke="#1A2E35" stroke-width="1.33333" stroke-miterlimit="10"/>
<path d="M303.03 0.000289917H54.4277V161.509H303.03V0.000289917Z" fill="white"/>
<path d="M303.03 4.57764e-05H54.4277V161.509H80.7114H122.385H303.03V4.57764e-05Z" fill="#C0C0C0"/>
<path d="M54.4277 21.1289H303.03V-7.24792e-05H54.4277V21.1289Z" fill="white"/>
<path d="M54.4277 21.1289H303.03V-7.24792e-05H54.4277V21.1289Z" fill="#767676"/>
<path d="M295.409 17.7633H285.89C284.543 17.7633 283.45 16.6714 283.45 15.3239V5.80522C283.45 4.45779 284.543 3.36586 285.89 3.36586H295.409C296.756 3.36586 297.848 4.45779 297.848 5.80522V15.3239C297.848 16.6714 296.756 17.7633 295.409 17.7633Z" fill="white"/>
<path d="M277.742 17.7633H268.27C266.911 17.7633 265.807 16.6602 265.807 15.2997V5.82854C265.807 4.46805 266.911 3.36586 268.27 3.36586H277.742C279.103 3.36586 280.206 4.46805 280.206 5.82854V15.2997C280.206 16.6602 279.103 17.7633 277.742 17.7633Z" fill="white"/>
<path d="M260.12 17.7633H250.603C249.256 17.7633 248.163 16.6714 248.163 15.323V5.80616C248.163 4.45779 249.256 3.36586 250.603 3.36586H260.12C261.467 3.36586 262.56 4.45779 262.56 5.80616V15.323C262.56 16.6714 261.467 17.7633 260.12 17.7633Z" fill="white"/>
<path d="M63.7504 35.3179V147.321C63.7504 150.007 65.9277 152.184 68.6132 152.184H288.839C291.525 152.184 293.703 150.007 293.703 147.321V35.3179C293.703 32.6324 291.525 30.4541 288.839 30.4541H68.6132C65.9277 30.4541 63.7504 32.6324 63.7504 35.3179Z" fill="#1A2E35"/>
<path d="M63.7504 35.3179V147.321C63.7504 150.007 65.9277 152.184 68.6132 152.184H288.839C291.525 152.184 293.703 150.007 293.703 147.321V35.3179C293.703 32.6324 291.525 30.4541 288.839 30.4541H68.6132C65.9277 30.4541 63.7504 32.6324 63.7504 35.3179Z" stroke="#1A2E35" stroke-width="1.33333" stroke-miterlimit="10" stroke-linecap="round" stroke-linejoin="round"/>
<path d="M287.561 13.6526L293.738 7.47586" stroke="#1A2E35" stroke-width="1.33333" stroke-miterlimit="10" stroke-linecap="round" stroke-linejoin="round"/>
<path d="M287.561 7.47586L293.738 13.6526" stroke="#1A2E35" stroke-width="1.33333" stroke-miterlimit="10" stroke-linecap="round" stroke-linejoin="round"/>
<path d="M277.123 14.6821H268.887V9.24393H277.123V14.6821Z" stroke="#1A2E35" stroke-width="1.33333" stroke-miterlimit="10" stroke-linecap="round" stroke-linejoin="round"/>
<path d="M259.479 14.6829H251.243" stroke="#1A2E35" stroke-width="1.33333" stroke-miterlimit="10" stroke-linecap="round" stroke-linejoin="round"/>
<path d="M279.241 113.204H262.899C261.869 113.204 261.034 112.368 261.034 111.339C261.034 110.309 261.869 109.474 262.899 109.474H279.241C280.27 109.474 281.106 110.309 281.106 111.339C281.106 112.368 280.27 113.204 279.241 113.204Z" fill="#767676"/>
<path d="M279.241 126.103H233.615C232.586 126.103 231.75 125.267 231.75 124.238C231.75 123.209 232.586 122.373 233.615 122.373H279.241C280.271 122.373 281.106 123.209 281.106 124.238C281.106 125.267 280.271 126.103 279.241 126.103Z" fill="#767676"/>
<path d="M279.24 139.002H178.727C177.697 139.002 176.862 138.167 176.862 137.137C176.862 136.108 177.697 135.272 178.727 135.272H279.24C280.269 135.272 281.105 136.108 281.105 137.137C281.105 138.167 280.269 139.002 279.24 139.002Z" fill="#767676"/>
<path d="M80.9999 100.304H73.3872C72.3568 100.304 71.5222 99.4688 71.5222 98.4394C71.5222 97.4099 72.3568 96.5744 73.3872 96.5744H80.9999C82.0294 96.5744 82.8649 97.4099 82.8649 98.4394C82.8649 99.4688 82.0294 100.304 80.9999 100.304Z" fill="#C0C0C0"/>
<path d="M80.9999 113.204H73.3872C72.3568 113.204 71.5222 112.368 71.5222 111.339C71.5222 110.309 72.3568 109.474 73.3872 109.474H80.9999C82.0294 109.474 82.8649 110.309 82.8649 111.339C82.8649 112.368 82.0294 113.204 80.9999 113.204Z" fill="#C0C0C0"/>
<path d="M80.9999 126.103H73.3872C72.3568 126.103 71.5222 125.267 71.5222 124.238C71.5222 123.209 72.3568 122.373 73.3872 122.373H80.9999C82.0294 122.373 82.8649 123.209 82.8649 124.238C82.8649 125.267 82.0294 126.103 80.9999 126.103Z" fill="#C0C0C0"/>
<path d="M80.9999 139.002H73.3872C72.3568 139.002 71.5222 138.167 71.5222 137.137C71.5222 136.108 72.3568 135.273 73.3872 135.273H80.9999C82.0294 135.273 82.8649 136.108 82.8649 137.137C82.8649 138.167 82.0294 139.002 80.9999 139.002Z" fill="#C0C0C0"/>
<g opacity="0.699997">
<g opacity="0.699997">
<path opacity="0.699997" d="M81.0009 100.304H73.3881C72.3578 100.304 71.5232 99.4682 71.5232 98.4388C71.5232 97.4093 72.3578 96.5738 73.3881 96.5738H81.0009C82.0303 96.5738 82.8658 97.4093 82.8658 98.4388C82.8658 99.4682 82.0303 100.304 81.0009 100.304Z" fill="#C0C0C0"/>
</g>
</g>
<g opacity="0.699997">
<g opacity="0.699997">
<path opacity="0.699997" d="M81.0009 113.204H73.3881C72.3578 113.204 71.5232 112.369 71.5232 111.339C71.5232 110.31 72.3578 109.474 73.3881 109.474H81.0009C82.0303 109.474 82.8658 110.31 82.8658 111.339C82.8658 112.369 82.0303 113.204 81.0009 113.204Z" fill="#C0C0C0"/>
</g>
</g>
<g opacity="0.699997">
<g opacity="0.699997">
<path opacity="0.699997" d="M81.0009 126.103H73.3881C72.3578 126.103 71.5232 125.267 71.5232 124.238C71.5232 123.209 72.3578 122.373 73.3881 122.373H81.0009C82.0303 122.373 82.8658 123.209 82.8658 124.238C82.8658 125.267 82.0303 126.103 81.0009 126.103Z" fill="#C0C0C0"/>
</g>
</g>
<g opacity="0.699997">
<g opacity="0.699997">
<path opacity="0.699997" d="M81.0009 139.002H73.3881C72.3578 139.002 71.5232 138.167 71.5232 137.137C71.5232 136.108 72.3578 135.273 73.3881 135.273H81.0009C82.0303 135.273 82.8658 136.108 82.8658 137.137C82.8658 138.167 82.0303 139.002 81.0009 139.002Z" fill="#C0C0C0"/>
</g>
</g>
<path d="M233.616 87.4055H73.3872C72.3577 87.4055 71.5222 86.57 71.5222 85.5405C71.5222 84.511 72.3577 83.6755 73.3872 83.6755H233.616C234.645 83.6755 235.481 84.511 235.481 85.5405C235.481 86.57 234.645 87.4055 233.616 87.4055Z" fill="#C0C0C0"/>
<path d="M279.241 61.6068H262.899C261.869 61.6068 261.034 60.7713 261.034 59.7418C261.034 58.7123 261.869 57.8768 262.899 57.8768H279.241C280.27 57.8768 281.106 58.7123 281.106 59.7418C281.106 60.7713 280.27 61.6068 279.241 61.6068Z" fill="#C0C0C0"/>
<path d="M256.059 61.6068H240.452C239.421 61.6068 238.587 60.7713 238.587 59.7418C238.587 58.7123 239.421 57.8768 240.452 57.8768H256.059C257.088 57.8768 257.924 58.7123 257.924 59.7418C257.924 60.7713 257.088 61.6068 256.059 61.6068Z" fill="#C0C0C0"/>
<path d="M233.616 61.6068H73.3872C72.3577 61.6068 71.5222 60.7713 71.5222 59.7418C71.5222 58.7123 72.3577 57.8768 73.3872 57.8768H233.616C234.645 57.8768 235.481 58.7123 235.481 59.7418C235.481 60.7713 234.645 61.6068 233.616 61.6068Z" fill="#C0C0C0"/>
<path d="M279.241 100.304H262.899C261.869 100.304 261.034 99.4688 261.034 98.4394C261.034 97.4099 261.869 96.5744 262.899 96.5744H279.241C280.271 96.5744 281.106 97.4099 281.106 98.4394C281.106 99.4688 280.271 100.304 279.241 100.304Z" fill="#BBBBBB"/>
<path d="M256.061 100.304H89.3919C88.3625 100.304 87.527 99.4688 87.527 98.4394C87.527 97.4099 88.3625 96.5744 89.3919 96.5744H256.061C257.09 96.5744 257.926 97.4099 257.926 98.4394C257.926 99.4688 257.09 100.304 256.061 100.304Z" fill="#BBBBBB"/>
<path d="M137.261 113.204H89.3939C88.3635 113.204 87.5289 112.368 87.5289 111.339C87.5289 110.309 88.3635 109.474 89.3939 109.474H137.261C138.29 109.474 139.126 110.309 139.126 111.339C139.126 112.368 138.29 113.204 137.261 113.204Z" fill="#BBBBBB"/>
<path d="M137.259 126.103H89.3919C88.3615 126.103 87.527 125.267 87.527 124.238C87.527 123.209 88.3615 122.373 89.3919 122.373H137.259C138.288 122.373 139.124 123.209 139.124 124.238C139.124 125.267 138.288 126.103 137.259 126.103Z" fill="#BBBBBB"/>
<path d="M137.259 139.002H89.3919C88.3615 139.002 87.527 138.167 87.527 137.137C87.527 136.108 88.3615 135.273 89.3919 135.273H137.259C138.288 135.273 139.124 136.108 139.124 137.137C139.124 138.167 138.288 139.002 137.259 139.002Z" fill="#BBBBBB"/>
<path d="M105.826 304.435C105.826 304.435 100.934 312.852 102.86 313.157C104.786 313.46 108.816 306.183 108.816 306.183L119.865 303.254L111.543 302.395L105.826 304.435Z" fill="white"/>
<path d="M105.826 304.435C105.826 304.435 100.934 312.852 102.86 313.157C104.786 313.46 108.816 306.183 108.816 306.183L119.865 303.254L111.543 302.395L105.826 304.435Z" stroke="#1A2E35" stroke-width="1.33333" stroke-miterlimit="10" stroke-linecap="round" stroke-linejoin="round"/>
<g opacity="0.300003">
<g opacity="0.300003">
<path opacity="0.300003" d="M105.825 304.436C105.825 304.436 100.933 312.853 102.859 313.158C104.785 313.461 108.815 306.184 108.815 306.184L119.864 303.255L111.542 302.396L105.825 304.436Z" fill="black"/>
</g>
<g opacity="0.300003">
<path opacity="0.300003" d="M105.825 304.436C105.825 304.436 100.933 312.853 102.859 313.158C104.785 313.461 108.815 306.184 108.815 306.184L119.864 303.255L111.542 302.396L105.825 304.436Z" stroke="#1A2E35" stroke-width="1.33333" stroke-miterlimit="10" stroke-linecap="round" stroke-linejoin="round"/>
</g>
</g>
<path d="M109.545 298.696C109.545 298.696 102.704 297.068 100.816 300.28C98.9268 303.494 93.3889 313.003 95.4655 314.092C97.5412 315.181 99.3502 311.665 99.3502 311.665L109.545 298.696Z" fill="white"/>
<path d="M109.545 298.696C109.545 298.696 102.704 297.068 100.816 300.28C98.9268 303.494 93.3889 313.003 95.4655 314.092C97.5412 315.181 99.3502 311.665 99.3502 311.665L109.545 298.696Z" stroke="#1A2E35" stroke-width="1.33333" stroke-miterlimit="10" stroke-linecap="round" stroke-linejoin="round"/>
<path d="M137.54 308.447C137.54 308.447 130.674 311.042 123.513 309.921L115.725 312.508C115.725 312.508 108.882 315.879 105.698 314.179C102.515 312.48 113.812 308.733 113.812 308.733C113.812 308.733 121.41 305.445 119.141 304.656C116.871 303.865 108.3 304.014 106.614 305.307C104.928 306.599 100.513 314.969 97.3265 314.492C94.1402 314.015 98.673 309.457 99.8171 307.702C100.962 305.946 103.53 298.95 108.735 298.659C113.941 298.367 131.457 299.264 131.457 299.264L152.054 297.064L156.915 308.78L137.54 308.447Z" fill="white"/>
<path d="M137.54 308.447C137.54 308.447 130.674 311.042 123.513 309.921L115.725 312.508C115.725 312.508 108.882 315.879 105.698 314.179C102.515 312.48 113.812 308.733 113.812 308.733C113.812 308.733 121.41 305.445 119.141 304.656C116.871 303.865 108.3 304.014 106.614 305.307C104.928 306.599 100.513 314.969 97.3265 314.492C94.1402 314.015 98.673 309.457 99.8171 307.702C100.962 305.946 103.53 298.95 108.735 298.659C113.941 298.367 131.457 299.264 131.457 299.264L152.054 297.064L156.915 308.78L137.54 308.447Z" stroke="#1A2E35" stroke-width="1.33333" stroke-miterlimit="10" stroke-linecap="round" stroke-linejoin="round"/>
<path d="M148.289 311.349C149.285 311.977 150.693 312.376 152.217 311.289C152.217 311.289 154.448 312.26 155.953 310.603C157.458 308.947 157.591 294.468 153.426 292.836C152.225 292.366 149.226 292.415 148.732 294.095C148.732 294.095 146.144 293.206 145.706 295.981C145.294 298.592 147.888 301.022 147.019 308.534C146.891 309.644 147.393 310.785 148.289 311.349Z" fill="#38BFF2"/>
<path d="M148.289 311.349C149.285 311.977 150.693 312.376 152.217 311.289C152.217 311.289 154.448 312.26 155.953 310.603C157.458 308.947 157.591 294.468 153.426 292.836C152.225 292.366 149.226 292.415 148.732 294.095C148.732 294.095 146.144 293.206 145.706 295.981C145.294 298.592 147.888 301.022 147.019 308.534C146.891 309.644 147.393 310.785 148.289 311.349Z" stroke="#1A2E35" stroke-width="1.33333" stroke-miterlimit="10" stroke-linecap="round" stroke-linejoin="round"/>
<g opacity="0.300003">
<g opacity="0.300003">
<path opacity="0.300003" d="M148.292 311.348C149.288 311.977 150.696 312.376 152.219 311.289C152.219 311.289 154.45 312.259 155.955 310.602C157.461 308.946 157.593 294.468 153.429 292.836C152.228 292.366 149.228 292.414 148.735 294.095C148.735 294.095 146.146 293.205 145.708 295.98C145.297 298.591 147.89 301.022 147.022 308.533C146.893 309.644 147.396 310.784 148.292 311.348Z" fill="black"/>
</g>
<g opacity="0.300003">
<path opacity="0.300003" d="M148.292 311.348C149.288 311.977 150.696 312.376 152.219 311.289C152.219 311.289 154.45 312.259 155.955 310.602C157.461 308.946 157.593 294.468 153.429 292.836C152.228 292.366 149.228 292.414 148.735 294.095C148.735 294.095 146.146 293.205 145.708 295.98C145.297 298.591 147.89 301.022 147.022 308.533C146.893 309.644 147.396 310.784 148.292 311.348Z" stroke="#1A2E35" stroke-width="1.33333" stroke-miterlimit="10" stroke-linecap="round" stroke-linejoin="round"/>
</g>
</g>
<path d="M153.042 307.972C153.042 307.972 153.164 301.696 150.581 296.534" stroke="#1A2E35" stroke-width="1.33333" stroke-miterlimit="10" stroke-linecap="round" stroke-linejoin="round"/>
<path d="M251.077 302.712C250.388 308.018 249.603 313.763 248.708 320H168.665L169.047 309.687C164.263 310.844 154.966 310.134 154.966 310.134V294.888C160.617 291.691 161.457 292.586 161.457 292.586C161.457 292.586 161.745 255.379 165.131 246.092C166.567 242.158 169.084 239.351 171.751 237.382V237.374C172.591 236.749 173.439 236.209 174.279 235.742C174.325 235.713 174.362 235.695 174.4 235.668C175.333 235.173 176.46 234.651 177.747 234.11C177.859 234.063 177.98 234.016 178.101 233.97C190.634 228.85 217.984 222.91 243.469 233.803C245.249 234.566 259.796 241.513 261.036 251.557C261.744 257.282 257.847 285.759 251.077 302.712Z" fill="#38BFF2"/>
<g opacity="0.199997">
<g opacity="0.199997">
<path opacity="0.199997" d="M238.399 256.843L230.417 293.89C229.177 292.911 225.606 292.845 221.064 293.274C222.062 292.165 222.873 290.963 223.48 289.656C235.546 263.547 238.185 257.365 238.399 256.843Z" fill="black"/>
</g>
</g>
<g opacity="0.199997">
<g opacity="0.199997">
<path opacity="0.199997" d="M252.98 297.546C250.668 305.79 249.652 313.296 248.709 320H168.666L169.402 308.121C174.39 307.412 183.146 306.685 192.238 305.071C193.395 309.874 192.453 313.753 192.453 313.753C192.453 313.753 229.267 318.322 241.622 315.348C245.148 314.499 248.337 309.575 251.068 302.797C251.73 301.145 252.365 299.384 252.98 297.546Z" fill="black"/>
</g>
</g>
<g opacity="0.300003">
<g opacity="0.300003">
<path opacity="0.300003" d="M162.414 293.289C162.414 293.289 160.621 291.691 154.961 294.893V310.139C154.961 310.139 164.29 309.805 167.949 307.824C171.097 309.772 170.537 274.09 171.097 254.868C166.529 256.124 166.162 264.82 165.456 272.999C164.483 284.271 162.414 293.289 162.414 293.289Z" fill="black"/>
</g>
</g>
<path d="M251.077 302.712C250.388 308.017 249.604 313.762 248.709 320H168.666L169.047 309.687C164.264 310.844 154.967 310.134 154.967 310.134V294.888C160.618 291.691 161.458 292.586 161.458 292.586C161.458 292.586 161.746 255.379 165.132 246.092C166.568 242.158 169.085 239.351 171.751 237.382V237.374C172.592 236.749 173.439 236.208 174.279 235.742C174.325 235.713 174.362 235.695 174.401 235.668C175.333 235.172 176.46 234.651 177.747 234.11C177.859 234.063 177.98 234.016 178.102 233.97C190.634 228.85 217.985 222.91 243.469 233.803C245.249 234.566 259.797 241.513 261.037 251.557C261.745 257.281 257.848 285.759 251.077 302.712Z" stroke="#1A2E35" stroke-width="1.33333" stroke-miterlimit="10" stroke-linecap="round" stroke-linejoin="round"/>
<path d="M261.035 251.557C261.062 251.78 261.091 252.042 261.099 252.331C261.51 259.492 257.613 286.515 251.067 302.797C248.334 309.576 245.145 314.499 241.621 315.348C229.265 318.322 192.451 313.753 192.451 313.753C192.451 313.753 194.279 306.2 189.7 299.113C189.7 299.113 225.843 290.273 230.412 293.89L238.412 256.807" stroke="#1A2E35" stroke-width="1.33333" stroke-miterlimit="10" stroke-linecap="round" stroke-linejoin="round"/>
<path d="M232.929 295.911C232.929 295.911 236.36 297.283 239.333 301.399" stroke="#1A2E35" stroke-width="1.33333" stroke-miterlimit="10" stroke-linecap="round" stroke-linejoin="round"/>
<path d="M140.853 297.242C140.853 297.242 137.486 296.533 136.113 298.067C134.681 299.667 128.87 308.428 130.854 310.111C132.838 311.793 136.876 302.564 136.876 302.564L140.853 297.242Z" fill="white"/>
<path d="M140.853 297.242C140.853 297.242 137.486 296.533 136.113 298.067C134.681 299.667 128.87 308.428 130.854 310.111C132.838 311.793 136.876 302.564 136.876 302.564L140.853 297.242Z" stroke="#1A2E35" stroke-width="1.33333" stroke-miterlimit="10" stroke-linecap="round" stroke-linejoin="round"/>
<path d="M147.626 297.083C147.626 297.083 140.138 295.474 138.461 297.761C136.784 300.048 127.348 311.865 133.218 312.247L142.594 301.725L147.626 297.083Z" fill="white"/>
<path d="M147.626 297.083C147.626 297.083 140.138 295.474 138.461 297.761C136.784 300.048 127.348 311.865 133.218 312.247L142.594 301.725L147.626 297.083Z" stroke="#1A2E35" stroke-width="1.33333" stroke-miterlimit="10" stroke-linecap="round" stroke-linejoin="round"/>
<path d="M164.543 309.653C164.543 309.653 156.85 311.331 153.724 311.941C150.598 312.55 144.805 316.59 141.374 314.99C137.945 313.389 152.581 307.443 152.581 307.443L157.612 305.417L164.543 309.653Z" fill="#C0C0C0"/>
<path d="M164.543 309.653C164.543 309.653 156.85 311.331 153.724 311.941C150.598 312.55 144.805 316.59 141.374 314.99C137.945 313.389 152.581 307.443 152.581 307.443L157.612 305.417L164.543 309.653Z" stroke="#1A2E35" stroke-width="1.33333" stroke-miterlimit="10" stroke-linecap="round" stroke-linejoin="round"/>
<path d="M170.77 263.619C170.879 260.702 170.988 257.784 171.097 254.868" stroke="#1A2E35" stroke-width="1.33333" stroke-miterlimit="10" stroke-linecap="round" stroke-linejoin="round"/>
<path d="M168.665 320C170.092 302.348 170.622 267.591 170.622 267.591" stroke="#1A2E35" stroke-width="1.33333" stroke-miterlimit="10" stroke-linecap="round" stroke-linejoin="round"/>
<path d="M192.451 300.125H165.922C165.922 300.125 145.339 293.95 141.909 298.752C138.478 303.555 131.16 310.873 133.218 312.246C135.277 313.618 143.967 303.67 143.967 303.67L151.514 303.741C151.514 303.741 145.11 306.528 143.738 307.901C142.366 309.273 139.393 313.16 140.994 313.847C142.595 314.532 147.626 309.502 147.626 309.502C147.626 309.502 155.173 307.672 157.003 308.586C158.832 309.502 166.15 313.16 175.984 310.415L196.227 312.931L192.451 300.125Z" fill="white"/>
<path d="M192.451 300.125H165.922C165.922 300.125 145.339 293.95 141.909 298.752C138.478 303.555 131.16 310.873 133.218 312.246C135.277 313.618 143.967 303.67 143.967 303.67L151.514 303.741C151.514 303.741 145.11 306.528 143.738 307.901C142.366 309.273 139.393 313.16 140.994 313.847C142.595 314.532 147.626 309.502 147.626 309.502C147.626 309.502 155.173 307.672 157.003 308.586C158.832 309.502 166.15 313.16 175.984 310.415L196.227 312.931L192.451 300.125Z" stroke="#1A2E35" stroke-width="1.33333" stroke-miterlimit="10" stroke-linecap="round" stroke-linejoin="round"/>
<path d="M235.643 269.646C234.916 265.413 234.879 261.049 235.559 256.806" stroke="#1A2E35" stroke-width="1.33333" stroke-miterlimit="10" stroke-linecap="round" stroke-linejoin="round"/>
<path d="M241.661 247.409C241.661 247.409 254.531 230.453 261.035 251.557" stroke="#1A2E35" stroke-width="1.33333" stroke-miterlimit="10" stroke-linecap="round" stroke-linejoin="round"/>
<path d="M187.009 298.035C187.818 297.18 189.083 296.444 190.828 297.118C190.828 297.118 192.747 295.624 194.618 296.854C196.488 298.086 200.211 312.077 196.583 314.69C195.536 315.446 192.619 316.143 191.724 314.639C191.724 314.639 189.437 316.143 188.323 313.563C187.276 311.137 189.184 308.138 186.477 301.077C186.077 300.034 186.281 298.805 187.009 298.035Z" fill="#38BFF2"/>
<g opacity="0.300003">
<g opacity="0.300003">
<path opacity="0.300003" d="M187.009 298.035C187.818 297.18 189.083 296.444 190.828 297.119C190.828 297.119 192.747 295.625 194.618 296.855C196.487 298.087 200.211 312.077 196.583 314.691C195.536 315.446 192.619 316.144 191.723 314.64C191.723 314.64 189.437 316.144 188.323 313.564C187.275 311.137 189.184 308.139 186.477 301.078C186.077 300.034 186.281 298.805 187.009 298.035Z" fill="black"/>
</g>
</g>
<path d="M187.009 298.034C187.818 297.179 189.083 296.444 190.828 297.118C190.828 297.118 192.747 295.624 194.618 296.854C196.487 298.086 200.211 312.076 196.583 314.69C195.536 315.446 192.619 316.143 191.723 314.639C191.723 314.639 189.437 316.143 188.323 313.563C187.275 311.137 189.184 308.138 186.477 301.077C186.077 300.034 186.281 298.805 187.009 298.034Z" stroke="#1A2E35" stroke-width="1.33333" stroke-miterlimit="10" stroke-linecap="round" stroke-linejoin="round"/>
<path d="M192.898 305.297C193.207 307.468 193.285 309.683 192.974 311.859" stroke="#1A2E35" stroke-width="1.33333" stroke-miterlimit="10" stroke-linecap="round" stroke-linejoin="round"/>
<path d="M204.562 263.422C204.504 264.424 203.646 265.189 202.644 265.13C201.642 265.074 200.878 264.215 200.934 263.212C200.993 262.211 201.852 261.446 202.854 261.504C203.855 261.562 204.62 262.421 204.562 263.422Z" fill="white"/>
<path d="M204.562 263.422C204.504 264.424 203.646 265.189 202.644 265.13C201.642 265.074 200.878 264.215 200.934 263.212C200.993 262.211 201.852 261.446 202.854 261.504C203.855 261.562 204.62 262.421 204.562 263.422Z" stroke="#1A2E35" stroke-width="1.33333" stroke-miterlimit="10" stroke-linecap="round" stroke-linejoin="round"/>
<path d="M203.255 291.576C203.197 292.578 202.339 293.343 201.337 293.285C200.335 293.228 199.571 292.369 199.628 291.367C199.686 290.365 200.545 289.601 201.547 289.657C202.548 289.716 203.313 290.575 203.255 291.576Z" fill="white"/>
<path d="M203.255 291.576C203.197 292.578 202.339 293.343 201.337 293.285C200.335 293.228 199.571 292.369 199.628 291.367C199.686 290.365 200.545 289.601 201.547 289.657C202.548 289.716 203.313 290.575 203.255 291.576Z" stroke="#1A2E35" stroke-width="1.33333" stroke-miterlimit="10" stroke-linecap="round" stroke-linejoin="round"/>
<path d="M219.905 228.932L218.572 210.146L199.134 214.647L198.098 229.735C196.871 229.888 195.704 230.059 194.565 230.235L199.318 241.633L208.613 242.853L223.478 229.155C222.271 229.065 221.077 228.988 219.905 228.932Z" fill="white"/>
<path d="M198.847 221.301C198.975 234.665 214.596 230.566 218.916 217.216L218.575 210.146L199.136 214.646L198.847 221.301Z" fill="#1A2E35"/>
<path d="M219.904 228.931L218.571 210.145L199.132 214.646L198.096 229.734C196.87 229.887 195.703 230.058 194.564 230.234L199.317 241.632L208.612 242.852L223.476 229.154C222.27 229.064 221.075 228.987 219.904 228.931Z" stroke="#1A2E35" stroke-width="1.33333" stroke-miterlimit="10" stroke-linecap="round" stroke-linejoin="round"/>
<path d="M186.93 194.287C186.93 194.287 179.831 181.995 178.778 175.512C175.529 155.493 189.984 162.248 189.984 162.248C189.984 162.248 200.204 153.1 212.933 154.701C225.661 156.302 229.014 161.718 237.58 165.047C237.58 165.047 231.149 197.696 222.917 205.015C214.684 212.333 186.93 194.287 186.93 194.287Z" fill="#1A2E35"/>
<path d="M186.93 194.287C186.93 194.287 179.831 181.995 178.778 175.512C175.529 155.493 189.984 162.248 189.984 162.248C189.984 162.248 200.204 153.1 212.933 154.701C225.661 156.302 229.014 161.718 237.58 165.047C237.58 165.047 231.149 197.696 222.917 205.015C214.684 212.333 186.93 194.287 186.93 194.287Z" stroke="#1A2E35" stroke-width="1.33333" stroke-miterlimit="10" stroke-linecap="round" stroke-linejoin="round"/>
<path d="M190.672 165.221C190.672 165.221 187.47 157.446 195.589 151.499" stroke="#1A2E35" stroke-width="1.33333" stroke-miterlimit="10" stroke-linecap="round" stroke-linejoin="round"/>
<path d="M204.641 160.549C214.145 156.348 218.379 163.374 228.985 165.222" stroke="#C0C0C0" stroke-width="1.33333" stroke-miterlimit="10"/>
<path d="M197.303 165.221C198.139 164.121 199.227 163.211 200.385 162.465" stroke="#C0C0C0" stroke-width="1.33333" stroke-miterlimit="10"/>
<path d="M207.056 168.268C207.056 168.268 211.167 164.318 219.324 169.449C223.793 172.26 227.47 172.661 227.47 172.661" stroke="#C0C0C0" stroke-width="1.33333" stroke-miterlimit="10"/>
<path d="M219.625 176.808C207.796 177.113 195.587 171.776 195.587 171.776C184.568 178.422 186.203 189.232 186.203 189.232C188.722 215.06 192.127 221.937 204.195 221.937C216.186 221.937 226.072 208.921 226.857 190.285C222.291 190.501 219.625 176.808 219.625 176.808Z" fill="white"/>
<path d="M219.625 176.808C207.796 177.113 195.587 171.776 195.587 171.776C184.568 178.422 186.203 189.232 186.203 189.232C188.722 215.06 192.127 221.937 204.195 221.937C216.186 221.937 226.072 208.921 226.857 190.285C222.291 190.501 219.625 176.808 219.625 176.808Z" stroke="#1A2E35" stroke-width="1.33333" stroke-miterlimit="10" stroke-linecap="round" stroke-linejoin="round"/>
<path d="M225.844 189.233C226.509 188.375 227.351 187.862 228.268 187.862C230.414 187.862 232.002 190.683 231.241 194.151C230.495 197.544 229.501 200.441 227.353 200.441C226.344 200.441 225.628 199.82 225.151 198.801" fill="white"/>
<path d="M225.844 189.233C226.509 188.375 227.351 187.862 228.268 187.862C230.414 187.862 232.002 190.683 231.241 194.151C230.495 197.544 229.501 200.441 227.353 200.441C226.344 200.441 225.628 199.82 225.151 198.801" stroke="#1A2E35" stroke-width="1.33333" stroke-miterlimit="10" stroke-linecap="round" stroke-linejoin="round"/>
<path d="M202.338 201.91C202.338 201.91 203.781 203.889 201.015 205.373C198.248 206.858 196.037 206.827 195.33 205.131C194.624 203.435 197.704 189.299 197.704 189.299" stroke="#1A2E35" stroke-width="1.33333" stroke-linecap="round" stroke-linejoin="round"/>
<path d="M197.235 191.541C195.744 190.786 189.766 188.175 184.106 191.737L184.47 197.22C184.47 197.22 186.559 198.367 191.352 198.367C193.515 198.367 195.025 198.134 196.023 197.882" stroke="#1A2E35" stroke-width="1.33333" stroke-linecap="round" stroke-linejoin="round"/>
<path d="M202.187 191.74L203.922 197.456C203.922 197.456 204.63 198.389 209.433 198.389C214.235 198.389 215.811 197.242 215.811 197.242L215.671 191.76C215.671 191.76 208.705 187.628 202.187 191.74Z" stroke="#1A2E35" stroke-width="1.33333" stroke-linecap="round" stroke-linejoin="round"/>
<path d="M197.619 191.741H202.189" stroke="#1A2E35" stroke-width="1.33333" stroke-linecap="round" stroke-linejoin="round"/>
<path d="M198.591 210.555C198.591 210.555 202.316 211.784 206.19 210.325C209.322 209.145 210.919 206.761 210.919 206.761" stroke="#1A2E35" stroke-width="1.33333" stroke-linecap="round" stroke-linejoin="round"/>
<path d="M206.186 186.331C212.184 183.858 214.83 186.826 214.83 186.826" stroke="#1A2E35" stroke-width="1.33333" stroke-linecap="round" stroke-linejoin="round"/>
<path d="M190.366 186.088C192.467 185.08 194.96 185.367 196.777 186.826" stroke="#1A2E35" stroke-width="1.33333" stroke-linecap="round" stroke-linejoin="round"/>
<path d="M208.576 190.501C209.132 190.501 209.525 191.388 209.525 192.52C209.525 193.651 209.061 194.539 208.516 194.539C207.971 194.539 207.576 193.61 207.576 192.52C207.597 191.419 208.02 190.501 208.576 190.501Z" fill="#1A2E35"/>
<path d="M193.686 190.248C194.231 190.248 194.625 191.136 194.625 192.267C194.625 193.399 194.161 194.287 193.615 194.287C193.07 194.287 192.676 193.358 192.676 192.267C192.707 191.177 193.141 190.248 193.686 190.248Z" fill="#1A2E35"/>
<path d="M183.742 179.953C183.957 181.045 184.227 182.14 184.673 183.162" stroke="#C0C0C0" stroke-width="1.33333" stroke-miterlimit="10"/>
<path d="M190.9 167.636C185.006 166.05 182.673 169.592 183.11 175.182" stroke="#C0C0C0" stroke-width="1.33333" stroke-miterlimit="10"/>
<path d="M197.135 228.863L204.317 241.785L221.56 228.178L226.858 228.922L215.703 248.647C215.272 249.395 214.305 249.634 213.576 249.174L204.039 243.157L196.601 247.703C195.651 248.284 194.42 247.679 194.298 246.573L192.452 229.74L197.135 228.863Z" fill="#38BFF2"/>
<g opacity="0.300003">
<g opacity="0.300003">
<path opacity="0.300003" d="M196.503 228.775L204.317 241.786L221.859 227.94L227.143 228.775L215.702 248.648C215.272 249.395 214.305 249.634 213.575 249.175L204.038 243.157L196.601 247.703C195.65 248.284 194.42 247.679 194.297 246.573L192.451 229.741L196.503 228.775Z" fill="black"/>
</g>
</g>
<path d="M197.133 228.864L204.316 241.786L221.558 228.178L226.857 228.922L215.701 248.648C215.271 249.396 214.304 249.635 213.575 249.175L204.037 243.158L196.6 247.703C195.65 248.284 194.419 247.68 194.296 246.573L192.45 229.741L197.133 228.864Z" stroke="#1A2E35" stroke-width="1.33333" stroke-miterlimit="10" stroke-linecap="round" stroke-linejoin="round"/>
<path d="M137.104 320H90.2221C89.2076 320 88.3851 319.177 88.3851 318.163V315.585C88.3851 314.571 89.2076 313.748 90.2221 313.748H137.104V320Z" fill="#1A2E35"/>
<path d="M137.104 320H90.2221C89.2076 320 88.3851 319.177 88.3851 318.163V315.585C88.3851 314.571 89.2076 313.748 90.2221 313.748H137.104V320Z" stroke="#1A2E35" stroke-width="1.33333" stroke-miterlimit="10" stroke-linecap="round" stroke-linejoin="round"/>
<path d="M177.45 320H137.104V313.748L177.533 316.414C178.205 316.458 178.727 317.016 178.727 317.688V318.722C178.727 319.428 178.155 320 177.45 320Z" fill="#38BFF2"/>
<path d="M177.45 320H137.104V313.748L177.533 316.414C178.205 316.458 178.727 317.016 178.727 317.688V318.722C178.727 319.428 178.155 320 177.45 320Z" stroke="#1A2E35" stroke-width="1.33333" stroke-miterlimit="10" stroke-linecap="round" stroke-linejoin="round"/>
<path d="M215.693 192.657L225.843 189.233L224.64 190.752" stroke="#1A2E35" stroke-width="1.33333" stroke-linecap="round" stroke-linejoin="round"/>
<path d="M280.678 204.331C280.678 204.331 268.997 168.661 298.375 166.158C327.754 163.655 331.221 191.037 333.915 204.765C336.02 215.495 356.088 235.128 340.558 249.778C324.343 265.074 284.864 259.971 282.595 238.221C280.325 216.471 282.392 212.019 280.678 204.331Z" fill="#1A2E35"/>
<path d="M280.678 204.331C280.678 204.331 268.997 168.661 298.375 166.158C327.754 163.655 331.221 191.037 333.915 204.765C336.02 215.495 356.088 235.128 340.558 249.778C324.343 265.074 284.864 259.971 282.595 238.221C280.325 216.471 282.392 212.019 280.678 204.331Z" stroke="#1A2E35" stroke-width="1.33333" stroke-miterlimit="10" stroke-linecap="round" stroke-linejoin="round"/>
<path d="M314.961 210.01C314.961 210.01 313.676 225.831 321.839 239.439C321.839 239.439 310.842 243.022 299.373 239.614C299.852 235.414 299.619 231.162 298.683 227.039L298.292 225.316L306.629 218.104L314.961 210.01Z" fill="white"/>
<path d="M294.785 221.938C296.302 230.453 297.698 232.307 304.908 230.789C310.256 229.662 314.815 221.641 315.072 215.816C314.664 212.274 314.693 207.854 314.693 207.854L306.635 218.104L294.785 221.938Z" fill="#1A2E35"/>
<path d="M314.964 210.01C314.964 210.01 313.678 225.831 321.842 239.439C321.842 239.439 310.844 243.022 299.375 239.615C299.855 235.414 299.622 231.163 298.685 227.039L298.294 225.316L306.631 218.104L314.964 210.01Z" stroke="#1A2E35" stroke-width="1.33333" stroke-miterlimit="10" stroke-linecap="round" stroke-linejoin="round"/>
<path d="M233.151 300.547C233.151 300.547 216.879 293.068 215.973 299.265C215.066 305.462 219.036 314.962 233.936 310.277L265.197 314.397C265.197 314.397 270.55 303.738 264.828 297.928C264.828 297.928 237.284 302.212 233.151 300.547Z" fill="white"/>
<path d="M233.151 300.547C233.151 300.547 216.879 293.068 215.973 299.265C215.066 305.462 219.036 314.962 233.936 310.277L265.197 314.397C265.197 314.397 270.55 303.738 264.828 297.928C264.828 297.928 237.284 302.212 233.151 300.547Z" stroke="#1A2E35" stroke-width="1.33333" stroke-miterlimit="10" stroke-linecap="round" stroke-linejoin="round"/>
<path d="M208.083 307.227C208.083 307.227 205.504 308.054 205.128 309.758C204.752 311.463 203.912 313.883 204.904 313.89C205.894 313.897 207.092 310.496 207.092 310.496L209.6 309.845L208.083 307.227Z" fill="white"/>
<path d="M208.083 307.227C208.083 307.227 205.504 308.054 205.128 309.758C204.752 311.463 203.912 313.883 204.904 313.89C205.894 313.897 207.092 310.496 207.092 310.496L209.6 309.845L208.083 307.227Z" stroke="#1A2E35" stroke-width="1.33333" stroke-miterlimit="10" stroke-linecap="round" stroke-linejoin="round"/>
<path d="M227.642 315.122L210.729 316.893L208.205 292.8L225.119 291.027L227.642 315.122Z" fill="white"/>
<path d="M227.642 315.122L210.729 316.893L208.205 292.8L225.119 291.027L227.642 315.122Z" stroke="#1A2E35" stroke-width="1.33333" stroke-miterlimit="10" stroke-linecap="round" stroke-linejoin="round"/>
<path d="M205.681 293.064L208.205 317.158L210.731 316.894L208.207 292.8L205.681 293.064Z" fill="#38BFF2"/>
<path d="M205.681 293.064L208.205 317.158L210.731 316.894L208.207 292.8L205.681 293.064Z" stroke="#1A2E35" stroke-width="1.33333" stroke-miterlimit="10" stroke-linecap="round" stroke-linejoin="round"/>
<path d="M220.574 287.541C218.554 287.752 217.083 289.567 217.294 291.587C217.303 291.675 217.33 291.756 217.345 291.841L218.2 291.753L219.105 291.657C219.084 291.574 219.061 291.491 219.052 291.403C218.942 290.352 219.706 289.407 220.757 289.297C221.807 289.188 222.752 289.953 222.862 291.004C222.936 291.708 222.612 292.357 222.077 292.746C222.192 293.138 222.537 293.644 223.501 293.842C224.288 293.081 224.742 291.989 224.62 290.82C224.408 288.8 222.592 287.328 220.574 287.541Z" fill="white"/>
<path d="M220.574 287.541C218.554 287.752 217.083 289.567 217.294 291.587C217.303 291.675 217.33 291.756 217.345 291.841L218.2 291.753L219.105 291.657C219.084 291.574 219.061 291.491 219.052 291.403C218.942 290.352 219.706 289.407 220.757 289.297C221.807 289.188 222.752 289.953 222.862 291.004C222.936 291.708 222.612 292.357 222.077 292.746C222.192 293.138 222.537 293.644 223.501 293.842C224.288 293.081 224.742 291.989 224.62 290.82C224.408 288.8 222.592 287.328 220.574 287.541Z" stroke="#1A2E35" stroke-width="1.33333" stroke-miterlimit="10" stroke-linecap="round" stroke-linejoin="round"/>
<path d="M211.393 297.794L217.214 297.185" stroke="#1A2E35" stroke-width="1.33333" stroke-miterlimit="10" stroke-linecap="round" stroke-linejoin="round"/>
<path d="M211.674 300.45L222.985 299.264" stroke="#1A2E35" stroke-width="1.33333" stroke-miterlimit="10" stroke-linecap="round" stroke-linejoin="round"/>
<path d="M211.952 303.106L217.607 302.512" stroke="#1A2E35" stroke-width="1.33333" stroke-miterlimit="10" stroke-linecap="round" stroke-linejoin="round"/>
<path d="M212.228 305.761L221.673 304.77" stroke="#1A2E35" stroke-width="1.33333" stroke-miterlimit="10" stroke-linecap="round" stroke-linejoin="round"/>
<path d="M212.506 308.416L218.161 307.823" stroke="#1A2E35" stroke-width="1.33333" stroke-miterlimit="10" stroke-linecap="round" stroke-linejoin="round"/>
<path d="M212.784 311.071L225.195 309.771" stroke="#1A2E35" stroke-width="1.33333" stroke-miterlimit="10" stroke-linecap="round" stroke-linejoin="round"/>
<path d="M213.064 313.726L218.885 313.117" stroke="#1A2E35" stroke-width="1.33333" stroke-miterlimit="10" stroke-linecap="round" stroke-linejoin="round"/>
<path d="M217.443 287.869C215.424 288.081 213.953 289.895 214.164 291.915C214.174 292.004 214.2 292.087 214.216 292.173L215.071 292.085L215.07 292.081L215.975 291.986C215.954 291.902 215.931 291.819 215.921 291.731C215.812 290.68 216.577 289.736 217.627 289.626C218.678 289.517 219.622 290.281 219.732 291.332C219.806 292.036 219.482 292.685 218.947 293.074C219.063 293.467 219.408 293.972 220.371 294.171C221.157 293.41 221.612 292.318 221.49 291.148C221.277 289.129 219.463 287.656 217.443 287.869Z" fill="white"/>
<path d="M217.443 287.869C215.424 288.081 213.953 289.895 214.164 291.915C214.174 292.004 214.2 292.087 214.216 292.173L215.071 292.085L215.07 292.081L215.975 291.986C215.954 291.902 215.931 291.819 215.921 291.731C215.812 290.68 216.577 289.736 217.627 289.626C218.678 289.517 219.622 290.281 219.732 291.332C219.806 292.036 219.482 292.685 218.947 293.074C219.063 293.467 219.408 293.972 220.371 294.171C221.157 293.41 221.612 292.318 221.49 291.148C221.277 289.129 219.463 287.656 217.443 287.869Z" stroke="#1A2E35" stroke-width="1.33333" stroke-miterlimit="10" stroke-linecap="round" stroke-linejoin="round"/>
<path d="M214.313 288.196C212.294 288.408 210.823 290.223 211.035 292.243C211.044 292.331 211.07 292.412 211.086 292.497L211.94 292.408L212.845 292.313C212.824 292.229 212.801 292.146 212.791 292.059C212.681 291.008 213.446 290.063 214.497 289.953C215.548 289.844 216.492 290.609 216.602 291.659C216.676 292.363 216.353 293.012 215.817 293.401C215.933 293.794 216.278 294.299 217.24 294.498C218.027 293.737 218.482 292.645 218.359 291.476C218.148 289.456 216.333 287.985 214.313 288.196Z" fill="white"/>
<path d="M214.313 288.196C212.294 288.408 210.823 290.223 211.035 292.243C211.044 292.331 211.07 292.412 211.086 292.497L211.94 292.408L212.845 292.313C212.824 292.229 212.801 292.146 212.791 292.059C212.681 291.008 213.446 290.063 214.497 289.953C215.548 289.844 216.492 290.609 216.602 291.659C216.676 292.363 216.353 293.012 215.817 293.401C215.933 293.794 216.278 294.299 217.24 294.498C218.027 293.737 218.482 292.645 218.359 291.476C218.148 289.456 216.333 287.985 214.313 288.196Z" stroke="#1A2E35" stroke-width="1.33333" stroke-miterlimit="10" stroke-linecap="round" stroke-linejoin="round"/>
<path d="M211.182 288.524C209.163 288.736 207.692 290.552 207.903 292.571C207.912 292.659 207.938 292.74 207.954 292.825L208.809 292.736L209.714 292.641C209.693 292.557 209.67 292.474 209.661 292.387C209.551 291.336 210.315 290.391 211.366 290.282C212.417 290.172 213.362 290.937 213.471 291.988C213.544 292.692 213.221 293.341 212.687 293.73C212.801 294.122 213.146 294.628 214.109 294.826C214.896 294.065 215.352 292.973 215.228 291.804C215.017 289.784 213.201 288.313 211.182 288.524Z" fill="white"/>
<path d="M211.182 288.524C209.163 288.736 207.692 290.552 207.903 292.571C207.912 292.659 207.938 292.74 207.954 292.825L208.809 292.736L209.714 292.641C209.693 292.557 209.67 292.474 209.661 292.387C209.551 291.336 210.315 290.391 211.366 290.282C212.417 290.172 213.362 290.937 213.471 291.988C213.544 292.692 213.221 293.341 212.687 293.73C212.801 294.122 213.146 294.628 214.109 294.826C214.896 294.065 215.352 292.973 215.228 291.804C215.017 289.784 213.201 288.313 211.182 288.524Z" stroke="#1A2E35" stroke-width="1.33333" stroke-miterlimit="10" stroke-linecap="round" stroke-linejoin="round"/>
<path d="M206.533 292.715C206.423 291.664 207.188 290.719 208.238 290.61C209.289 290.5 210.233 291.265 210.343 292.315C210.417 293.019 210.092 293.668 209.558 294.058C209.674 294.45 210.019 294.956 210.982 295.154C211.769 294.394 212.223 293.302 212.101 292.132C211.889 290.112 210.074 288.641 208.055 288.852C206.035 289.064 204.564 290.879 204.775 292.899C204.87 293.798 205.294 294.577 205.9 295.159L205.681 293.064L206.586 292.969C206.565 292.886 206.542 292.803 206.533 292.715Z" fill="white"/>
<path d="M206.533 292.715C206.423 291.664 207.188 290.719 208.238 290.61C209.289 290.5 210.233 291.265 210.343 292.315C210.417 293.019 210.092 293.668 209.558 294.058C209.674 294.45 210.019 294.956 210.982 295.154C211.769 294.394 212.223 293.302 212.101 292.132C211.889 290.112 210.074 288.641 208.055 288.852C206.035 289.064 204.564 290.879 204.775 292.899C204.87 293.798 205.294 294.577 205.9 295.159L205.681 293.064L206.586 292.969C206.565 292.886 206.542 292.803 206.533 292.715Z" stroke="#1A2E35" stroke-width="1.33333" stroke-miterlimit="10" stroke-linecap="round" stroke-linejoin="round"/>
<path d="M203.722 299.538C203.869 299.86 204.052 300.2 204.276 300.556C204.276 300.556 203.614 302.521 204.943 304.355C204.943 304.355 205.022 307.011 205.963 307.43C206.905 307.85 208.404 308.359 208.377 307.621C208.35 306.885 207.908 304.641 206.218 304.147C206.218 304.147 208.168 304.535 207.947 303.447C207.726 302.36 207.364 300.804 206.17 300.357L205.527 300.074C205.527 300.074 207.068 300.357 206.945 299.185C206.822 298.014 206.682 296.654 205.799 296.324C205.594 296.247 205.358 296.18 205.116 296.124C203.806 295.814 202.967 297.871 203.722 299.538Z" fill="white"/>
<path d="M203.722 299.538C203.869 299.86 204.052 300.2 204.276 300.556C204.276 300.556 203.614 302.521 204.943 304.355C204.943 304.355 205.022 307.011 205.963 307.43C206.905 307.85 208.404 308.359 208.377 307.621C208.35 306.885 207.908 304.641 206.218 304.147C206.218 304.147 208.168 304.535 207.947 303.447C207.726 302.36 207.364 300.804 206.17 300.357L205.527 300.074C205.527 300.074 207.068 300.357 206.945 299.185C206.822 298.014 206.682 296.654 205.799 296.324C205.594 296.247 205.358 296.18 205.116 296.124C203.806 295.814 202.967 297.871 203.722 299.538Z" stroke="#1A2E35" stroke-width="1.33333" stroke-miterlimit="10" stroke-linecap="round" stroke-linejoin="round"/>
<path d="M231.325 300.339C231.325 300.339 229.511 296.315 226.529 294.217C223.547 292.119 222.444 288.033 221.229 289.027C220.014 290.021 221.119 294.344 222.995 295.826C224.873 297.308 222.774 300.621 227.413 304.707" fill="white"/>
<path d="M231.325 300.339C231.325 300.339 229.511 296.315 226.529 294.217C223.547 292.119 222.444 288.033 221.229 289.027C220.014 290.021 221.119 294.344 222.995 295.826C224.873 297.308 222.774 300.621 227.413 304.707" stroke="#1A2E35" stroke-width="1.33333" stroke-miterlimit="10" stroke-linecap="round" stroke-linejoin="round"/>
<path d="M340.866 312.102C340.457 314.638 340.018 317.268 339.552 320H275.603C275.499 319.142 276.106 317.417 276.684 314.414C269.559 316.83 257.13 313.081 257.13 313.081C258.677 309.006 257.605 298.656 257.605 298.656L264.86 297.117C264.86 297.117 267.873 265.581 270.166 256.545C272.599 246.959 285.917 236.493 330.703 239.583C330.703 239.583 351.367 239.193 354.575 252.89C357.568 265.665 341.724 311.514 340.866 312.102Z" fill="#38BFF2"/>
<g opacity="0.199997">
<g opacity="0.199997">
<path opacity="0.199997" d="M276.686 314.416C271.735 316.095 264.229 314.798 260.108 313.847C261.179 313.027 261.852 311.348 262.102 309.222C265.459 308.699 268.817 303.365 271.027 279.121C271.548 273.434 272.667 269.862 274.103 267.457C272.901 272.333 272.379 277.797 273.937 284.129C274.738 287.384 277.255 295.216 277.48 298.462C277.992 305.855 277.348 310.975 276.686 314.416Z" fill="black"/>
</g>
</g>
<g opacity="0.199997">
<g opacity="0.199997">
<path opacity="0.199997" d="M340.855 312.111C340.455 314.649 340.017 317.277 339.551 320H275.602C276.748 316.494 279.565 299.803 275.591 289.657C275.433 289.247 289.327 283.411 298.633 285.797C338.078 295.914 324.491 263.315 335.755 257.385L326.038 295.495L320.733 297.182C332.221 297.891 328.901 315.115 328.901 315.115C334.291 315.99 338.729 313.585 340.855 312.111Z" fill="black"/>
</g>
</g>
<path d="M340.867 312.102C340.458 314.638 340.02 317.268 339.554 320H275.604C275.501 319.142 276.108 317.417 276.685 314.414C269.561 316.83 257.131 313.081 257.131 313.081C258.679 309.006 257.607 298.656 257.607 298.656L264.861 297.117C264.861 297.117 267.874 265.581 270.168 256.545C272.601 246.959 285.918 236.493 330.704 239.583C330.704 239.583 351.369 239.193 354.577 252.89C357.57 265.665 341.725 311.514 340.867 312.102Z" stroke="#1A2E35" stroke-width="1.33333" stroke-miterlimit="10" stroke-linecap="round" stroke-linejoin="round"/>
<path d="M258.771 296.877C258.771 296.877 261.193 298.173 261.984 303.871C262.774 309.57 261.559 314.475 258.394 314.396C255.228 314.317 254.681 313.077 255.319 311.907C255.957 310.736 257.352 309.154 256.298 304.282C254.973 298.173 252.252 298.729 252.252 298.729C252.252 298.729 255.885 295.254 258.771 296.877Z" fill="#38BFF2"/>
<path d="M258.771 296.877C258.771 296.877 261.193 298.173 261.984 303.871C262.774 309.57 261.559 314.475 258.394 314.396C255.228 314.317 254.681 313.077 255.319 311.907C255.957 310.736 257.352 309.154 256.298 304.282C254.973 298.173 252.252 298.729 252.252 298.729C252.252 298.729 255.885 295.254 258.771 296.877V296.877Z" stroke="#1A2E35" stroke-width="1.33333" stroke-miterlimit="10" stroke-linecap="round" stroke-linejoin="round"/>
<g opacity="0.199997">
<g opacity="0.199997">
<path opacity="0.199997" d="M262.1 309.221C261.849 311.347 261.177 313.026 260.105 313.846C259.62 314.219 259.051 314.415 258.398 314.397C255.228 314.322 254.678 313.082 255.321 311.907C255.955 310.741 257.354 309.156 256.3 304.279C254.976 298.17 252.252 298.73 252.252 298.73C252.252 298.73 255.89 295.253 258.771 296.875C258.771 296.875 261.196 298.17 261.988 303.869C262.25 305.799 262.287 307.636 262.1 309.221Z" fill="black"/>
</g>
</g>
<path d="M319.693 228.178C319.693 228.178 303.613 233.054 296.301 230.453L294.785 240.214C294.785 240.214 301.895 246.411 324.69 238.794L319.693 228.178Z" fill="#38BFF2"/>
<path d="M319.693 228.178C319.693 228.178 303.613 233.054 296.301 230.453L294.785 240.214C294.785 240.214 301.895 246.411 324.69 238.794L319.693 228.178Z" stroke="#1A2E35" stroke-width="1.33333" stroke-miterlimit="10" stroke-linecap="round" stroke-linejoin="round"/>
<path d="M262.566 294.029C264.476 300.253 266.185 305.25 264.496 305.768C262.807 306.287 261.419 301.192 259.507 294.968C257.596 288.744 255.886 283.748 257.575 283.228C259.265 282.71 260.654 287.804 262.566 294.029Z" fill="#38BFF2"/>
<path d="M262.566 294.029C264.476 300.253 266.185 305.25 264.496 305.768C262.807 306.287 261.419 301.192 259.507 294.968C257.596 288.744 255.886 283.748 257.575 283.228C259.265 282.71 260.654 287.804 262.566 294.029Z" stroke="#1A2E35" stroke-width="1.33333" stroke-miterlimit="10" stroke-linecap="round" stroke-linejoin="round"/>
<path d="M259.262 294.178L262.323 293.239C261.874 291.77 261.454 290.38 261.049 289.125L258.007 290.059C258.377 291.324 258.809 292.711 259.262 294.178Z" fill="#1A2E35"/>
<path d="M258.984 286.179C258.984 286.179 260.415 283.314 261.729 285.337C263.044 287.358 263.315 293.507 264.241 293.514" stroke="#1A2E35" stroke-width="1.33333" stroke-miterlimit="10" stroke-linecap="round" stroke-linejoin="round"/>
<path d="M277.952 255.715C276.786 259.287 275.174 263.138 274.101 267.455C272.898 272.331 272.376 277.796 273.933 284.128C274.735 287.382 277.252 295.214 277.476 298.46C277.989 305.855 277.346 310.974 276.684 314.415C276.106 317.417 275.499 319.142 275.602 319.999" stroke="#1A2E35" stroke-width="1.33333" stroke-miterlimit="10" stroke-linecap="round" stroke-linejoin="round"/>
<path d="M317.532 298.243C317.532 298.243 291.519 301.796 282.748 301.997C281.4 302.028 277.374 301.529 277.374 301.529L271.139 297.359C271.139 297.359 266.332 296.647 263.976 297.187L261.291 300.696C261.291 300.696 257.939 301.776 259.853 304.316C259.853 304.316 259.116 306.266 260.736 307.739C260.736 307.739 260.883 309.948 262.356 310.831C262.356 310.831 262.65 312.892 264.27 313.481C265.89 314.07 276.049 312.45 279.14 311.567C282.233 310.684 312.268 315.396 324.047 315.101C324.047 315.101 334.133 303.322 317.532 298.243Z" fill="white"/>
<path d="M317.532 298.243C317.532 298.243 291.519 301.796 282.748 301.997C281.4 302.028 277.374 301.529 277.374 301.529L271.139 297.359C271.139 297.359 266.332 296.647 263.976 297.187L261.291 300.696C261.291 300.696 257.939 301.776 259.853 304.316C259.853 304.316 259.116 306.266 260.736 307.739C260.736 307.739 260.883 309.948 262.356 310.831C262.356 310.831 262.65 312.892 264.27 313.481C265.89 314.07 276.049 312.45 279.14 311.567C282.233 310.684 312.268 315.396 324.047 315.101C324.047 315.101 334.133 303.322 317.532 298.243V298.243Z" stroke="#1A2E35" stroke-width="1.33333" stroke-miterlimit="10" stroke-linecap="round" stroke-linejoin="round"/>
<path d="M317.941 199.738C317.941 199.738 311.073 202.418 307.01 195.016C305.248 191.806 301.682 185.114 301.682 185.114C300.669 187.737 301.914 191.732 301.914 191.732C299.589 190.712 295.09 190.471 295.09 190.471C293.494 187.799 293.029 181.744 293.029 181.744C290.819 185.435 291.459 190.73 291.459 190.73C286.738 191.385 283.821 192.993 281.671 194.875C282.256 197.254 282.469 200.962 282.273 208.668C282.018 218.737 286.856 221.494 291.568 225.257C296.28 229.02 309.204 230.97 313.66 211.292C313.66 211.292 323.005 207.817 318.432 200.515C318.278 200.268 318.113 200.008 317.941 199.738Z" fill="white"/>
<path d="M317.941 199.738C317.941 199.738 311.073 202.418 307.01 195.016C305.248 191.806 301.682 185.114 301.682 185.114C300.669 187.737 301.914 191.732 301.914 191.732C299.589 190.712 295.09 190.471 295.09 190.471C293.494 187.799 293.029 181.744 293.029 181.744C290.819 185.435 291.459 190.73 291.459 190.73C286.738 191.385 283.821 192.993 281.671 194.875C282.256 197.254 282.469 200.962 282.273 208.668C282.018 218.737 286.856 221.494 291.568 225.257C296.28 229.02 309.204 230.97 313.66 211.292C313.66 211.292 323.005 207.817 318.432 200.515C318.278 200.268 318.113 200.008 317.941 199.738Z" stroke="#1A2E35" stroke-width="1.33333" stroke-miterlimit="10" stroke-linecap="round" stroke-linejoin="round"/>
<path d="M310.292 187.661C313.231 193.683 318.347 198.321 324.901 200.026" stroke="#C0C0C0" stroke-width="1.33333" stroke-miterlimit="10"/>
<path d="M307.84 180.205C308.037 181.428 308.358 182.633 308.739 183.809" stroke="#C0C0C0" stroke-width="1.33333" stroke-miterlimit="10"/>
<path d="M312.5 180.653C312.5 180.653 317.794 190.761 326.075 191.002" stroke="#C0C0C0" stroke-width="1.33333" stroke-miterlimit="10"/>
<path d="M328.737 206.362C328.737 206.362 342.207 228.178 342.207 240.875" stroke="#C0C0C0" stroke-width="1.33333" stroke-miterlimit="10"/>
<path d="M325.171 212.178C325.171 212.178 328.506 224.349 333.86 230.454" stroke="#C0C0C0" stroke-width="1.33333" stroke-miterlimit="10"/>
<path d="M282.829 180.541C282.456 182.182 282.181 183.995 282.033 185.997" stroke="#C0C0C0" stroke-width="1.33333" stroke-miterlimit="10"/>
<path d="M293.855 169.108C293.855 169.108 287.585 170.287 283.489 177.677" stroke="#C0C0C0" stroke-width="1.33333" stroke-miterlimit="10"/>
<path d="M285.919 225.61C285.919 225.61 285.712 235.398 290.706 240.895" stroke="#C0C0C0" stroke-width="1.33333" stroke-miterlimit="10"/>
<path d="M294.785 195.643C301.578 194.311 304.561 197.773 304.561 197.773" stroke="#1A2E35" stroke-width="1.33333" stroke-linecap="round" stroke-linejoin="round"/>
<path d="M283.458 198.511C284.972 196.977 287.059 196.146 289.213 196.218" stroke="#1A2E35" stroke-width="1.33333" stroke-linecap="round" stroke-linejoin="round"/>
<path d="M299.217 218.439C301.311 217.239 302.48 214.131 302.48 214.131L302.043 214.366C299.309 215.834 296.327 216.787 293.249 217.177C295.214 219.245 297.825 219.235 299.217 218.439Z" stroke="#1A2E35" stroke-width="1.33333" stroke-linecap="round" stroke-linejoin="round"/>
<path d="M290.892 211.953C290.008 211.844 287.478 210.645 287.267 208.935C287.205 208.422 287.576 207.953 288.128 207.546C290.315 205.939 291.634 203.409 291.44 200.702C291.426 200.51 291.417 200.398 291.417 200.398" stroke="#1A2E35" stroke-width="1.33333" stroke-linecap="round" stroke-linejoin="round"/>
<path d="M299.586 198.373C300.229 198.294 300.89 199.364 301.062 200.753C301.233 202.141 300.849 203.332 300.206 203.411C299.562 203.491 298.901 202.428 298.731 201.039C298.558 199.644 298.943 198.452 299.586 198.373Z" fill="#1A2E35"/>
<path d="M288.376 202.392C288.544 203.756 288.169 204.924 287.538 205.002C286.907 205.08 286.259 204.038 286.091 202.673C285.923 201.309 286.298 200.141 286.929 200.063C287.561 199.986 288.209 201.029 288.376 202.392Z" fill="#1A2E35"/>
<path d="M309.249 199.547C309.249 199.547 308.375 197.081 309.369 195.779" stroke="#1A2E35" stroke-width="1.33333" stroke-linecap="round" stroke-linejoin="round"/>
<path d="M340.86 312.115C338.737 313.586 334.293 315.994 328.908 315.113C328.908 315.113 332.22 297.892 320.737 297.184L326.037 295.494L335.754 257.385" stroke="#1A2E35" stroke-width="1.33333" stroke-miterlimit="10" stroke-linecap="round" stroke-linejoin="round"/>
<path d="M328.906 295.495C328.906 295.495 335.057 297.114 336.786 302.412" stroke="#1A2E35" stroke-width="1.33333" stroke-miterlimit="10" stroke-linecap="round" stroke-linejoin="round"/>
<path d="M303.795 234.162C309.638 234.159 315.437 232.844 320.762 230.453" stroke="#1A2E35" stroke-width="1.33333" stroke-miterlimit="10" stroke-linecap="round" stroke-linejoin="round"/>
<path d="M295.866 233.252C297.177 233.607 298.527 233.817 299.876 233.96" stroke="#1A2E35" stroke-width="1.33333" stroke-miterlimit="10" stroke-linecap="round" stroke-linejoin="round"/>
<path d="M322.076 244.18C323.734 243.59 325.475 242.907 327.301 242.122" stroke="#1A2E35" stroke-width="1.33333" stroke-miterlimit="10" stroke-linecap="round" stroke-linejoin="round"/>
<path d="M293.285 244.321C293.285 244.321 299.538 250.259 316.09 246.02" stroke="#1A2E35" stroke-width="1.33333" stroke-miterlimit="10" stroke-linecap="round" stroke-linejoin="round"/>
<path d="M298.69 273.838C298.69 273.838 299.672 288.176 310.293 293.515" stroke="#1A2E35" stroke-width="1.33333" stroke-miterlimit="10" stroke-linecap="round" stroke-linejoin="round"/>
<path d="M317.271 298.473C317.271 298.473 319.368 293.865 325.608 296.139C325.608 296.139 331.514 298.171 333.282 304.244C335.048 310.317 332.84 315.728 328.533 315.949C324.227 316.17 323.441 315.839 324.165 314.513C324.89 313.188 326.385 309.589 324.502 305.084C321.822 298.674 317.271 298.473 317.271 298.473Z" fill="#38BFF2"/>
<g opacity="0.199997">
<g opacity="0.199997">
<path opacity="0.199997" d="M317.276 298.473C317.276 298.473 319.372 293.864 325.612 296.139C325.612 296.139 331.518 298.171 333.286 304.244C335.052 310.317 332.844 315.728 328.537 315.949C324.231 316.17 323.445 315.839 324.17 314.513C324.894 313.188 326.389 309.589 324.506 305.084C321.826 298.674 317.276 298.473 317.276 298.473Z" fill="black"/>
</g>
</g>
<path d="M317.273 298.473C317.273 298.473 319.369 293.864 325.609 296.139C325.609 296.139 331.516 298.171 333.284 304.244C335.05 310.317 332.842 315.728 328.535 315.949C324.228 316.17 323.442 315.839 324.167 314.513C324.891 313.188 326.386 309.589 324.503 305.084C321.824 298.674 317.273 298.473 317.273 298.473Z" stroke="#1A2E35" stroke-width="1.33333" stroke-miterlimit="10" stroke-linecap="round" stroke-linejoin="round"/>
<path d="M31.5671 279.512C31.5671 279.512 28.3603 252.085 0 263.136C0 263.136 24.1288 262.957 28.2102 283.621L31.9634 283.221L31.5671 279.512Z" fill="#38BFF2"/>
<g opacity="0.100006">
<g opacity="0.100006">
<path opacity="0.100006" d="M31.5671 279.512C31.5671 279.512 28.3603 252.085 0 263.135C0 263.135 24.1288 262.956 28.2102 283.621L31.9634 283.221L31.5671 279.512Z" fill="black"/>
</g>
</g>
<path d="M31.9531 279.05C31.9531 279.05 29.5007 249.805 24.1594 227.077C24.1594 227.077 40.4778 244.338 36.7479 276.84L31.9531 279.05Z" fill="#38BFF2"/>
<g opacity="0.100006">
<g opacity="0.100006">
<path opacity="0.100006" d="M31.955 279.051C31.955 279.051 29.5026 249.805 24.1614 227.077C24.1614 227.077 40.4797 244.338 36.7498 276.841L31.955 279.051Z" fill="black"/>
</g>
</g>
<path d="M30.3696 298.41C30.3696 298.41 25.6662 258.127 10.0099 244.294C10.0099 244.294 38.0094 251.258 33.8608 294.04L30.3696 298.41Z" fill="#38BFF2"/>
<path d="M35.2912 296.722C35.2912 296.722 42.1496 256.749 58.5257 243.778C58.5257 243.778 30.1924 249.228 32.0387 292.172L35.2912 296.722Z" fill="#38BFF2"/>
<path d="M49.66 283.646H16.5571V289.396H17.6593V309.694C17.6593 315.385 22.2732 319.999 27.965 319.999H38.2521C43.944 319.999 48.5579 315.385 48.5579 309.694V289.396H49.66V283.646Z" fill="white"/>
<path d="M49.66 283.646H16.5571V289.396H17.6593V309.694C17.6593 315.385 22.2732 319.999 27.965 319.999H38.2521C43.944 319.999 48.5579 315.385 48.5579 309.694V289.396H49.66V283.646Z" stroke="#1A2E35" stroke-width="1.33333" stroke-miterlimit="10"/>
<path d="M39.4022 289.125H43.8119H39.4022Z" fill="white"/>
<path d="M39.4022 289.125H43.8119" stroke="#1A2E35" stroke-width="1.33333" stroke-miterlimit="10"/>
<path d="M22.1479 289.125H34.9201H22.1479Z" fill="white"/>
<path d="M22.1479 289.125H34.9201" stroke="#1A2E35" stroke-width="1.33333" stroke-miterlimit="10"/>
<path d="M161.717 294.675L153.232 225.575C152.963 223.38 150.966 221.601 148.771 221.601H139.033L150.275 298.649H158.231C160.426 298.649 161.987 296.87 161.717 294.675Z" fill="#38BFF2"/>
<path d="M161.717 294.675L153.232 225.575C152.963 223.38 150.966 221.601 148.771 221.601H139.033L150.275 298.649H158.231C160.426 298.649 161.987 296.87 161.717 294.675Z" stroke="#1A2E35" stroke-width="1.33333" stroke-miterlimit="10" stroke-linecap="round" stroke-linejoin="round"/>
<path d="M156.125 298.648H58.346C56.1518 298.648 54.1545 296.869 53.8841 294.674L45.4004 225.575C45.1309 223.38 46.6909 221.601 48.886 221.601H146.665C148.86 221.601 150.858 223.38 151.126 225.575L159.611 294.674C159.881 296.869 158.321 298.648 156.125 298.648Z" fill="#1A2E35"/>
<g opacity="0.100006">
<g opacity="0.100006">
<path opacity="0.100006" d="M156.123 298.648H58.3438C56.1496 298.648 54.1523 296.869 53.8819 294.674L45.3982 225.575C45.1287 223.38 46.6887 221.6 48.8838 221.6H146.662C148.857 221.6 150.856 223.38 151.124 225.575L159.609 294.674C159.878 296.869 158.318 298.648 156.123 298.648Z" fill="white"/>
</g>
</g>
<path d="M156.127 298.648H58.3477C56.1535 298.648 54.1562 296.869 53.8858 294.674L45.4021 225.575C45.1326 223.38 46.6926 221.601 48.8877 221.601H146.666C148.861 221.601 150.86 223.38 151.128 225.575L159.613 294.674C159.882 296.869 158.322 298.648 156.127 298.648Z" stroke="#1A2E35" stroke-width="1.33333" stroke-miterlimit="10" stroke-linecap="round" stroke-linejoin="round"/>
<path d="M110.535 314.351L114.439 269.846C114.532 268.776 113.689 267.857 112.616 267.857H87.9304C86.9821 267.857 86.1914 268.581 86.1084 269.527L81.8553 318.01C81.7612 319.08 82.6041 320 83.6774 320H132.576C133.586 320 134.406 319.18 134.406 318.17C134.406 317.16 133.586 316.341 132.576 316.341H112.358C111.283 316.341 110.44 315.42 110.535 314.351Z" fill="#1A2E35"/>
<path d="M110.535 314.351L114.439 269.846C114.532 268.776 113.689 267.857 112.616 267.857H87.9304C86.9821 267.857 86.1914 268.581 86.1084 269.527L81.8553 318.01C81.7612 319.08 82.6041 320 83.6774 320H132.576C133.586 320 134.406 319.18 134.406 318.17C134.406 317.16 133.586 316.341 132.576 316.341H112.358C111.283 316.341 110.44 315.42 110.535 314.351Z" stroke="#1A2E35" stroke-width="1.33333" stroke-miterlimit="10" stroke-linecap="round" stroke-linejoin="round"/>
<path d="M134.405 318.17C134.405 317.159 133.586 316.341 132.576 316.341H112.357C111.283 316.341 110.44 315.42 110.534 314.351L114.438 269.846C114.532 268.779 113.693 267.861 112.622 267.858C111.677 267.861 110.89 268.584 110.807 269.527L106.554 318.01C106.46 319.08 107.304 320 108.376 320H132.576C133.586 320 134.405 319.18 134.405 318.17Z" fill="#38BFF2"/>
<path d="M134.405 318.17C134.405 317.159 133.586 316.341 132.576 316.341H112.357C111.283 316.341 110.44 315.42 110.534 314.351L114.438 269.846C114.532 268.779 113.693 267.861 112.622 267.858C111.677 267.861 110.89 268.584 110.807 269.527L106.554 318.01C106.46 319.08 107.304 320 108.376 320H132.576C133.586 320 134.405 319.18 134.405 318.17Z" stroke="#1A2E35" stroke-width="1.33333" stroke-miterlimit="10" stroke-linecap="round" stroke-linejoin="round"/>
<path d="M22.2963 320H371.975" stroke="#1A2E35" stroke-width="1.33333" stroke-miterlimit="10" stroke-linecap="round" stroke-linejoin="round"/>
<path d="M348.584 150.663H330.199C327.813 150.663 325.878 152.598 325.878 154.985V163.929C325.878 166.315 327.813 168.249 330.199 168.249H335.004L336.408 176.503L343.779 168.249H348.584C350.971 168.249 352.905 166.315 352.905 163.929V154.985C352.905 152.598 350.971 150.663 348.584 150.663Z" fill="white"/>
<path d="M348.584 150.663H330.199C327.813 150.663 325.878 152.598 325.878 154.985V163.929C325.878 166.315 327.813 168.249 330.199 168.249H335.004L336.408 176.503L343.779 168.249H348.584C350.971 168.249 352.905 166.315 352.905 163.929V154.985C352.905 152.598 350.971 150.663 348.584 150.663Z" stroke="#1A2E35" stroke-width="1.33333" stroke-miterlimit="10" stroke-linecap="round" stroke-linejoin="round"/>
<path d="M320.405 124.205H302.021C299.635 124.205 297.7 126.14 297.7 128.526V137.47C297.7 139.857 299.635 141.792 302.021 141.792H306.826L310.467 150.045L315.6 141.792H320.405C322.792 141.792 324.727 139.857 324.727 137.47V128.526C324.727 126.14 322.792 124.205 320.405 124.205Z" fill="white"/>
<path d="M320.405 124.205H302.021C299.635 124.205 297.7 126.14 297.7 128.526V137.47C297.7 139.857 299.635 141.792 302.021 141.792H306.826L310.467 150.045L315.6 141.792H320.405C322.792 141.792 324.727 139.857 324.727 137.47V128.526C324.727 126.14 322.792 124.205 320.405 124.205Z" stroke="#1A2E35" stroke-width="1.33333" stroke-miterlimit="10" stroke-linecap="round" stroke-linejoin="round"/>
<path d="M284.63 133.49H267.269C265.015 133.49 263.187 135.317 263.187 137.571V146.018C263.187 148.272 265.015 150.099 267.269 150.099H271.806L276.541 157.892L280.093 150.099H284.63C286.884 150.099 288.712 148.272 288.712 146.018V137.571C288.712 135.317 286.884 133.49 284.63 133.49Z" fill="white"/>
<path d="M284.63 133.49H267.269C265.015 133.49 263.187 135.317 263.187 137.571V146.018C263.187 148.272 265.015 150.099 267.269 150.099H271.806L276.541 157.892L280.093 150.099H284.63C286.884 150.099 288.712 148.272 288.712 146.018V137.571C288.712 135.317 286.884 133.49 284.63 133.49Z" stroke="#1A2E35" stroke-width="1.33333" stroke-miterlimit="10" stroke-linecap="round" stroke-linejoin="round"/>
<path d="M271.159 138.98V141.631H271.742C272.134 141.631 272.345 141.451 272.345 140.893V139.719C272.345 139.159 272.134 138.98 271.742 138.98H271.159ZM273.576 139.797V140.815C273.576 142.068 272.971 142.749 271.742 142.749H271.159V145.69H269.93V137.862H271.742C272.971 137.862 273.576 138.544 273.576 139.797Z" fill="#1A2E35"/>
<path d="M275.432 145.69H274.203V137.861H275.432V141.216H276.831V137.861H278.084V145.69H276.831V142.335H275.432V145.69Z" fill="#1A2E35"/>
<path d="M280.211 138.98V141.631H280.792C281.184 141.631 281.396 141.451 281.396 140.893V139.719C281.396 139.159 281.184 138.98 280.792 138.98H280.211ZM282.626 139.797V140.814C282.626 142.067 282.023 142.749 280.792 142.749H280.211V145.69H278.98V137.862H280.792C282.023 137.862 282.626 138.544 282.626 139.797Z" fill="#1A2E35"/>
<path d="M308.576 134.206V135.246C308.576 136.498 307.949 137.214 306.742 137.214C305.533 137.214 304.908 136.498 304.908 135.246V131.175C304.908 129.923 305.533 129.207 306.742 129.207C307.949 129.207 308.576 129.923 308.576 131.175V131.935H307.413V131.097C307.413 130.537 307.167 130.325 306.775 130.325C306.384 130.325 306.138 130.537 306.138 131.097V135.324C306.138 135.884 306.384 136.085 306.775 136.085C307.167 136.085 307.413 135.884 307.413 135.324V134.206H308.576Z" fill="#1A2E35"/>
<path d="M311.53 132.775H313.028V133.648H311.53V135.179H310.658V133.648H309.159V132.775H310.658V131.265H311.53V132.775Z" fill="#1A2E35"/>
<path d="M315.963 132.774H317.461V133.647H315.963V135.178H315.09V133.647H313.592V132.774H315.09V131.265H315.963V132.774Z" fill="#1A2E35"/>
<path d="M330.772 160.313V159.121L335.754 157.287V158.495L332.331 159.717L335.754 160.94V162.147L330.772 160.313Z" fill="#1A2E35"/>
<path d="M340.66 154.369H342.112L337.893 165.066H336.443L340.66 154.369Z" fill="#1A2E35"/>
<path d="M342.799 162.147V160.94L346.223 159.718L342.799 158.495V157.287L347.782 159.121V160.313L342.799 162.147Z" fill="#1A2E35"/>
</svg>
