<svg width="35" height="35" viewBox="0 0 35 35" fill="none" xmlns="http://www.w3.org/2000/svg">
<g clip-path="url(#clip0_1_2611)">
<path d="M34.8879 17.4371C34.8879 27.0673 27.0809 34.8741 17.4507 34.8741C7.82052 34.8741 0.0136719 27.0673 0.0136719 17.4371C0.0136719 7.80683 7.82052 0 17.4507 0C27.0809 0 34.8879 7.80683 34.8879 17.4371Z" fill="#22253B"/>
<path d="M21.4011 8.6864H13.2124C10.5473 8.6864 8.37915 10.8546 8.37915 13.5196V21.7085C8.37915 24.3735 10.5473 26.5417 13.2124 26.5417H21.4013C24.0661 26.5417 26.2343 24.3735 26.2343 21.7085V13.5196C26.2343 10.8546 24.0661 8.6864 21.4011 8.6864ZM17.3068 22.4962C14.6147 22.4962 12.4246 20.3061 12.4246 17.614C12.4246 14.9219 14.6147 12.7319 17.3068 12.7319C19.9988 12.7319 22.189 14.9219 22.189 17.614C22.189 20.3061 19.9988 22.4962 17.3068 22.4962ZM22.3057 13.8832C21.5101 13.8832 20.863 13.2362 20.863 12.4406C20.863 11.6451 21.5101 10.9978 22.3057 10.9978C23.1012 10.9978 23.7483 11.6451 23.7483 12.4406C23.7483 13.2362 23.1012 13.8832 22.3057 13.8832Z" fill="white"/>
<path d="M17.3063 13.7788C15.1916 13.7788 13.4709 15.4993 13.4709 17.6142C13.4709 19.7289 15.1916 21.4496 17.3063 21.4496C19.4212 21.4496 21.1416 19.7289 21.1416 17.6142C21.1416 15.4993 19.4212 13.7788 17.3063 13.7788Z" fill="white"/>
<path d="M22.3063 12.0447C22.088 12.0447 21.9104 12.2223 21.9104 12.4405C21.9104 12.6588 22.088 12.8364 22.3063 12.8364C22.5245 12.8364 22.7023 12.6589 22.7023 12.4405C22.7023 12.2222 22.5245 12.0447 22.3063 12.0447Z" fill="white"/>
</g>
<defs>
<clipPath id="clip0_1_2611">
<rect width="35" height="35" fill="white"/>
</clipPath>
</defs>
</svg>
