<svg width="35" height="35" viewBox="0 0 35 35" fill="none" xmlns="http://www.w3.org/2000/svg">
<g clip-path="url(#clip0_1_2618)">
<path d="M34.8741 17.4371C34.8741 27.0673 27.0673 34.8741 17.4371 34.8741C7.80683 34.8741 0 27.0673 0 17.4371C0 7.80683 7.80683 0 17.4371 0C27.0673 0 34.8741 7.80683 34.8741 17.4371Z" fill="#22253B"/>
<path fill-rule="evenodd" clip-rule="evenodd" d="M16.8501 22.9578H17.9654C17.9654 22.9578 18.3023 22.921 18.4743 22.7359C18.6326 22.5662 18.6276 22.2473 18.6276 22.2473C18.6276 22.2473 18.6058 20.7548 19.3004 20.5349C19.9851 20.3185 20.8644 21.9776 21.7964 22.6154C22.501 23.0982 23.0364 22.9924 23.0364 22.9924L25.5285 22.9578C25.5285 22.9578 26.8319 22.8777 26.2138 21.8555C26.1633 21.7718 25.8539 21.0994 24.3612 19.7174C22.7987 18.271 23.0079 18.505 24.89 16.0031C26.0364 14.4794 26.4946 13.5492 26.3514 13.1508C26.2148 12.7713 25.3718 12.8716 25.3718 12.8716L22.5662 12.889C22.5662 12.889 22.3582 12.8607 22.2039 12.9527C22.0532 13.0429 21.9561 13.2531 21.9561 13.2531C21.9561 13.2531 21.5121 14.4322 20.9198 15.4349C19.6705 17.5508 19.1709 17.6624 18.9668 17.5311C18.4918 17.2249 18.6104 16.301 18.6104 15.6446C18.6104 13.5941 18.9222 12.7392 18.0032 12.5179C17.6982 12.4444 17.4737 12.3959 16.6938 12.388C15.6927 12.3777 14.8453 12.3911 14.3655 12.6255C14.0464 12.7814 13.8001 13.1288 13.9501 13.1487C14.1355 13.1735 14.5555 13.2617 14.7782 13.5641C15.0657 13.9542 15.0556 14.8303 15.0556 14.8303C15.0556 14.8303 15.2207 17.2441 14.6698 17.5439C14.2916 17.7496 13.7728 17.3297 12.6589 15.4101C12.0882 14.4268 11.6573 13.34 11.6573 13.34C11.6573 13.34 11.5743 13.1369 11.4261 13.0282C11.2462 12.8966 10.9949 12.8547 10.9949 12.8547L8.32878 12.8721C8.32878 12.8721 7.92853 12.8832 7.78161 13.0568C7.65091 13.2111 7.77123 13.5305 7.77123 13.5305C7.77123 13.5305 9.85854 18.4009 12.222 20.8554C14.3891 23.1056 16.8501 22.9578 16.8501 22.9578Z" fill="white"/>
</g>
<defs>
<clipPath id="clip0_1_2618">
<rect width="35" height="35" fill="white"/>
</clipPath>
</defs>
</svg>
