<svg width="35" height="35" viewBox="0 0 35 35" fill="none" xmlns="http://www.w3.org/2000/svg">
<g clip-path="url(#clip0_1_2626)">
<path d="M34.9403 17.4632C34.9403 27.1078 27.1217 34.9262 17.4771 34.9262C7.83244 34.9262 0.013916 27.1078 0.013916 17.4632C0.013916 7.81852 7.83244 0 17.4771 0C27.1217 0 34.9403 7.81852 34.9403 17.4632Z" fill="#22253B"/>
<path d="M26.474 11.6699C25.7645 10.8266 24.4547 10.4825 21.9531 10.4825H12.8726C10.3138 10.4825 8.9818 10.8487 8.27502 11.7466C7.58594 12.6221 7.58594 13.9119 7.58594 15.6971V19.0998C7.58594 22.5584 8.40353 24.3143 12.8726 24.3143H21.9531C24.1225 24.3143 25.3245 24.0108 26.1022 23.2665C26.8997 22.5032 27.24 21.2571 27.24 19.0998V15.6971C27.24 13.8145 27.1866 12.517 26.474 11.6699ZM20.2038 17.8682L16.0805 20.0232C15.9883 20.0714 15.8875 20.0953 15.7868 20.0953C15.6728 20.0953 15.5591 20.0647 15.4583 20.0036C15.2686 19.8887 15.1528 19.6831 15.1528 19.4613V15.1651C15.1528 14.9437 15.2683 14.7383 15.4576 14.6233C15.647 14.5083 15.8825 14.5004 16.079 14.6025L20.2025 16.7436C20.4123 16.8525 20.544 17.0691 20.5444 17.3054C20.5446 17.5419 20.4135 17.7588 20.2038 17.8682Z" fill="white"/>
</g>
<defs>
<clipPath id="clip0_1_2626">
<rect width="35" height="35" fill="white"/>
</clipPath>
</defs>
</svg>
